<svg xmlns="http://www.w3.org/2000/svg" viewBox="0 0 124.89 129.67"><defs><style>.cls-1{fill:#199175;}.cls-2{fill:#116954;}.cls-3{fill:#004d3e;}.cls-4{fill:#5da596;}.cls-5{fill:#78b2b2;}.cls-6{fill:#002319;}.cls-7{fill:#b6d7de;}</style></defs><g id="Lager_2" data-name="Lager 2"><g id="OBJECTS"><path class="cls-1" d="M110.71,57.55a27.1,27.1,0,0,1,5,.68c1.8.37,3.42,1.17,5.16,1.68a.75.75,0,0,0,.92-.92c-1-3-4.06-5.06-6.88-6.16a16.25,16.25,0,0,0-10.18,0c-3.87,1.22-6.45,4-9.76,6.15a23.81,23.81,0,0,1-5.84,2.65,41.33,41.33,0,0,0-5.52-7.86,21.91,21.91,0,0,0,10.07-6.48A23.28,23.28,0,0,0,97.2,41c.81-2,1.58-4,3.14-5.5,2.54-2.43,6-2.8,9.36-2.36,1.45.19,4.88,1.29,5.24-1a1.36,1.36,0,0,0-.62-1.2,1.45,1.45,0,0,0-.18-.21,4.57,4.57,0,0,0-.58-.67,8.87,8.87,0,0,0-1.38-1.15,9.68,9.68,0,0,0-2.93-1.22,14.12,14.12,0,0,0-7,.37c-5.18,1.52-8.08,5.42-10.06,10.21a17.82,17.82,0,0,1-3.71,6.24,16.81,16.81,0,0,1-5.77,3.62,25.79,25.79,0,0,1-4,1.15,26.55,26.55,0,0,0-2.67-1.75c-.55-.32-1.12-.61-1.68-.88,2.46-5.86,4.61-11.89,3.65-18.33-.7-4.71-3.83-9.58-2.55-14.42a10.64,10.64,0,0,1,3.35-5.41A8.74,8.74,0,0,1,81.4,6.88c.51-.18,1.16-.11,1.34-.76l0-.11a1.12,1.12,0,0,0-.28-1.09c-3-2.54-7.14,1.21-8.95,3.57-2.59,3.37-3,7.53-2.13,11.6.94,4.39,2.8,8.29,2.44,12.88-.32,4.12-1.95,8.1-3.55,11.86,0,.08-.07.15-.1.23a21.82,21.82,0,0,0-8.29-.63,20.14,20.14,0,0,0-.3-14.67c-1.82-4.78-5.3-8.5-7.55-13a11.94,11.94,0,0,1-1.34-6.37,7.49,7.49,0,0,1,.87-2.91c.47-.83,1.33-1.54,1.2-2.57a1.06,1.06,0,0,0-.76-1c-1.7-.41-2.87,1.43-3.5,2.76a11.6,11.6,0,0,0-1.05,5.29c.12,4.23,2.27,7.88,4.49,11.35,2.55,4,4.94,8.05,5,12.92.07,3.63-1.55,6.66-3,9.8a23.77,23.77,0,0,0-2.9,1.45,20.4,20.4,0,0,0-5.92-5.56,19.2,19.2,0,0,0-6.37-2.39c-2.2-.42-4.61-.58-5.67-2.84S34,31.58,33.82,29.07a25.83,25.83,0,0,0-1.6-8,11.64,11.64,0,0,0-5.06-5.93,8.17,8.17,0,0,0-3.61-1,22.27,22.27,0,0,0-5,1.11c-.27.06-.59.18-.63.46s.2.45.41.59a24.29,24.29,0,0,0,4.84,2,6,6,0,0,1,2.23,1.64c3.58,3.79,2.67,9.24,3.33,14a14.45,14.45,0,0,0,2.81,7.46,11,11,0,0,0,6.49,3.36,18.7,18.7,0,0,1,5.86,1.88,14.54,14.54,0,0,1,4.14,3.67c.15.2.28.42.43.63a27.17,27.17,0,0,0-4,4.81c-1.48.43-2.94,1-4.41,1.48-1.3.47-2.7,1.2-3.8,1.7a8.29,8.29,0,0,0-1.36.52A3.18,3.18,0,0,0,34,60a4.94,4.94,0,0,0-1.11-.14c-2.41-.39-3.57-3.52-4.59-5.39a18.59,18.59,0,0,0-4.89-5.94,13,13,0,0,0-7.2-2.79,10.6,10.6,0,0,0-4,.52A35.57,35.57,0,0,0,9.05,48a1,1,0,0,0,.48,1.8,22.66,22.66,0,0,0,3.2-1,9.4,9.4,0,0,1,3.88-.11,10.57,10.57,0,0,1,6.21,3.76c3,3.65,3.27,8.71,7.61,11.34a20.59,20.59,0,0,0,3.16,1.47,13.09,13.09,0,0,0,3.69,1.07,13.22,13.22,0,0,0,2.51,0,39.69,39.69,0,0,0-1,4.78c0,.25,0,.5-.08.75l-.78,1a12.48,12.48,0,0,0-1,1.37c.07-.11-.75,1.49-.43.94-1.08,1.89-1.76,3.87-3.77,5-3.68,2-8.67,1.53-12.2-.56-3.36-2-6.3-5.46-10.57-5.12a12.22,12.22,0,0,0-6.39,3C2,78.71,0,80.75,0,82.89a.11.11,0,0,0,.13.1,10,10,0,0,0,3-1.89,38.15,38.15,0,0,1,3.43-2.38,6.26,6.26,0,0,1,7.56.21c2.12,1.47,3.92,3.35,6.26,4.49a17.32,17.32,0,0,0,7.41,1.76,20.44,20.44,0,0,0,7.55-1.53c1.24-.48,2.46-.94,3.73-1.38l.33-.12a27.74,27.74,0,0,0,1.76,5.13c-.34.83-.69,1.66-1,2.5a15.34,15.34,0,0,1-9.94,9.31c-2.31.67-4.61,1.18-6.54,2.72a11,11,0,0,0-3.3,4.66,14.23,14.23,0,0,0-.94,5.88c0,.45.69,3.66,1.74,3.11s.81-3.34.92-4.42a10.6,10.6,0,0,1,2.24-5.63c1.61-1.91,3.85-2.5,6.2-3A23.69,23.69,0,0,0,37.07,100a37.16,37.16,0,0,0,8.26-6.4A21,21,0,0,0,47,95.33a25.14,25.14,0,0,0,6.12,4c0,.08,0,.16,0,.24a19.06,19.06,0,0,1-2.85,7.63c-2.69,4.46-6.1,9-5.71,14.49.25,3.55,2.81,8.65,7.05,8,.48-.08.42-.69.12-.92a9.5,9.5,0,0,1-3.67-4.43,9.16,9.16,0,0,1,.62-6.5c2-4.48,5.49-8.09,7.35-12.65a19.93,19.93,0,0,0,1.2-4.43,26.2,26.2,0,0,0,3.4.6c.63.07,1.27.11,1.92.14a46.72,46.72,0,0,0,3.64,5.25,12.48,12.48,0,0,1,2.63,5c.46,2.46,0,4.77,1,7.14,1.79,4,5.89,6.79,9.81,8.4,1.93.8,10.9,3.9,10.88-.39a.12.12,0,0,0-.21-.09c-1.45,1.26-5.43-1.25-6.73-1.85a36.82,36.82,0,0,1-6.53-3.77c-1.73-1.3-3.46-3-3.89-5.25-.25-1.33,0-2.73-.18-4.08a11,11,0,0,0-.78-3.09c-1.14-2.78-3.29-5-5-7.36a38.33,38.33,0,0,0,6.11-1.06,8.77,8.77,0,0,0,1.75,2.39c3,3,7.62,3.71,11.65,4.12s8.6.78,11.26,4.36a10.92,10.92,0,0,1,2,4.85c.21,1.46.31,4.37-.88,5.45a.51.51,0,0,0,.1.8c1.74.86,3.16-.89,3.69-2.36a11.29,11.29,0,0,0,.22-5.8,12.7,12.7,0,0,0-7.82-9.32c-4.56-1.83-9.64-1.08-14.24-2.72a7.41,7.41,0,0,1-3.75-3,29.18,29.18,0,0,0,10.18-6.3,27.71,27.71,0,0,0,4.94,1.25c2.77.42,5.6.58,8.39.74,2.21.13,4-.5,5.78,1a13,13,0,0,1,3.31,4.77c.88,1.89,1.51,3.91,2.49,5.75.56,1.06,2.16,3.69,3.68,3.09a.48.48,0,0,0,.32-.43c0-.07,0-.15,0-.2-.75-.77-.63-1.89-.77-2.88a23.29,23.29,0,0,0-.79-3,44.06,44.06,0,0,0-2-5.55,20.38,20.38,0,0,0-8.28-9.51c-2.35-1.4-5-1.3-7.55-1.88a24.8,24.8,0,0,1-4.43-1.51,22.72,22.72,0,0,0,.93-5.71c.37,0,.74,0,1.11-.08A41.88,41.88,0,0,0,102.83,77c2.38-.72,5.16-2.57,7.72-1.82,2.18.64,3.74,2.64,5.27,4.19s3.05,4,5.05,5.22a.39.39,0,0,0,.56-.23c.47-2.19-.9-4-2.18-5.66a27.25,27.25,0,0,0-4.6-5.05,8.65,8.65,0,0,0-6.18-2.08c-2.74.24-5.36,1.64-8,2.34a37.86,37.86,0,0,1-7,1.18,32.68,32.68,0,0,0-.91-5,35.84,35.84,0,0,0-1.11-3.42,33.59,33.59,0,0,0,9.6-5.32C104,59,106.9,57.48,110.71,57.55Z"/><path class="cls-2" d="M75,86.91a37.08,37.08,0,0,1-11.85-4.73A17.43,17.43,0,0,1,58.66,78a35.62,35.62,0,0,1-3.21-6c-1.52-3.29-4.56-10-9.24-7.81s-5,8.41-4.34,12.86a28.07,28.07,0,0,0,2.28,7.66,12.42,12.42,0,0,0,2.61,3.78,22.24,22.24,0,0,0,4.57,4.85,23.3,23.3,0,0,0,12.15,4.62c4.3.39,9.14-.11,12.89-2.43,1.73-1.07,3.57-2.88,3.64-5.07C80.1,87.6,77,87.41,75,86.91Z"/><path class="cls-3" d="M62.37,90.43c-.78-.16-1.5-.6-2.29-.78s-1.57-.18-2.42-.46a12.78,12.78,0,0,1-4.27-2.54,28.48,28.48,0,0,1-3.59-3.93,11.71,11.71,0,0,1-1.44-2.24A7.61,7.61,0,0,0,47.14,78,.08.08,0,0,0,47,78a1.52,1.52,0,0,0-.71,1.41,4.13,4.13,0,0,0,.18,1.44,11.48,11.48,0,0,0,1.31,2.9,44.26,44.26,0,0,0,3.64,5.18,11.74,11.74,0,0,0,5.21,3.89,6.59,6.59,0,0,0,3.42.47,4.27,4.27,0,0,0,2.57-1.8C62.92,91.16,62.89,90.53,62.37,90.43Z"/><path class="cls-4" d="M85.3,60.13a30.43,30.43,0,0,0-6.24-6.38c-2.18-1.68-5-2-7.44-3.14s-4.7-2.19-7.29-1.81A.73.73,0,0,0,64,50c1.64,1.55,3.62,2.66,5.23,4.25s2.18,4.25,3.81,6.06c.75.85,1.62,1.6,2.41,2.41.43.44.84.87,1.24,1.33l.2.23.4.52c.11.17,1,1.34.87,1.55,0-.07-.29-.84-.08-.13.09.33.2.66.29,1a11,11,0,0,0,1.61,4c1.13,1.52,3,2.65,4.94,2A4.49,4.49,0,0,0,88.14,69,16.73,16.73,0,0,0,85.3,60.13Z"/><path class="cls-5" d="M85,64.49l-.08-.59a5.52,5.52,0,0,0-.47-1.09,8.52,8.52,0,0,0-.86-1.42,16.18,16.18,0,0,0-2.45-2.71,15.59,15.59,0,0,0-2.9-2A15.26,15.26,0,0,0,76.72,56a5.26,5.26,0,0,0-1.67-.32.48.48,0,0,0-.33.8c.39.37.76.73,1.18,1.07a13.07,13.07,0,0,1,1.11,1,15.59,15.59,0,0,1,1.09,1.22l.13.18.2.27q.24.34.45.69c.27.45.52.92.75,1.4a2.59,2.59,0,0,1,.17.38l-.09-.2a1.86,1.86,0,0,1,.1.25c.09.23.18.47.25.7.16.49.29,1,.48,1.46a2.89,2.89,0,0,0,2.61,2A1.91,1.91,0,0,0,85,65c0-.09,0-.18,0-.28Q84.92,63.68,85,64.49Z"/><path class="cls-6" d="M61.28,66.33A2.53,2.53,0,0,0,60.36,65l-1.08-1L57.19,62.1a57.4,57.4,0,0,0-4.4-3.7c-.76-.57-1.5.77-.84,1.23a53.49,53.49,0,0,0,3.74,4.08l2,2,1,1a2.68,2.68,0,0,0,1.4.94A1,1,0,0,0,61.28,66.33Z"/><path class="cls-6" d="M59.22,73.84l0-.26c0-.26,0-.53,0-.79l0-.88a2.09,2.09,0,0,0-3.58-1.48l-.33.42a2.06,2.06,0,0,0-.28,1,2.24,2.24,0,0,0-.52,1.43c0,.89,0,1.79.07,2.68a2.36,2.36,0,0,0,.65,1.57,2.3,2.3,0,0,0,1.57.65,2.27,2.27,0,0,0,1.56-.65,2.44,2.44,0,0,0,.35-.51h0a2.23,2.23,0,0,0,.57-1,1.43,1.43,0,0,0,.09-.41A5.45,5.45,0,0,0,59.22,73.84Z"/><path class="cls-6" d="M68.53,66.33A2.53,2.53,0,0,1,69.45,65l1.08-1,2.1-1.93A57.25,57.25,0,0,1,77,58.4c.76-.57,1.5.77.85,1.23-1.16,1.43-2.45,2.78-3.74,4.08l-2,2-1,1a2.65,2.65,0,0,1-1.39.94A1.06,1.06,0,0,1,68.53,66.33Z"/><path class="cls-6" d="M70.59,73.84l0-.26c0-.26,0-.53,0-.79l0-.88a2.09,2.09,0,0,1,.61-1.48,2.12,2.12,0,0,1,1.48-.62,2.14,2.14,0,0,1,1.49.62l.32.42a2.06,2.06,0,0,1,.28,1,2.25,2.25,0,0,1,.53,1.43c0,.89,0,1.79-.08,2.68a2.31,2.31,0,0,1-.65,1.57,2.27,2.27,0,0,1-1.56.65,2.3,2.3,0,0,1-1.57-.65,2.89,2.89,0,0,1-.35-.51h0a2.21,2.21,0,0,1-.56-1,1.45,1.45,0,0,1-.1-.41A5.73,5.73,0,0,1,70.59,73.84Z"/><path class="cls-6" d="M74.51,83.33a5.72,5.72,0,0,0-4.21-3.19,12.82,12.82,0,0,0-5.9.41l-.3.1a7.73,7.73,0,0,0-5.22,1.48,5,5,0,0,0-2.08,4.71A2.72,2.72,0,0,0,58.47,89c1.08.35,1.71-.31,2.55-.84,1.73-1.06,4.08-.09,5.83.36,2,.5,4.14.76,5.92-.42A3.89,3.89,0,0,0,74.51,83.33ZM59.2,86.54l0,0s0,0,0-.06,0-.13,0-.19a1.84,1.84,0,0,1,.09-.77,2.62,2.62,0,0,1,.32-.65.73.73,0,0,0,.21-.16c.08-.09.18-.16.27-.25a.29.29,0,0,0,0,.09s0,0-.05,0a3.12,3.12,0,0,0-.39.56l-.12.1a.67.67,0,0,0-.22.52.5.5,0,0,0,0,.12.72.72,0,0,0,0,.21.57.57,0,0,0,.13.21A.9.9,0,0,0,59.2,86.54Z"/><path class="cls-5" d="M25.41,19.11v0l-.06-.15h0A1.34,1.34,0,0,1,25.41,19.11Z"/><path class="cls-5" d="M25.4,19.07h0Z"/><path class="cls-5" d="M25.45,19.32h0a1.77,1.77,0,0,0,0-.2l0,.13a.85.85,0,0,0-.09-.31h0a0,0,0,0,0,0,0v0h0l0,0v0a.74.74,0,0,0-.16-.27l.08.11a.91.91,0,0,0-.11-.16s0,0,0,0A1.41,1.41,0,0,0,24.6,18l-.42-.18-.47-.06a1.33,1.33,0,0,0-.68.15.77.77,0,0,0-.38.22,1.3,1.3,0,0,0-.46.5l-.17.41c0,.16-.05.32-.07.47a1.33,1.33,0,0,0,.15.68,1,1,0,0,0,.23.39,1.33,1.33,0,0,0,.49.45l.42.18.47.06a1.75,1.75,0,0,0,.89-.24,1.84,1.84,0,0,0,.65-.65l.17-.41A1.27,1.27,0,0,0,25.45,19.32Z"/><path class="cls-5" d="M25.24,18.69l0,0a.54.54,0,0,1,.07.13Z"/><path class="cls-5" d="M25.23,18.67v0h0Z"/><path class="cls-5" d="M35.42,24.91a3,3,0,0,0-.77-1.33L34,23.11a3,3,0,0,0-1.51-.41,2.3,2.3,0,0,0-1.16.26,2.68,2.68,0,0,0-1.59,1.59,2.3,2.3,0,0,0-.26,1.16c0,.26.07.53.11.8a3,3,0,0,0,.77,1.32l.61.47a3,3,0,0,0,1.52.41,2.17,2.17,0,0,0,1.15-.26,2.68,2.68,0,0,0,1.59-1.59,2.17,2.17,0,0,0,.26-1.15C35.5,25.44,35.46,25.17,35.42,24.91Z"/><path class="cls-5" d="M35.06,37.57a2.59,2.59,0,0,0-.43-1.33l-.55-.72a3.67,3.67,0,0,0-1.58-.92h0a3.41,3.41,0,0,0-1.9,0,3.55,3.55,0,0,0-1.59.92l0,0-.56.72-.36.85c0,.32-.08.63-.13.95a2.68,2.68,0,0,0,.31,1.37,1.81,1.81,0,0,0,.46.79,1.76,1.76,0,0,0,.64.63,1.73,1.73,0,0,0,.78.46,2.71,2.71,0,0,0,1.37.31h.06l.95-.13a2.61,2.61,0,0,0,1.22-.64,1.81,1.81,0,0,0,.65-.64A2.76,2.76,0,0,0,35,39h0A2.78,2.78,0,0,0,35.06,37.57Z"/><path class="cls-5" d="M46.68,37.8a4.19,4.19,0,0,0-5.15-2.93h0A4.19,4.19,0,1,0,46.68,40h0A4.18,4.18,0,0,0,46.68,37.8Z"/><path class="cls-5" d="M47.28,48.44a1.66,1.66,0,0,0-.42-.71l-.32-.25a1.6,1.6,0,0,0-.82-.22,1.2,1.2,0,0,0-.62.14,1.41,1.41,0,0,0-.85.85,1.2,1.2,0,0,0-.14.62l.06.43a1.55,1.55,0,0,0,.41.71l.33.26a1.75,1.75,0,0,0,.81.22,1.31,1.31,0,0,0,.62-.14,1.52,1.52,0,0,0,.86-.86,1.31,1.31,0,0,0,.14-.62Z"/><path class="cls-5" d="M14.61,45.53a1.1,1.1,0,0,0-.29-.5l-.23-.18a1.08,1.08,0,0,0-.58-.16.82.82,0,0,0-.44.1.82.82,0,0,0-.37.24.85.85,0,0,0-.24.37.92.92,0,0,0-.1.44l0,.3a1.26,1.26,0,0,0,.3.51l.23.18a1.17,1.17,0,0,0,.58.15.75.75,0,0,0,.44-.1.8.8,0,0,0,.37-.23,1.27,1.27,0,0,0,.34-.81Z"/><path class="cls-5" d="M22.88,52.18a2.8,2.8,0,0,0-.45-1.42l-.6-.77a3.77,3.77,0,0,0-1.69-1h0a3,3,0,0,0-1.55-.07,3,3,0,0,0-1.43.46l-.78.61a3.92,3.92,0,0,0-1,1.7h0a3,3,0,0,0-.07,1.54,2.85,2.85,0,0,0,.46,1.43l.6.78a3.81,3.81,0,0,0,1.7,1h0a2.88,2.88,0,0,0,1.54.06A2.84,2.84,0,0,0,21,56.06l.78-.61a3.92,3.92,0,0,0,1-1.7s0,0,0,0A2.85,2.85,0,0,0,22.88,52.18Z"/><path class="cls-5" d="M32.65,56.16a2.94,2.94,0,0,0-.78-1.34l-.61-.47a3,3,0,0,0-1.53-.42,2.36,2.36,0,0,0-1.17.26,2.3,2.3,0,0,0-1,.63,2.4,2.4,0,0,0-.63,1A2.48,2.48,0,0,0,26.7,57c0,.27.08.54.11.81a3.15,3.15,0,0,0,.78,1.33l.61.47a3,3,0,0,0,1.53.42,2.34,2.34,0,0,0,1.17-.26,2.78,2.78,0,0,0,1.6-1.6A2.34,2.34,0,0,0,32.76,57C32.72,56.69,32.69,56.42,32.65,56.16Z"/><path class="cls-5" d="M35.26,65.83a1.42,1.42,0,0,0-.37-.64L34.6,65a1.46,1.46,0,0,0-.73-.2,1.06,1.06,0,0,0-.55.13,1,1,0,0,0-.46.29,1.12,1.12,0,0,0-.3.47,1,1,0,0,0-.12.55l.05.38a1.39,1.39,0,0,0,.37.63l.29.23a1.5,1.5,0,0,0,.72.2,1.18,1.18,0,0,0,.56-.13,1.05,1.05,0,0,0,.46-.3,1.08,1.08,0,0,0,.3-.46,1,1,0,0,0,.12-.55Z"/><path class="cls-5" d="M7.37,75.1a.91.91,0,0,0-.25-.42l-.19-.15a.92.92,0,0,0-.49-.13.69.69,0,0,0-.37.08.69.69,0,0,0-.31.2.72.72,0,0,0-.2.31.75.75,0,0,0-.08.37l0,.25a.88.88,0,0,0,.24.43l.2.15a1,1,0,0,0,.48.13.75.75,0,0,0,.37-.08.72.72,0,0,0,.31-.2.69.69,0,0,0,.2-.31.81.81,0,0,0,.09-.37Z"/><path class="cls-5" d="M17,80.62a.25.25,0,0,1,0-.07L16.7,80a1.68,1.68,0,0,0-.59-.65,1.1,1.1,0,0,0-.52-.3,1.71,1.71,0,0,0-.89-.2c-.24,0-.48.06-.72.09l-.57.25a1.7,1.7,0,0,0-.68.62,1.15,1.15,0,0,0-.31.53,1.87,1.87,0,0,0-.21.93h0a2.38,2.38,0,0,0,.33,1.22,1.82,1.82,0,0,0,.62.67,1.77,1.77,0,0,0,.82.44,2.52,2.52,0,0,0,1.28,0h0a1.8,1.8,0,0,0,.82-.43,1.85,1.85,0,0,0,.62-.68L17,81.9A2.52,2.52,0,0,0,17,80.62Z"/><path class="cls-5" d="M30.23,80.2a1,1,0,0,0-.07-.51h0v0a6.3,6.3,0,0,0-.41-1l-.63-.82a4,4,0,0,0-1.77-1l-1.07-.15a4.09,4.09,0,0,0-2,.55l-.82.63a4,4,0,0,0-1,1.78l-.15,1.07a4,4,0,0,0,.55,2l.63.81a3.06,3.06,0,0,0,1.3.83,3,3,0,0,0,1.55.35,3,3,0,0,0,1.55-.35,3,3,0,0,0,1.29-.83,4.08,4.08,0,0,0,1-1.77s0,0,0-.08A2.91,2.91,0,0,0,30.23,80.2Z"/><path class="cls-5" d="M36.77,84.38a3.73,3.73,0,0,0-1-1.66L35,82.13a3.88,3.88,0,0,0-1.91-.52,2.81,2.81,0,0,0-1.45.33,3.41,3.41,0,0,0-2,2,2.89,2.89,0,0,0-.33,1.45c.05.34.09.67.14,1a3.78,3.78,0,0,0,1,1.66l.76.59a3.73,3.73,0,0,0,1.9.51,2.92,2.92,0,0,0,1.46-.32,3.41,3.41,0,0,0,2-2,2.82,2.82,0,0,0,.32-1.46C36.86,85.05,36.81,84.72,36.77,84.38Z"/><path class="cls-5" d="M21.51,106.08v0l-.05-.32-.12-.29a.85.85,0,0,0-.31-.34.63.63,0,0,0-.27-.16.64.64,0,0,0-.3-.08.62.62,0,0,0-.33,0,1,1,0,0,0-.45.14l0,0h0l-.25.19h0l-.19.25s0,0,0,0a1.25,1.25,0,0,0,0,1.28,1.17,1.17,0,0,0,.45.46,1,1,0,0,0,.47.15,1,1,0,0,0,.51,0,1.28,1.28,0,0,0,.56-.33,1.23,1.23,0,0,0,.33-.56A1.44,1.44,0,0,0,21.51,106.08Z"/><path class="cls-5" d="M29.87,103.74l0-.1a.85.85,0,0,0-.09-.22.83.83,0,0,0-.22-.37.72.72,0,0,0-.3-.3l0,0h0a.36.36,0,0,0-.23-.25.34.34,0,0,0-.28,0,1.13,1.13,0,0,0-.48-.08,1.05,1.05,0,0,0-.47.06l-.08,0-.43.18-.37.29a1.44,1.44,0,0,0-.37.57.93.93,0,0,0-.12.46,1,1,0,0,0,0,.48.89.89,0,0,0,.12.45,1,1,0,0,0,.23.4,1.41,1.41,0,0,0,.51.46l.43.18.48.07.48-.07.43-.18.36-.28a1.23,1.23,0,0,0,.37-.58.9.9,0,0,0,.13-.45A1.36,1.36,0,0,0,29.87,103.74Z"/><path class="cls-5" d="M47.94,96.06h0a2.41,2.41,0,0,0-.21-.5,2.08,2.08,0,0,0-.53-.92A3.12,3.12,0,0,0,46,93.57h0l0,0a4.31,4.31,0,0,0-4.37,0,4.69,4.69,0,0,0-2,2.51,3.72,3.72,0,0,0-.12-.87A2.67,2.67,0,0,0,38.9,94a2.8,2.8,0,0,0-1-.91,3.5,3.5,0,0,0-1.78-.48h-.08A3.59,3.59,0,0,0,33,94.36v0a3.55,3.55,0,0,0,0,3.6,3.57,3.57,0,0,0,1.28,1.28,3.68,3.68,0,0,0,1.8.49h0l1-.12A2.82,2.82,0,0,0,38.22,99a1.81,1.81,0,0,0,.64-.65,2.58,2.58,0,0,0,.61-1.14,4.63,4.63,0,0,0,.15,1.22,4.41,4.41,0,0,0,1.11,1.9,3.23,3.23,0,0,0,1.39.89,3.2,3.2,0,0,0,1.66.38,4.32,4.32,0,0,0,3.73-2.14,4.27,4.27,0,0,0,.59-2.18A5.41,5.41,0,0,0,47.94,96.06Z"/><path class="cls-5" d="M48.64,126.06a1.09,1.09,0,0,0-.15-.56,1.62,1.62,0,0,0-.46-.72L48,124.7a2.07,2.07,0,0,0-.95-.55,1.63,1.63,0,0,0-.85,0,1.61,1.61,0,0,0-.79.26,2.16,2.16,0,0,0-.77.76.61.61,0,0,1-.07.1c-.07.18-.15.35-.22.53s0,.39-.08.59l.08.59c.07.18.15.36.22.53l.35.45.45.35.53.22a1.59,1.59,0,0,0,.89,0,1.12,1.12,0,0,0,.56-.15,1.14,1.14,0,0,0,.49-.28,1.1,1.1,0,0,0,.4-.4,1.14,1.14,0,0,0,.28-.49,1.12,1.12,0,0,0,.15-.56A1,1,0,0,0,48.64,126.06Z"/><path class="cls-5" d="M54.74,116.6a2.74,2.74,0,0,0-.44-1.38A3.74,3.74,0,0,0,53,113.88h0a2.78,2.78,0,0,0-1.39-.44,2.87,2.87,0,0,0-1.48.06l-.89.38a2.74,2.74,0,0,0-1,1,1.84,1.84,0,0,0-.48.82,2.81,2.81,0,0,0-.32,1.43c0,.33.09.66.14,1a3.68,3.68,0,0,0,1,1.64h0a3.74,3.74,0,0,0,1.64,1l1,.13A3.63,3.63,0,0,0,53,120.3a2.75,2.75,0,0,0,1-1,2.72,2.72,0,0,0,.66-1.27A2.76,2.76,0,0,0,54.74,116.6Z"/><path class="cls-5" d="M50.23,107.83a1.33,1.33,0,0,0,0-.21,3.49,3.49,0,0,0-.2-.44.36.36,0,0,0-.28-.18.4.4,0,0,0-.33.1l0,0h0l-.08,0a1.42,1.42,0,0,0-1.19.11,1.39,1.39,0,0,0-.51.51,1,1,0,0,0-.17.53,1.11,1.11,0,0,0,0,.57,1.34,1.34,0,0,0,.36.62,1.43,1.43,0,0,0,1.39.37,1.22,1.22,0,0,0,.24-.1l.24-.1,0,0a2.26,2.26,0,0,0,.29-.23,1.26,1.26,0,0,0,.34-.59A1.27,1.27,0,0,0,50.23,107.83Z"/><path class="cls-5" d="M60.91,104.3h0l-.42-1a3.1,3.1,0,0,0-1.07-1.17,2.1,2.1,0,0,0-.92-.54,3.2,3.2,0,0,0-1.61-.36h0a4.18,4.18,0,0,0-3.61,2.07v0l-.42,1a3.17,3.17,0,0,0-.08,1.67,2.09,2.09,0,0,0,.29,1.06,3,3,0,0,0,.86,1.34l.85.66,1,.42a3.16,3.16,0,0,0,1.67.07,3.11,3.11,0,0,0,1.55-.49h0l.85-.66a3.13,3.13,0,0,0,.86-1.35,2.05,2.05,0,0,0,.29-1A3.31,3.31,0,0,0,60.91,104.3Z"/><path class="cls-5" d="M71.68,107.53a4.34,4.34,0,0,0-1.12-1.92l-.88-.68a4.33,4.33,0,0,0-2.19-.59,3.24,3.24,0,0,0-1.68.37,3.92,3.92,0,0,0-2.3,2.3,3.24,3.24,0,0,0-.37,1.68l.15,1.15a4.34,4.34,0,0,0,1.12,1.92l.88.68a4.35,4.35,0,0,0,2.2.6,3.33,3.33,0,0,0,1.67-.38,3.92,3.92,0,0,0,2.3-2.3,3.33,3.33,0,0,0,.38-1.67Z"/><polygon class="cls-5" points="70.16 116.06 70.16 116.06 70.16 116.06 70.16 116.06"/><path class="cls-5" d="M78.63,114.33a3.27,3.27,0,0,0-.52-1.62c-.22-.3-.45-.59-.68-.88a4.34,4.34,0,0,0-1.92-1.12h0a4.31,4.31,0,0,0-2.31,0,4.37,4.37,0,0,0-3.2,4.2h0v0a4.33,4.33,0,0,0,.16,1.12c0-.17,0-.34-.07-.51a3.06,3.06,0,0,0,.5,1.54,3.33,3.33,0,0,0,.69.89,4.25,4.25,0,0,0,1.92,1.12,4.31,4.31,0,0,0,2.31,0,4.37,4.37,0,0,0,3-3h0A3.29,3.29,0,0,0,78.63,114.33Z"/><path class="cls-5" d="M76.88,123.72a1.08,1.08,0,0,0-.15-.55,1.17,1.17,0,0,0-.28-.48,1.12,1.12,0,0,0-.39-.39,2.25,2.25,0,0,0-1-.43,1.14,1.14,0,0,0-.58,0,1.06,1.06,0,0,0-.55.15,1.54,1.54,0,0,0-.7.45l0,0,.19-.15a2.11,2.11,0,0,0-.85,1.67,2.19,2.19,0,0,0,.29,1.06,2.13,2.13,0,0,0,.76.76h0l-.43-.34a4.6,4.6,0,0,0,.51.39l.52.22.58.08.58-.08.53-.22.44-.34.34-.44.22-.52A1.75,1.75,0,0,0,76.88,123.72Z"/><path class="cls-5" d="M87.59,124a3.49,3.49,0,0,0-.89-1.53L86,122a3.48,3.48,0,0,0-1.75-.47,2.59,2.59,0,0,0-1.34.3,3.1,3.1,0,0,0-1.83,1.83,2.55,2.55,0,0,0-.3,1.33c0,.31.08.62.13.93a3.49,3.49,0,0,0,.89,1.53l.7.54a3.45,3.45,0,0,0,1.75.47,2.53,2.53,0,0,0,1.33-.3,3.08,3.08,0,0,0,1.84-1.83,2.78,2.78,0,0,0,.3-1.34C87.67,124.66,87.63,124.35,87.59,124Z"/><path class="cls-5" d="M83.62,105.79a1.51,1.51,0,0,0-.38-.73,1,1,0,0,0-.39-.39,1.07,1.07,0,0,0-.48-.28,1.59,1.59,0,0,0-.83-.19l-.58.08-.51.22c-.15.11-.3.22-.44.34a1.6,1.6,0,0,0-.45.69,1.62,1.62,0,0,0-.19.84h0c0,.19,0,.38.08.57a1.65,1.65,0,0,0,.38.73,1.21,1.21,0,0,0,.39.39,1.65,1.65,0,0,0,.73.38h0l.58.08a1.59,1.59,0,0,0,.83-.19,1.15,1.15,0,0,0,.48-.27,1.21,1.21,0,0,0,.39-.39,1.59,1.59,0,0,0,.38-.74c0-.19.06-.38.08-.57S83.65,106,83.62,105.79Z"/><path class="cls-5" d="M95.21,103.31a3.29,3.29,0,0,0-.79-1.5,3.48,3.48,0,0,0-1.24-1.14,4.44,4.44,0,0,0-4.46,0,4.43,4.43,0,0,0-1.58,1.58l0,.1c-.15.35-.29.7-.44,1l-.15,1.16.15,1.16a3.45,3.45,0,0,0,.78,1.49,2.42,2.42,0,0,0,.78.78,2.31,2.31,0,0,0,1,.56,2.21,2.21,0,0,0,1.1.3,3.32,3.32,0,0,0,1.74-.08l.1,0a4.42,4.42,0,0,0,3.09-5.43Z"/><path class="cls-5" d="M105.8,106.76a2.19,2.19,0,0,0-.55-.94,3.21,3.21,0,0,0-1.19-1.09l-1-.42a4.1,4.1,0,0,0-2.25,0h0a4.17,4.17,0,0,0-1.87,1.09c-.22.28-.44.57-.67.85a4.23,4.23,0,0,0-.57,2.14,4.69,4.69,0,0,0,1.24,3,4.77,4.77,0,0,0,3,1.24,4.22,4.22,0,0,0,2.14-.58h0a3.21,3.21,0,0,0,1.19-1.09,3.14,3.14,0,0,0,.76-1.44l.15-1.13A3.25,3.25,0,0,0,105.8,106.76Z"/><path class="cls-5" d="M103.88,117.94a3.57,3.57,0,0,0-1.28-1.28l0,0a3.52,3.52,0,0,0-1.76-.47,2.25,2.25,0,0,0-.93.12h0a6.5,6.5,0,0,0-.86.36,3.57,3.57,0,0,0,0,6.17,3.57,3.57,0,0,0,5.37-3.08A3.49,3.49,0,0,0,103.88,117.94Z"/><path class="cls-5" d="M101.8,93.94a4.32,4.32,0,0,0-1.1-1.88l-.86-.67a4.22,4.22,0,0,0-2.16-.58,3.21,3.21,0,0,0-1.64.37,3.14,3.14,0,0,0-1.37.88,3.09,3.09,0,0,0-.88,1.37,3.21,3.21,0,0,0-.37,1.64l.15,1.14a4.22,4.22,0,0,0,1.1,1.88l.86.66a4.29,4.29,0,0,0,2.15.59A4.39,4.39,0,0,0,102,95.07Z"/><path class="cls-5" d="M107.24,86.84a3.12,3.12,0,0,0-2.71-1.56,1.07,1.07,0,0,0-.43.06,2.34,2.34,0,0,0-1.16.37h0l0,0-.6.46a2.94,2.94,0,0,0-.77,1.32.07.07,0,0,0,0,0c0,.05-.11.78-.12.83h0s.11.81.11.84c.11.25.22.5.32.75a5.34,5.34,0,0,0,.5.65,3.15,3.15,0,0,0,4.44,0,2.41,2.41,0,0,0,.65-1,2.27,2.27,0,0,0,.27-1.21A3.05,3.05,0,0,0,107.24,86.84Z"/><path class="cls-5" d="M115.67,94.73l0,0a3.86,3.86,0,0,0-1.39-1.39,3.81,3.81,0,0,0-2-.53,3.87,3.87,0,0,0-2,.53A3.94,3.94,0,0,0,109,94.68l0,0a3.9,3.9,0,1,0,6.74,0Z"/><path class="cls-5" d="M115.73,105.9a2,2,0,0,0-.5-.86l-.4-.31a2,2,0,0,0-1-.26,1.38,1.38,0,0,0-.75.17,1.36,1.36,0,0,0-.63.4,1.31,1.31,0,0,0-.4.63,1.38,1.38,0,0,0-.17.75l.07.51a1.92,1.92,0,0,0,.5.86l.39.31a1.93,1.93,0,0,0,1,.26,1.38,1.38,0,0,0,.75-.16,1.53,1.53,0,0,0,.63-.41,1.42,1.42,0,0,0,.4-.62,1.53,1.53,0,0,0,.17-.75Z"/><path class="cls-5" d="M99.11,78.31a1.22,1.22,0,0,0-.17-.56,1.18,1.18,0,0,0-.39-.41,1.16,1.16,0,0,0-.5-.27l-.4,0a1.56,1.56,0,0,0-.75.2l-.3.23a1.51,1.51,0,0,0-.33.54,1,1,0,0,0-.12.45,1.08,1.08,0,0,0,0,.59,1.16,1.16,0,0,0,.27.5,1.07,1.07,0,0,0,.41.38l.36.15a1.51,1.51,0,0,0,.79,0l.35-.15a1.52,1.52,0,0,0,.54-.53,2.53,2.53,0,0,0,.19-.48A1,1,0,0,0,99.11,78.31Z"/><path class="cls-5" d="M106.87,73a1.76,1.76,0,0,0-.28-.89l-.38-.49a2.42,2.42,0,0,0-1.06-.62l-.63-.08a2.38,2.38,0,0,0-1.22.33l-.11.06a1.93,1.93,0,0,0-.68.62,2,2,0,0,0-.43.82,1.84,1.84,0,0,0,0,1,1.77,1.77,0,0,0,.29.89l.37.49a2.48,2.48,0,0,0,1.06.62l.64.08a2.32,2.32,0,0,0,1.21-.33l.12-.07a1.82,1.82,0,0,0,.67-.62,1.77,1.77,0,0,0,.43-.81A1.84,1.84,0,0,0,106.87,73Z"/><path class="cls-5" d="M118,73.28a2.71,2.71,0,0,0-.65-1.23,1.84,1.84,0,0,0-.65-.65,2.81,2.81,0,0,0-1.23-.65l-.08,0a2.23,2.23,0,0,0-1-.14h0a3.72,3.72,0,0,0-1.87.5,3.79,3.79,0,0,0-1.32,1.32l0,0a3.7,3.7,0,0,0,0,3.75,3.74,3.74,0,0,0,1.34,1.34,3.8,3.8,0,0,0,1.87.51,3.85,3.85,0,0,0,1.91-.52,3.74,3.74,0,0,0,1.34-1.34,3.66,3.66,0,0,0,.51-1.88v-.07C118.11,73.92,118.07,73.6,118,73.28Z"/><path class="cls-5" d="M124.74,82a4.13,4.13,0,0,0-1.07-1.84,3,3,0,0,0-1.34-.85,3.12,3.12,0,0,0-1.6-.36,3.16,3.16,0,0,0-1.6.36,3,3,0,0,0-1.33.85A4.13,4.13,0,0,0,116.73,82l-.15,1.11a3.12,3.12,0,0,0,.36,1.6c.11.27.16.41.22.52h0a3,3,0,0,0,.39.52,1.66,1.66,0,0,0,.24.29v0a4.5,4.5,0,0,0,.43.34,2,2,0,0,0,.91.53,3.06,3.06,0,0,0,1.58.36c.32,0,1.14-.18,1.17-.17a4.13,4.13,0,0,0,1.78-1l.66-.85a4.09,4.09,0,0,0,.57-2.1Z"/><path class="cls-5" d="M121.88,87.09l0,0Z"/><path class="cls-5" d="M95.91,66.18a1,1,0,0,0-.21-.4s-.06-.06-.08-.09a2.12,2.12,0,0,0-.14-.31.34.34,0,0,0-.23-.15.32.32,0,0,0-.26.09l0,0h0l0,0h0a1.3,1.3,0,0,0-.34,0,1,1,0,0,0-.33,0l-.08,0-.09,0a1.29,1.29,0,0,0-.58.33l-.2.27a1.26,1.26,0,0,0-.18.66.94.94,0,0,0,.11.5.93.93,0,0,0,.27.43,1.17,1.17,0,0,0,.42.27,1,1,0,0,0,.51.11,1.31,1.31,0,0,0,.66-.18l.09,0a3.4,3.4,0,0,0,.3-.23l0,0,.2-.26c.05-.1.09-.21.13-.31a.16.16,0,0,0,0-.09v0h0l0-.32C96,66.46,95.92,66.23,95.91,66.18Z"/><path class="cls-5" d="M98,58.08a1.49,1.49,0,0,0-.32-.61,1.33,1.33,0,0,0-.51-.46l-.43-.19a1.91,1.91,0,0,0-.95,0l-.43.19a1.81,1.81,0,0,0-.65.64s0,0,0,0v0l-.18.43v0a.43.43,0,0,0,0,.05c0,.08-.06.4-.07.49v0a1.28,1.28,0,0,0,.16.69,1.34,1.34,0,0,0,.37.58,1.32,1.32,0,0,0,.58.37,1.34,1.34,0,0,0,.69.15l.48-.06a1.85,1.85,0,0,0,.79-.46l.28-.37a1.85,1.85,0,0,0,.18-.44A1.38,1.38,0,0,0,98,58.8,1.47,1.47,0,0,0,98,58.08Z"/><path class="cls-5" d="M108.12,59.22Z"/><path class="cls-5" d="M108.12,59.22v0a1.19,1.19,0,0,0,0-.32,1.51,1.51,0,0,0-.24-.76,2.35,2.35,0,0,0-1.21-.93,1.59,1.59,0,0,0-.81,0,1.51,1.51,0,0,0-.76.24l-.41.31a2.15,2.15,0,0,0-.52.9l-.07.54a1.91,1.91,0,0,0,.28,1l.31.42a1.7,1.7,0,0,0,.66.42,1.59,1.59,0,0,0,.78.17,1.91,1.91,0,0,0,1-.28,2.73,2.73,0,0,0,.43-.33c.11-.13.21-.26.31-.4a1.4,1.4,0,0,0,.22-.68l0,.2h0a1.56,1.56,0,0,0,.06-.47Z"/><path class="cls-5" d="M114.14,52.69a2.93,2.93,0,0,0-1.2-1.56,2.6,2.6,0,0,0-1.31-.35h-.14a2,2,0,0,0-.39,0,2,2,0,0,0-1,.32l-.55.43-.06.06-.42.54-.27.64-.09.71a2.06,2.06,0,0,0,.23,1,1.41,1.41,0,0,0,.34.59,1.38,1.38,0,0,0,.48.48,1.41,1.41,0,0,0,.59.34,2.06,2.06,0,0,0,1,.23,2.66,2.66,0,0,0,.79-.1.91.91,0,0,0,.34-.14,2,2,0,0,0,.87-.56,2.75,2.75,0,0,0,.44-.57l0-.08c.09-.2.19-.43.27-.64,0,0,0,0,0,0A2.69,2.69,0,0,0,114.14,52.69Z"/><path class="cls-5" d="M124.32,57.55a3,3,0,0,0-.72-1.35,2,2,0,0,0-.71-.72,3,3,0,0,0-1.35-.71l-1.06-.14-1.06.14a3,3,0,0,0-1.36.71,3.06,3.06,0,0,0-1,1.12v0a4.39,4.39,0,0,0-.4,3.08c.13.31.26.63.4.95a4,4,0,0,0,1.43,1.43h0a1.31,1.31,0,0,0,.47.2,3,3,0,0,0,1.51.33h0a3,3,0,0,0,1.54-.34,3.06,3.06,0,0,0,1.28-.82l.62-.81a4,4,0,0,0,.55-2v0C124.41,58.26,124.36,57.9,124.32,57.55Z"/><path class="cls-5" d="M84.3,47.43c-.08-.2-.16-.4-.25-.6l-.39-.5a1.77,1.77,0,0,0-.8-.52,2.5,2.5,0,0,0-1.29-.17,2,2,0,0,0-.93.3l-.5.39-.39.5-.25.6a1.86,1.86,0,0,0,0,1,2,2,0,0,0,.3.93h0l.38.5a1.89,1.89,0,0,0,.8.51,1.23,1.23,0,0,0,.62.17,2,2,0,0,0,1,0h0l.6-.25a2,2,0,0,0,.7-.64,1.33,1.33,0,0,0,.32-.55,1.27,1.27,0,0,0,.17-.63A1.86,1.86,0,0,0,84.3,47.43Z"/><path class="cls-5" d="M93.87,48.75c-.13-.29-.25-.59-.38-.88a2.72,2.72,0,0,0-.95-1,1.84,1.84,0,0,0-.82-.48,1.8,1.8,0,0,0-.93-.25,1.85,1.85,0,0,0-1,0,1.8,1.8,0,0,0-.93.25,1.84,1.84,0,0,0-.82.48,1.74,1.74,0,0,0-.66.66,1.9,1.9,0,0,0-.48.82,2.81,2.81,0,0,0-.32,1.43h0a3.63,3.63,0,0,0,.51,1.87,2.77,2.77,0,0,0,1,1,2.66,2.66,0,0,0,1.25.66,3.62,3.62,0,0,0,2,0h0l.88-.38.75-.58.58-.75c.13-.29.25-.59.38-.88l.13-1Z"/><path class="cls-5" d="M94.87,37.54a3.85,3.85,0,0,0-1-1.73l-.79-.61a3.85,3.85,0,0,0-2-.54,3,3,0,0,0-1.52.34,3,3,0,0,0-1.26.81,3,3,0,0,0-.81,1.26,2.92,2.92,0,0,0-.34,1.51c0,.35.09.7.14,1.05a3.94,3.94,0,0,0,1,1.73l.79.61a3.89,3.89,0,0,0,2,.54,4.37,4.37,0,0,0,2.77-1.15,2.88,2.88,0,0,0,.81-1.26A2.93,2.93,0,0,0,95,38.58C95,38.24,94.92,37.89,94.87,37.54Z"/><path class="cls-5" d="M101.71,35.7a1.64,1.64,0,0,0-.42-.72l-.33-.25a1.55,1.55,0,0,0-.82-.22,1.11,1.11,0,0,0-.62.14A1.16,1.16,0,0,0,99,35a1.27,1.27,0,0,0-.34.52,1.21,1.21,0,0,0-.13.63l0,.43a1.66,1.66,0,0,0,.42.71l.33.25a1.65,1.65,0,0,0,.81.23,1.33,1.33,0,0,0,.63-.14,1.27,1.27,0,0,0,.52-.34,1.16,1.16,0,0,0,.33-.52,1.11,1.11,0,0,0,.14-.62Z"/><path class="cls-5" d="M109.3,26.67a1.92,1.92,0,0,0-.31-1l-.41-.53a2.58,2.58,0,0,0-1.15-.67l-.08,0a7.62,7.62,0,0,0-.76-.1,2.11,2.11,0,0,0-1.09.23,1.42,1.42,0,0,0-.6.36,2.37,2.37,0,0,0-.3.23l0,0a2.32,2.32,0,0,0-.5.63l-.28.66c0,.24-.06.48-.1.72s.07.48.1.73a2.11,2.11,0,0,0,.49.92,1.28,1.28,0,0,0,.49.49,1.31,1.31,0,0,0,.6.35,1.28,1.28,0,0,0,.69.19,2.13,2.13,0,0,0,1.09-.05,2.07,2.07,0,0,0,.34-.15.79.79,0,0,0,.34-.14l.05,0a2.37,2.37,0,0,0,.64-.48l.43-.56v0c.32-.51.23-.43.28-.68l0-.1A2,2,0,0,0,109.3,26.67Z"/><path class="cls-5" d="M117.52,32a3.1,3.1,0,0,0-.81-1.39l-.64-.49a3.15,3.15,0,0,0-1.58-.43,2.29,2.29,0,0,0-1.21.27,2.32,2.32,0,0,0-1,.65,2.23,2.23,0,0,0-.65,1,2.31,2.31,0,0,0-.27,1.21c0,.28.07.56.11.84a3.12,3.12,0,0,0,.81,1.38l.63.49a3.06,3.06,0,0,0,1.59.43,2.31,2.31,0,0,0,1.21-.27,2.38,2.38,0,0,0,1-.65,2.41,2.41,0,0,0,.65-1,2.5,2.5,0,0,0,.27-1.21Z"/><path class="cls-5" d="M59.46,41.34a2.24,2.24,0,0,0-.58-1L58.42,40a2.4,2.4,0,0,0-1.14-.31,1.75,1.75,0,0,0-.88.2,1.73,1.73,0,0,0-.73.47,2.62,2.62,0,0,0-.66,1.6l.08.6a2.3,2.3,0,0,0,.58,1l.46.35a2.23,2.23,0,0,0,1.15.31,1.63,1.63,0,0,0,.87-.19,1.73,1.73,0,0,0,.73-.47,1.77,1.77,0,0,0,.47-.73,1.73,1.73,0,0,0,.19-.87C59.51,41.74,59.49,41.54,59.46,41.34Z"/><path class="cls-5" d="M67,34.69a2.82,2.82,0,0,0-.46-1.45,2.86,2.86,0,0,0-.62-.8l-.79-.61-.93-.39-1-.14a3,3,0,0,0-1.5.33,4.09,4.09,0,0,0-1.56,1.2,2,2,0,0,0-.5.86,3,3,0,0,0-.34,1.5,3.81,3.81,0,0,0,.14,1.06,3,3,0,0,0,.7,1.32,2.9,2.9,0,0,0,1.12,1,3.87,3.87,0,0,0,2,.53,3,3,0,0,0,1.5-.33A2.91,2.91,0,0,0,66,38a3.72,3.72,0,0,0,1-1.71A3,3,0,0,0,67,34.69Z"/><path class="cls-5" d="M57.37,28.59v0c-.06-.13-.11-.25-.16-.38a1.18,1.18,0,0,0-.4-.43.84.84,0,0,0-.35-.21,1.25,1.25,0,0,0-.6-.13l-.42,0-.38.16a1.95,1.95,0,0,0-.72.94v0a1.5,1.5,0,0,0,0,.84,1.61,1.61,0,0,0,.4.69l.32.25a1.58,1.58,0,0,0,.79.21,1.27,1.27,0,0,0,.61-.13,1.4,1.4,0,0,0,.51-.33,1.61,1.61,0,0,0,.4-.69A1.5,1.5,0,0,0,57.37,28.59Z"/><path class="cls-5" d="M58.4,21l-.06-.23a1.67,1.67,0,0,0-.63-.82l-.33-.13a1,1,0,0,0-.54,0,.62.62,0,0,0-.35.1,1,1,0,0,0-.44.28,1.4,1.4,0,0,0-.4,1v.17a.22.22,0,0,0,0,.08,1.66,1.66,0,0,0,.21.75l-.14-.33,0,.08.14.32.21.28.27.21a1,1,0,0,0,.5.16.73.73,0,0,0,.36,0,.67.67,0,0,0,.34-.09.65.65,0,0,0,.3-.18,1,1,0,0,0,.35-.38c.06-.13.12-.27.17-.4a.73.73,0,0,0,0-.23A1.16,1.16,0,0,0,58.4,21Z"/><path class="cls-5" d="M51.37,14.6a2.33,2.33,0,0,1-.11-.28l-.19-.23-.23-.18a.79.79,0,0,0-.44-.14.54.54,0,0,0-.31,0,.51.51,0,0,0-.29.08.46.46,0,0,0-.26.15.84.84,0,0,0-.3.32,1.38,1.38,0,0,0-.14.27,1.24,1.24,0,0,0-.17.63,1.29,1.29,0,0,0,.17.63,1.34,1.34,0,0,0,.75.57,1.06,1.06,0,0,0,.5,0,1,1,0,0,0,.46-.15,1.25,1.25,0,0,0,.62-1.08A4.34,4.34,0,0,0,51.37,14.6Z"/><path class="cls-5" d="M54.74,5.8c0-.12,0-.24,0-.36A1,1,0,0,0,54.46,5a.69.69,0,0,0-.24-.24,1.09,1.09,0,0,0-.45-.24l-.36,0a1.35,1.35,0,0,0-.67.18l-.28.21v0l0,0a2,2,0,0,0-.25.33,1.37,1.37,0,0,0-.19.68l.05.36a1.4,1.4,0,0,0,.35.6.93.93,0,0,0,.43.27,1.19,1.19,0,0,0,1,0,.93.93,0,0,0,.43-.27,1.23,1.23,0,0,0,.23-.33l0,0,0,0h0a.76.76,0,0,0,.09-.18A1,1,0,0,0,54.74,5.8Z"/><path class="cls-5" d="M86.64,3.09a4,4,0,0,0-1.07-1.84l0,0A3.12,3.12,0,0,0,84.21.36,3.21,3.21,0,0,0,82.59,0L81.47.15a4.24,4.24,0,0,0-1.85,1.08h0a3.22,3.22,0,0,0-.86,1.35,3.15,3.15,0,0,0-.36,1.61l.15,1.11a4.22,4.22,0,0,0,1.07,1.84h0A3.15,3.15,0,0,0,81,8a3.21,3.21,0,0,0,1.62.36l1.11-.15a4.18,4.18,0,0,0,1.85-1.08l0,0a3,3,0,0,0,.86-1.34,3,3,0,0,0,.36-1.6Z"/><path class="cls-5" d="M73.32,9.51A1.46,1.46,0,0,0,73,8.9l-.28-.22a1.44,1.44,0,0,0-.7-.19,1.18,1.18,0,0,0-.53.12,1.27,1.27,0,0,0-.74.74,1.18,1.18,0,0,0-.12.53c0,.12,0,.25,0,.37a1.46,1.46,0,0,0,.36.61l.28.22a1.44,1.44,0,0,0,.7.19,1.18,1.18,0,0,0,.53-.12,1,1,0,0,0,.45-.29,1,1,0,0,0,.29-.45,1.18,1.18,0,0,0,.12-.53C73.35,9.76,73.33,9.63,73.32,9.51Z"/><path class="cls-5" d="M79.28,20.65a2.15,2.15,0,0,0-.52-1,2.14,2.14,0,0,0-.81-.74l-.69-.29a2.84,2.84,0,0,0-1.53,0l-.69.29a2.88,2.88,0,0,0-1,1,1.84,1.84,0,0,0-.31.75l-.1.77a2.1,2.1,0,0,0,.25,1.1,1.34,1.34,0,0,0,.37.64A2.19,2.19,0,0,0,75,24l.69.29.76.1a2.21,2.21,0,0,0,1.11-.25,2.11,2.11,0,0,0,.92-.59,3.45,3.45,0,0,0,.5-.64,2.18,2.18,0,0,0,.34-1.07A2.24,2.24,0,0,0,79.28,20.65Z"/><path class="cls-5" d="M77,30.69a2.08,2.08,0,0,0-.3-1.09,3.2,3.2,0,0,0-.89-1.4h0L75,27.52A3.27,3.27,0,0,0,73.34,27a2.24,2.24,0,0,0-1.15,0,2.12,2.12,0,0,0-1.1.3,3.14,3.14,0,0,0-1.4.9l-.68.88c-.14.34-.29.69-.44,1a3.32,3.32,0,0,0-.07,1.74,2.2,2.2,0,0,0,.29,1.09,2.22,2.22,0,0,0,.56,1A3.21,3.21,0,0,0,70.57,35l1,.44,1.15.16,1.16-.16a3.17,3.17,0,0,0,1.48-.78,3.29,3.29,0,0,0,1.12-1.22h0l.44-1A3.29,3.29,0,0,0,77,30.69Z"/><path class="cls-5" d="M78.42,40.62l-.18-.42a1.38,1.38,0,0,0-.44-.49,1.46,1.46,0,0,0-.59-.31,1.83,1.83,0,0,0-.93,0l-.22.1a.81.81,0,0,0-.37.21.86.86,0,0,0-.3.3l.13-.16c-.06.07-.23.27-.28.35a1.37,1.37,0,0,0-.2.65,1.35,1.35,0,0,0,0,.69,1.29,1.29,0,0,0,.31.59,1.25,1.25,0,0,0,.49.45,1.24,1.24,0,0,0,.64.2,1.2,1.2,0,0,0,.7,0l.41-.17a1.75,1.75,0,0,0,.62-.62l.18-.42A1.79,1.79,0,0,0,78.42,40.62Z"/><path class="cls-7" d="M32.6,24.7l0-.07h0l0,0s0,0,0,0v-.09a.63.63,0,0,0-.17-.31.52.52,0,0,0-.16-.17.71.71,0,0,0-.31-.16,1.31,1.31,0,0,0-.59,0l-.08,0a1.15,1.15,0,0,0-.51.3,1.17,1.17,0,0,0-.3.53c0,.06,0,.12,0,.17l-.06.2a.84.84,0,0,0,0,.31,1,1,0,0,0,.14.54l0,.05a1.36,1.36,0,0,0,.24.35.73.73,0,0,0,.3.19.57.57,0,0,0,.22,0,1,1,0,0,0,.23,0l.25-.1.13-.06a1,1,0,0,0,.48-.45l.08-.18s.05-.11.08-.17l.12-.28A1.18,1.18,0,0,0,32.6,24.7Z"/><path class="cls-7" d="M44.38,38.41l-.08-.15a2,2,0,0,0-.33-.48,3.06,3.06,0,0,0-1-.57,1,1,0,0,0-.57-.05l-.14,0a1.15,1.15,0,0,0-.51.24.58.58,0,0,0-.14.56,1.07,1.07,0,0,0,.16.27v0l0,0h0l.08.12a1.14,1.14,0,0,0,.31.31,1.93,1.93,0,0,1,.35.35l-.15-.19a1.38,1.38,0,0,0,.22.26l.1.1a1.54,1.54,0,0,1,.17.19.86.86,0,0,0,.26.24.88.88,0,0,0,.5.12.72.72,0,0,0,.54-.21l.17-.21a.86.86,0,0,0,.13-.49A1.43,1.43,0,0,0,44.38,38.41Z"/><path class="cls-7" d="M31.13,37.55a1,1,0,0,0-.15-.39l-.17-.23a1,1,0,0,0-.36-.23.55.55,0,0,0-.28-.07.77.77,0,0,0-.45,0,.8.8,0,0,0-.36.17,3.06,3.06,0,0,0-.29.21,1.23,1.23,0,0,0-.35.59,1.55,1.55,0,0,0-.06.31.91.91,0,0,0,0,.49,1.22,1.22,0,0,0,.07.17l0,0a1,1,0,0,0,.3.51,1.19,1.19,0,0,0,.38.25,1.15,1.15,0,0,0,.26,0,1.07,1.07,0,0,0,.58-.15l.06,0a1.39,1.39,0,0,0,.38-.25,1.08,1.08,0,0,0,.26-.38,1.28,1.28,0,0,0,.18-.66A2.35,2.35,0,0,0,31.13,37.55Z"/><path class="cls-7" d="M17.86,52.54a1,1,0,0,0,0-.45s0-.06,0-.09v0a.5.5,0,0,0-.36-.52,1.05,1.05,0,0,0-.61,0,1,1,0,0,0-.41.23,1.14,1.14,0,0,0-.18.25.78.78,0,0,0-.11.2,1.77,1.77,0,0,0-.19.63,1.93,1.93,0,0,0,0,.24,3.47,3.47,0,0,0,.06.45,1.12,1.12,0,0,0,.33.54.83.83,0,0,0,1.38-.36s0-.08,0-.12a1.42,1.42,0,0,0,0-.35,1.41,1.41,0,0,1,0-.29l0,.25a1.75,1.75,0,0,0,.05-.46C17.85,52.66,17.86,52.6,17.86,52.54Z"/><path class="cls-7" d="M31.58,56.53c-.06-.11-.12-.23-.19-.34a2.3,2.3,0,0,0-.32-.38,2.48,2.48,0,0,0-.61-.56,1.69,1.69,0,0,0-.37-.15c-.07,0-.22,0-.27.08a.55.55,0,0,0-.09.29,2.91,2.91,0,0,0,.05.4,2.13,2.13,0,0,0,.18.41c.06.11.11.22.16.33a2.06,2.06,0,0,0,.25.4l.24.27a1.84,1.84,0,0,0,.75.38.27.27,0,0,0,.34-.27v-.32a.65.65,0,0,0,0-.14A.84.84,0,0,0,31.58,56.53Z"/><path class="cls-7" d="M25,79a.73.73,0,0,0-.17-.31.52.52,0,0,0-.16-.17.56.56,0,0,0-.2-.11.62.62,0,0,0-.23-.07.77.77,0,0,0-.37,0,1.46,1.46,0,0,0-.61.36A2,2,0,0,0,23,79l-.07.11a1.48,1.48,0,0,0-.13.35,1,1,0,0,0,.13.84c.07.09.14.19.21.27l.25.2a.89.89,0,0,0,.43.11.6.6,0,0,0,.32-.07.59.59,0,0,0,.27-.17.92.92,0,0,0,.18-.3l0,0,.07-.12a.31.31,0,0,0,.06-.13.76.76,0,0,0,.06-.27h0v0a.76.76,0,0,0,.11-.14l.1-.21,0-.25Z"/><path class="cls-7" d="M35.94,84.23a1.11,1.11,0,0,0-.16-.37.39.39,0,0,0-.08-.1l-.06-.09,0,0-.24-.31-.3-.23a1.16,1.16,0,0,0-.56-.18l-.22,0h-.13a1.56,1.56,0,0,0-1,.4l-.21.27a1.37,1.37,0,0,0-.18.69v.13a1.25,1.25,0,0,0,.13.59,1.1,1.1,0,0,0,.33.5l0,0,.1.08.09.07.3.23A.66.66,0,0,0,34,86a1.12,1.12,0,0,0,.58.12h.18a.89.89,0,0,0,.48-.11,1,1,0,0,0,.41-.26l.19-.25a1.31,1.31,0,0,0,.18-.64v-.2Z"/><path class="cls-7" d="M35.52,97.16h0v-.09s0-.1,0-.14,0-.1,0-.15l-.1-.22a.28.28,0,0,0,0-.09.51.51,0,0,0-.15-.28A.54.54,0,0,0,35,96l-.2-.08a.82.82,0,0,0-.44,0A.61.61,0,0,0,34,96l-.11.08,0,0a1,1,0,0,0-.2.29,1.59,1.59,0,0,0-.12.27,1,1,0,0,0,0,.58,2.52,2.52,0,0,0,.12.29l0,0v0a1.15,1.15,0,0,0,.58.45l.26,0h.05l.25,0h0a.78.78,0,0,0,.21-.09.41.41,0,0,0,.13-.1.41.41,0,0,0,.1-.14.21.21,0,0,1,0-.06l0,0a.77.77,0,0,0,.16-.31Z"/><path class="cls-7" d="M46.09,97.9s0-.08,0-.11l0,.25c0-.09,0-.2,0-.3a2.14,2.14,0,0,0-.1-.22.14.14,0,0,1,0-.06s0,0,0-.06a.91.91,0,0,0-.4-.52.84.84,0,0,0-.85,0,1,1,0,0,0-.47.72,1.33,1.33,0,0,0,0,.74l.12.28a.65.65,0,0,0,.1.15,1.22,1.22,0,0,0,.34.3,2.28,2.28,0,0,0,.4.17.69.69,0,0,0,.63-.13.73.73,0,0,0,.29-.56v0s0,0,0-.06a.68.68,0,0,0,0-.14.53.53,0,0,0,0-.25A.74.74,0,0,0,46.09,97.9Z"/><path class="cls-7" d="M53.16,117.41a.76.76,0,0,0-.11-.33L53,117l-.11-.14-.15-.12-.17-.07a.57.57,0,0,0-.29,0,.27.27,0,0,0-.18,0,.24.24,0,0,0-.16.09.33.33,0,0,0-.13.13.47.47,0,0,0-.13.25l-.06.15v0l0,.21a.89.89,0,0,0,.12.43s0,0,0,.08l.12.15.16.13.19.08a.65.65,0,0,0,.31,0,.62.62,0,0,0,.37-.16.32.32,0,0,0,.14-.14.51.51,0,0,0,.14-.26s0-.06,0-.08l0-.22A.49.49,0,0,0,53.16,117.41Z"/><path class="cls-7" d="M59.82,105.67a.85.85,0,0,0,0-.42.66.66,0,0,0-.11-.26l-.09-.21-.1-.2a.7.7,0,0,0-.59-.4.72.72,0,0,0-.52.21,1.2,1.2,0,0,0-.18.26l-.17.26a1.16,1.16,0,0,0-.19.73,1.45,1.45,0,0,0,.2.66,1,1,0,0,0,.57.43,1,1,0,0,0,.62,0,1,1,0,0,0,.46-.39l.09-.23a1.23,1.23,0,0,0,0-.33A.17.17,0,0,1,59.82,105.67Z"/><path class="cls-7" d="M67.58,107.18a.64.64,0,0,0-.21-.19.71.71,0,0,0-.37-.1h-.06l-.27,0-.13,0a1,1,0,0,0-.52.28l-.11.12c-.12.13-.23.28-.34.42l0,0-.1.23v0l0,.26,0,.26v0a1.08,1.08,0,0,0,.11.3.72.72,0,0,0,.3.3.79.79,0,0,0,.42.12,1.8,1.8,0,0,0,.32-.06h0l.23-.1h0l.2-.16.15-.19,0,0a2.43,2.43,0,0,1,.14-.2.88.88,0,0,0,.24-.43v-.06a1.82,1.82,0,0,1,.07-.25.86.86,0,0,0,0-.39A.6.6,0,0,0,67.58,107.18Z"/><path class="cls-7" d="M75,114.49l0,0,0-.08a.49.49,0,0,1,0-.11l-.14-.32a1.2,1.2,0,0,0-.35-.39,1.22,1.22,0,0,0-1.11-.28l-.06,0a2.17,2.17,0,0,0-.35.15,1.49,1.49,0,0,0-.5.5l-.09.16a3.42,3.42,0,0,0-.17.4A2,2,0,0,0,72,115a2,2,0,0,0,.2,1.09,1.56,1.56,0,0,0,.39.42,1.5,1.5,0,0,0,.19.14,1.32,1.32,0,0,0,1,.14l.06,0a1.55,1.55,0,0,0,.65-.39,1,1,0,0,0,.31-.47,1.07,1.07,0,0,0,.12-.56,3.13,3.13,0,0,0,0-.43Z"/><path class="cls-7" d="M86.9,124.63a1.44,1.44,0,0,0-.38-.64,1.64,1.64,0,0,0-.33-.26l-.21-.11-.27-.11a.94.94,0,0,0-.44,0,.54.54,0,0,0-.28.08.77.77,0,0,0-.36.23l-.15.15a1.64,1.64,0,0,0-.26.33,1.49,1.49,0,0,0-.2.74,1.47,1.47,0,0,0,.2.74,1.09,1.09,0,0,1,.08.15l.22.29.29.22.33.14a1.07,1.07,0,0,0,.56,0,.75.75,0,0,0,.36-.1.65.65,0,0,0,.31-.18.67.67,0,0,0,.25-.25,1.13,1.13,0,0,0,.26-.48l0-.17A1.47,1.47,0,0,0,86.9,124.63Z"/><path class="cls-7" d="M92,102.39a1,1,0,0,0-.11-.52.75.75,0,0,0-.17-.3,1.12,1.12,0,0,0-.38-.34l-.05,0a1.18,1.18,0,0,0-.63-.18,1.21,1.21,0,0,0-.64.18l0,0-.27.21a1,1,0,0,0-.28.43.67.67,0,0,0-.09.34,1.1,1.1,0,0,0,0,.54,1.22,1.22,0,0,0,.07.17.53.53,0,0,0,.08.17l0,0a1.1,1.1,0,0,0,.34.37,1,1,0,0,0,.44.23l.35,0a1.26,1.26,0,0,0,.66-.18l.06,0a1.38,1.38,0,0,0,.45-.45,1,1,0,0,0,.15-.47,1.23,1.23,0,0,0,0-.19Z"/><path class="cls-7" d="M105.73,108.17v0l-.17-.39a2.27,2.27,0,0,0-.18-.25.47.47,0,0,0-.14-.17l-.33-.25c-.08,0-.3-.13-.39-.17l-.06,0-.15,0-.34,0a1,1,0,0,0-.48.11.61.61,0,0,0-.28.16,1.26,1.26,0,0,0-.22.24l0,0,0,0,0,0s0,0-.07.08l0,0-.13.18a3.56,3.56,0,0,0-.17.41v.05a.67.67,0,0,0,0,.24,1,1,0,0,0,0,.24,3.62,3.62,0,0,0,.06.46l0,.07a.36.36,0,0,1,0,.11,1.18,1.18,0,0,0,.09.23,1.36,1.36,0,0,0,.33.52l.33.25.39.16.42.06a1,1,0,0,0,.42-.06l.2-.08a.84.84,0,0,0,.35-.21.81.81,0,0,0,.29-.29,1.08,1.08,0,0,0,.28-.54,3.44,3.44,0,0,0,.1-.63v0Z"/><path class="cls-7" d="M103.86,119.74c0-.12,0-.24,0-.36v0a1.22,1.22,0,0,0-.07-.17.87.87,0,0,0-.07-.17l-.22-.27v0h0l-.26-.28a1,1,0,0,0-.46-.27.9.9,0,0,0-.43,0,.79.79,0,0,0-.39.13,1,1,0,0,0-.38.38l-.11.23h0l-.06,0a.39.39,0,0,0-.11.06.87.87,0,0,0-.3.33,1.69,1.69,0,0,0-.13.31,1.5,1.5,0,0,0,0,.18s0,.12,0,.18a1.2,1.2,0,0,0,0,.38v0a1.79,1.79,0,0,0,.13.32v0a1.44,1.44,0,0,0,.49.49l.33.14a1.47,1.47,0,0,0,.42.05h0a2.44,2.44,0,0,0,.39-.05l.08,0a2.54,2.54,0,0,0,.38-.16h0l.15-.12a1.06,1.06,0,0,0,.37-.39l0-.06c0-.06.06-.14.09-.19a1.31,1.31,0,0,0,.07-.19v0l0-.19,0-.19v-.05Z"/><path class="cls-7" d="M100.64,94.54l0-.07a1.54,1.54,0,0,0,0-.31,1.21,1.21,0,0,1,0-.19,1.33,1.33,0,0,0-.2-.71,2.27,2.27,0,0,0-.3-.46c-.12-.13-.28-.23-.41-.35a1.46,1.46,0,0,0-.64-.39l-.21,0a.82.82,0,0,0-.73.15.85.85,0,0,0-.33.66l0,.24a1,1,0,0,0,.1.48c0,.08.07.16.11.25a2.87,2.87,0,0,0,.46.69,2.2,2.2,0,0,0,.43.3,1.17,1.17,0,0,0,.72.21l.21,0,.19,0a.59.59,0,0,0,.19,0l0,0,.1,0A.23.23,0,0,0,100.64,94.54Z"/><path class="cls-7" d="M115.11,96c0-.11,0-.23,0-.34a1.7,1.7,0,0,0-.27-.84,1.37,1.37,0,0,0-.36-.46,2,2,0,0,0-1.08-.59l-.12,0a2.05,2.05,0,0,0-1.1,0,1.44,1.44,0,0,0-.7.37,1.51,1.51,0,0,0-.54.58,2,2,0,0,0-.28,1v.12a2.34,2.34,0,0,0,.3,1.21,1.79,1.79,0,0,0,.36.47l.45.35a2.81,2.81,0,0,0,.59.24l.11.05a2.17,2.17,0,0,0,1.13,0,1.76,1.76,0,0,0,.73-.38,1.67,1.67,0,0,0,.55-.6,2.13,2.13,0,0,0,.29-1.08S115.12,96,115.11,96Z"/><path class="cls-7" d="M104.51,87h0Z"/><path class="cls-7" d="M106.59,87.83a.35.35,0,0,0-.36-.09h-.06l0,0a1.34,1.34,0,0,0-.47-.28h0l.15.06a1.18,1.18,0,0,1-.29-.16.24.24,0,0,0-.08-.06,1.11,1.11,0,0,0-.36-.13,1.25,1.25,0,0,1-.25-.09l.2.09a1.42,1.42,0,0,0-.4-.12l-.32,0h0a.7.7,0,0,0-.14-.08.16.16,0,0,0-.24.13v.16h0s0,.12-.07.16v0q.06-.14,0,.09a.64.64,0,0,1,0,.07,2,2,0,0,0,0,.34,1.75,1.75,0,0,0,.22.77,1.35,1.35,0,0,0,.85.66,1.48,1.48,0,0,0,.83.06,1.57,1.57,0,0,0,.61-.36,1.48,1.48,0,0,0,.42-.75A.4.4,0,0,0,106.59,87.83Z"/><path class="cls-7" d="M104.62,87Z"/><path class="cls-7" d="M124.34,82.32a1.11,1.11,0,0,0-.16-.59,1,1,0,0,0-.27-.27.21.21,0,0,0,0-.06l.06,0-.08-.09a.05.05,0,0,1,0,0l0,0a1.19,1.19,0,0,0-.67-.51l-.06,0a2.34,2.34,0,0,0-.46-.09l-.2,0a.56.56,0,0,0-.24.13.6.6,0,0,0-.26.38l0,.09s0,.09-.05.13a.54.54,0,0,0-.08.28.71.71,0,0,0,0,.29.41.41,0,0,0,0,.16s0,.1,0,.14a3,3,0,0,0,.18.41l.09.13a3.15,3.15,0,0,0,.22.29l0,0h0l.24.18.28.12.31,0a1.65,1.65,0,0,0,.32,0l.29-.12h0l.24-.18a.76.76,0,0,0,.08-.11.53.53,0,0,0,.13-.23.46.46,0,0,0,.07-.26l0,.14A2.23,2.23,0,0,0,124.34,82.32Z"/><path class="cls-7" d="M117.22,73a1.31,1.31,0,0,0-.63-.79l-.14-.08-.17-.1a1.78,1.78,0,0,0-.43-.18l-.33-.12a1.57,1.57,0,0,0-.57,0,.93.93,0,0,0-.73.36,1,1,0,0,0-.16.8l0,.16a1.07,1.07,0,0,0,.23.48,3,3,0,0,0,.33.38,1.79,1.79,0,0,0,.52.38l.17.08a2.53,2.53,0,0,0,.36.15,1.13,1.13,0,0,0,.68,0,1,1,0,0,0,.41-.21,1,1,0,0,0,.31-.34A1.26,1.26,0,0,0,117.22,73Z"/><path class="cls-7" d="M123.39,56.82l-.07-.09-.13-.17,0,0,0,0a.93.93,0,0,0-.28-.23l-.09,0h0l-.06,0-.06-.06a1.18,1.18,0,0,0-.28-.22l-.06,0-.12-.06a1.84,1.84,0,0,0-.38-.17,2.73,2.73,0,0,0-.4,0h-.16a1,1,0,0,0-.3,0l-.24.1a.81.81,0,0,0-.27.25.93.93,0,0,0-.21.6,1.41,1.41,0,0,0,.07.41,2.1,2.1,0,0,0,.16.46l.12.18a1.54,1.54,0,0,0,.59.57,2.33,2.33,0,0,0,.92.27,1.31,1.31,0,0,0,1.21-.62A1.08,1.08,0,0,0,123.39,56.82Z"/><path class="cls-7" d="M91.45,35.85l0,0Z"/><path class="cls-7" d="M91.69,36.22l0-.07a.48.48,0,0,0-.22-.3l-.11-.05h-.09a.45.45,0,0,0-.16,0l-.11,0-.11,0a.34.34,0,0,0-.19,0l-.09,0-.15.12,0,0-.21.18-.12.1-.14.17a1.43,1.43,0,0,0-.08.22l0,.07,0,.12a.55.55,0,0,0,0,.21s0,.14,0,.2a.71.71,0,0,0,.48.47s.05,0,.1,0h.1l.19,0,.06,0,.11,0,0,0a.9.9,0,0,0,.36-.22.39.39,0,0,0,.08-.1l.14-.18.17-.22A.78.78,0,0,0,91.69,36.22Z"/><path class="cls-7" d="M91.7,47.38a.56.56,0,0,0-.13-.24,1.16,1.16,0,0,0-.2-.18l0,0,0,0,0,0-.08-.08a.39.39,0,0,1-.11-.06,1.17,1.17,0,0,0-.34-.16l-.19,0a1.09,1.09,0,0,0-.44,0,1.3,1.3,0,0,0-.61.17l-.14.11-.16.13-.08.07a1.5,1.5,0,0,0-.19.25,1.11,1.11,0,0,0,0,1.08,1.31,1.31,0,0,0,.29.34,1.28,1.28,0,0,0,.94.38,2.85,2.85,0,0,0,.29,0l.22,0A.6.6,0,0,0,91,49a.53.53,0,0,0,.17-.08,1,1,0,0,0,.35-.32c.06-.08.09-.1.11-.16a2.09,2.09,0,0,0,.17-.41l0-.28A.68.68,0,0,0,91.7,47.38Z"/><path class="cls-7" d="M64.82,34l0-.17,0,0a.61.61,0,0,1,0-.13v0a.91.91,0,0,0-.22-.41,1.2,1.2,0,0,0-.37-.34l-.13-.06a.57.57,0,0,1-.13-.08,1.51,1.51,0,0,0-.26-.2l-.29-.12-.32-.05h-.12l.1,0a1,1,0,0,0-.69.1,1,1,0,0,0-.45.59c0,.13,0,.27,0,.4v.08a0,0,0,0,0,0,0l0,.33a1,1,0,0,0,.22.41,2.56,2.56,0,0,0,.62.56,1,1,0,0,0,.17.1l0,0a1.83,1.83,0,0,0,.32.14l.17,0a.9.9,0,0,0,.49,0,1.69,1.69,0,0,0,.31-.13l.27-.21,0,0,0,0a1.14,1.14,0,0,0,.26-.44,2.23,2.23,0,0,0,0-.27S64.82,34.06,64.82,34Z"/><path class="cls-7" d="M72.64,29.49a.61.61,0,0,0-.13-.22.8.8,0,0,0-.29-.26l-.24-.1-.27,0a.66.66,0,0,0-.39.09.72.72,0,0,0-.33.21c-.1.1-.2.2-.29.31l0,0-.17.22a1.85,1.85,0,0,0-.13.29l0,.1-.08.21,0,.28a.7.7,0,0,0,.09.4.58.58,0,0,0,.14.24.84.84,0,0,0,.29.27l.25.11.29,0a1.16,1.16,0,0,0,.74-.31l.14-.16.07-.08a2.35,2.35,0,0,0,.19-.25,2.55,2.55,0,0,0,.13-.29c0-.14.09-.27.14-.41l0-.27A.76.76,0,0,0,72.64,29.49Z"/><path class="cls-7" d="M83.42,1.35A.75.75,0,0,0,83.21,1a1.07,1.07,0,0,0-.72-.3,2,2,0,0,0-.91.23,1.46,1.46,0,0,0-.38.27l0,0L81,1.47a.87.87,0,0,0-.12.29,1.43,1.43,0,0,0-.06.36A1,1,0,0,0,82.36,3l.09,0h0l.21-.17h0l0,0,0,0a.78.78,0,0,0,.35-.18.7.7,0,0,0,.26-.28l.1-.24a.82.82,0,0,0,0-.41A.48.48,0,0,0,83.42,1.35Z"/><path class="cls-7" d="M77.25,19.93l-.15-.21a.83.83,0,0,0-.32-.2.48.48,0,0,0-.26-.07.74.74,0,0,0-.39,0l-.24.1a1,1,0,0,0-.34.34l.08-.1-.09.11h0a1.06,1.06,0,0,0-.16.21,1.13,1.13,0,0,0-.15.57v.07a.91.91,0,0,0,.13.48.74.74,0,0,0,.24.26.76.76,0,0,0,.32.17,1.06,1.06,0,0,0,.5,0l.09,0h0l.24-.11L77,21.4h0l.16-.21,0,0a2.14,2.14,0,0,0,.1-.22,2.34,2.34,0,0,0,.09-.24.74.74,0,0,0,0-.39A.68.68,0,0,0,77.25,19.93Z"/><path class="cls-7" d="M116.69,31.78a1.5,1.5,0,0,0-.38-.64,2.57,2.57,0,0,0-.46-.37l-.11-.08,0,0c-.12-.05-.24-.11-.37-.15a1.22,1.22,0,0,0-.6,0,1.62,1.62,0,0,0-.38.09,2.83,2.83,0,0,0-.4.17.91.91,0,0,0-.37.33,1.34,1.34,0,0,0-.11.14,2.88,2.88,0,0,1-.13.31,1.34,1.34,0,0,0,0,.69,1.46,1.46,0,0,0,.39.64.81.81,0,0,1,.09.1l-.06-.08a1.21,1.21,0,0,0,.42.39l.35.15h.06l0,0a1.11,1.11,0,0,0,.47.14,1,1,0,0,0,.58,0l.34-.14a1.13,1.13,0,0,0,.41-.37.68.68,0,0,0,.18-.32,1.18,1.18,0,0,0,.13-.56Z"/><path class="cls-7" d="M105.84,72.16a.75.75,0,0,0-.18-.28,1,1,0,0,0-.28-.25,1.12,1.12,0,0,0-.57-.14h0a.32.32,0,0,1-.09,0l-.28,0a.8.8,0,0,0-.4.08.55.55,0,0,0-.23.14.81.81,0,0,0-.26.29l.14-.19a.91.91,0,0,0-.14.18h0a1.45,1.45,0,0,0-.11.25l0,.27a.7.7,0,0,0,.09.4.45.45,0,0,0,.13.23.73.73,0,0,0,.29.26,1.8,1.8,0,0,0,.38.16,1.36,1.36,0,0,0,.29.06l.21,0a.5.5,0,0,0,.17,0,1,1,0,0,0,.29-.08.62.62,0,0,0,.23-.14.55.55,0,0,0,.19-.18l.09-.13,0,0,.09-.22a.7.7,0,0,0,0-.38A.53.53,0,0,0,105.84,72.16Z"/><path class="cls-7" d="M105.65,71.88h0l.11.15Z"/><path class="cls-7" d="M105.61,71.82l0,.06s0,0,0,0Z"/><path class="cls-7" d="M113.13,52.82a1.84,1.84,0,0,0-.17-.22,1.11,1.11,0,0,0-.48-.28l-.09,0-.08,0a1.77,1.77,0,0,0-.32,0c-.11,0-.23,0-.34,0l.3,0-.24,0a1,1,0,0,0-.35,0,1.14,1.14,0,0,0-.44.25l.15-.12,0,0a.38.38,0,0,0-.18.13.94.94,0,0,0-.23.55,1.29,1.29,0,0,0,0,.39,1.33,1.33,0,0,0,.63.73.41.41,0,0,0,.11.07,1.6,1.6,0,0,0,.3.13,1,1,0,0,0,.49,0l.26,0,.18-.07a.8.8,0,0,0,.35-.22,2,2,0,0,0,.17-.23A1,1,0,0,0,113.13,52.82Z"/><path class="cls-4" d="M58.9,52a6.82,6.82,0,0,0-.43-.62,1.25,1.25,0,0,0-.21-.24L58.13,51l-.22-.18a1.88,1.88,0,0,0-.64-.38,2.12,2.12,0,0,0-.43-.06l-.18,0-.29,0a.78.78,0,0,0-.36.19,1,1,0,0,0-.39.56c0,.06,0,.12,0,.19a1.59,1.59,0,0,0,0,.89l.09.25a.93.93,0,0,0,0,.13.16.16,0,0,0,0,.08l.15.37c.06.09.13.16.19.24a3.53,3.53,0,0,0,.39.52,1.53,1.53,0,0,0,.5.34l.38.16.37.05a1.26,1.26,0,0,0,.86-.29,1.12,1.12,0,0,0,.36-.39c0-.06.05-.12.08-.19a1.46,1.46,0,0,0,.12-.62A2,2,0,0,0,58.9,52Z"/><path class="cls-4" d="M50.23,62l-.31-.19h0v0a.57.57,0,0,0-.08-.13c-.11-.19-.19-.39-.31-.56a5.48,5.48,0,0,0-.55-.7,3.07,3.07,0,0,1-.25-.26L48.58,60h0l-.33-.4,0,0-.05-.07L48,59.17a1.79,1.79,0,0,0-.49-.5c-.41-.3-1.36-.5-1.52.18a.53.53,0,0,0-.1.41.16.16,0,0,0,.23.1l0,0,0,0h0v0h0v.06a2.57,2.57,0,0,0,.12.55,5.05,5.05,0,0,0,.33.84,3.46,3.46,0,0,0,.53.74,3.09,3.09,0,0,0,.65.6,2.51,2.51,0,0,0,1,.34,3.76,3.76,0,0,0,.58,0l.24,0c-.16,0,0,0,.09,0a2.07,2.07,0,0,0,.35,0A.31.31,0,0,0,50.23,62Z"/><path class="cls-4" d="M66.24,74l-.36-.36a1.51,1.51,0,0,0-.72-.47l-.2,0L64.59,73a2,2,0,0,0-.54,0,.59.59,0,0,0-.54.41,1.63,1.63,0,0,0-.12.54,2.53,2.53,0,0,0,0,.38,3,3,0,0,0,.07.53,1.94,1.94,0,0,0,.45.74l.34.38a1.09,1.09,0,0,0,.45.29,1,1,0,0,0,.53.12,1,1,0,0,0,.54-.12,1,1,0,0,0,.44-.29,1.34,1.34,0,0,0,.41-1A1.45,1.45,0,0,0,66.24,74Z"/><path class="cls-4" d="M88.35,80.35a3.5,3.5,0,0,0-.29-.62L88,79.61l0-.09a1.47,1.47,0,0,0-.46-.5,3.42,3.42,0,0,0-.4-.26,2.55,2.55,0,0,0-.76-.41,5.1,5.1,0,0,0-.67-.08l.19,0a.94.94,0,0,0-.68.1,1,1,0,0,0-.42.55c0,.13-.1.26-.15.39a2,2,0,0,0,0,.87,6.81,6.81,0,0,0,.09.69,2.76,2.76,0,0,0,.59,1,1.48,1.48,0,0,0,.51.48,2.09,2.09,0,0,0,1,.27l.42-.06a1.18,1.18,0,0,0,.53-.28.86.86,0,0,0,.29-.28,1.22,1.22,0,0,0,.28-.54A1.73,1.73,0,0,0,88.35,80.35Z"/><path class="cls-4" d="M86,91.46a4.93,4.93,0,0,0-.3-.67,1.68,1.68,0,0,0-.27-.44,2.66,2.66,0,0,0-.35-.27l-.28-.23a1.27,1.27,0,0,0-.48-.27l-.08,0L84,89.5a.61.61,0,0,0-.46.06.65.65,0,0,0-.27.36c0,.11-.09.23-.12.34a2.32,2.32,0,0,0,0,.91,1.83,1.83,0,0,0,.19.72,3.94,3.94,0,0,0,.49.59,1.67,1.67,0,0,0,.5.37,1.22,1.22,0,0,0,.82,0A1.18,1.18,0,0,0,86,91.46Z"/></g></g></svg>