<svg xmlns="http://www.w3.org/2000/svg" viewBox="0 0 81.05 132.99"><defs><style>.cls-1{fill:#d78354;}.cls-2{fill:#cc5831;}.cls-3{fill:#b14f2b;}.cls-4{fill:#823e20;}.cls-5{fill:#e3aa80;}.cls-6{fill:#582b12;}.cls-7{fill:#fff;}</style></defs><g id="Lager_2" data-name="Lager 2"><g id="OBJECTS"><path class="cls-1" d="M6.33,101.68v0Z"/><path class="cls-1" d="M6.07,101.05a1.25,1.25,0,0,0-.73-.14,4.54,4.54,0,0,0-.82.07,5.91,5.91,0,0,0-.84.28l-.37.16-.18.08h0l-.24.1-.32.13a5.22,5.22,0,0,0-.83.37l-.5.33a.31.31,0,0,0-.31,0,.7.7,0,0,0-.34.55V103a1.6,1.6,0,0,0,0,.23.91.91,0,0,0,.14.51,1.48,1.48,0,0,0,1.27.62,3.06,3.06,0,0,0,1.26-.33c.56-.27,1.16-.51,1.7-.83a3.54,3.54,0,0,0,.86-.68l.31-.35a1.18,1.18,0,0,0,.17-.22.51.51,0,0,0,.09-.27v-.06A.57.57,0,0,0,6.07,101.05Z"/><path class="cls-1" d="M7,89.73a9.21,9.21,0,0,0-1.63-.26l-1.72,0-.39,0-.25,0a7,7,0,0,0-1-.08,5.55,5.55,0,0,0-.91,0c-.24,0-.47.07-.71.09a.32.32,0,0,0-.27.47c.16.23.34.46.52.69a2.88,2.88,0,0,0,.75.59,4.92,4.92,0,0,0,2.16.56,6.17,6.17,0,0,0,2-.19,3.45,3.45,0,0,0,1.65-1.1A.43.43,0,0,0,7,89.73Z"/><path class="cls-1" d="M12.14,78.26a2.66,2.66,0,0,0-.55-.7l-.09-.06h0a1.27,1.27,0,0,0-.12-.1l-.25-.22a7.35,7.35,0,0,0-.79-.67L10,76.28l-.15-.1L9.68,76l-.3-.26a6.55,6.55,0,0,0-.53-.39l-.09-.06a.1.1,0,0,0,0,0l0,0h0a4.8,4.8,0,0,0-1.38-.82L7,74.23H7l0,0A1.65,1.65,0,0,0,6.59,74l-.15-.07a.42.42,0,0,1-.14-.06A1,1,0,0,1,6,73.54a.33.33,0,0,0-.6.26,2.08,2.08,0,0,1,0,.4c0,.17-.06.34-.07.51a4,4,0,0,0,.2,1A4.45,4.45,0,0,0,8,78.86a7,7,0,0,0,.72.37,4,4,0,0,0,1.36.33,7,7,0,0,0,.79,0,2.12,2.12,0,0,0,1-.33A.75.75,0,0,0,12.14,78.26Z"/><path class="cls-1" d="M8.82,75.34l0,0c.07,0,.1.06-.16-.12l0,0Z"/><path class="cls-1" d="M19.28,68.78a3.85,3.85,0,0,0-.58-.7c-.23-.2-.43-.44-.67-.63l-.24-.17,0,0a4,4,0,0,0-.31-.27,8.21,8.21,0,0,1-.59-.59c-.19-.21-.35-.43-.56-.63l-.58-.57a4,4,0,0,0-.43-.39l-.08-.06-.09-.07a2.11,2.11,0,0,1-.53-.62.3.3,0,0,0-.55.15,8.23,8.23,0,0,1,0,.86,3,3,0,0,0,.06,1,4.72,4.72,0,0,0,.38,1,3.78,3.78,0,0,0,.7.94,7.81,7.81,0,0,0,1.57,1.3,4.15,4.15,0,0,0,1,.37,2,2,0,0,0,.68.07l.47-.08A.63.63,0,0,0,19.28,68.78Z"/><path class="cls-1" d="M27.48,57.81c-.11-.27-.2-.55-.32-.82a5.4,5.4,0,0,0-.58-.86c-.41-.58-.92-1.07-1.38-1.62-.19-.23-.41-.43-.62-.64a3.29,3.29,0,0,0-.93-.6,2,2,0,0,0-.53-.21l-.05,0c-.11-.1-.22-.24-.15-.4s-.06-.47-.29-.37c-.59.24-.67.82-.69,1.39a5,5,0,0,0,0,1,3.57,3.57,0,0,0,.49,1.23,8.85,8.85,0,0,0,1.61,1.85,7.91,7.91,0,0,0,1.07.75,3.59,3.59,0,0,0,1.23.42C27,59,27.76,58.49,27.48,57.81Z"/><path class="cls-1" d="M34.85,47.81c-.31-.55-.59-1.12-.86-1.7A20.3,20.3,0,0,0,31.86,43a.26.26,0,0,0-.47.13,8.34,8.34,0,0,0,.63,4c.29.59.61,1.16.95,1.72a3.3,3.3,0,0,0,1.6,1.59.78.78,0,0,0,1-.74A3.88,3.88,0,0,0,34.85,47.81Z"/><path class="cls-1" d="M35.44,36.94Z"/><path class="cls-1" d="M42.77,37.26c-.1,0-.39-.24-.51-.29a1.87,1.87,0,0,0-.57-.12,10.53,10.53,0,0,0-1.24-.1,20.83,20.83,0,0,0-2.62.17,5.43,5.43,0,0,1-.78.08c-.26,0-.52,0-.77,0h-.42l-.11,0-.31,0h-.13a.47.47,0,0,1-.11-.13.31.31,0,0,0-.54,0,1.44,1.44,0,0,0,.28,1.72,2.92,2.92,0,0,0,2.25.69,15.93,15.93,0,0,0,3-.54c.5-.15,1-.3,1.47-.5a3.26,3.26,0,0,0,.68-.32c.13-.1.33-.43.47-.47A.06.06,0,0,0,42.77,37.26Z"/><path class="cls-1" d="M41.4,23.69h-.06c-.36-.35-1.08-.2-1.51-.15-.62.07-1.23.17-1.85.25s-1.29.15-1.94.29a6.42,6.42,0,0,0-1.78.68.22.22,0,0,0,0,.37,4.74,4.74,0,0,0,1.85.44,11.23,11.23,0,0,0,2.08-.23,14.68,14.68,0,0,0,2-.5c.42-.14,1.14-.36,1.27-.86l.06,0A.14.14,0,0,0,41.4,23.69Z"/><path class="cls-1" d="M39.16,12.6a3.07,3.07,0,0,0-.83-.36L37.49,12c-.55-.16-1.11-.34-1.65-.54s-1.09-.39-1.64-.57a5.05,5.05,0,0,0-1.68-.23.29.29,0,0,0-.25.44,3.69,3.69,0,0,0,1.35,1.16,9.92,9.92,0,0,0,1.68.7c.55.17,1.11.33,1.67.46l.85.19a3.1,3.1,0,0,0,1,.05C39.39,13.61,39.71,12.9,39.16,12.6Z"/><path class="cls-1" d="M46.23,4.89c0-.14-.09-.3-.25-.33a1.34,1.34,0,0,0-.07-.18,5.41,5.41,0,0,0-.36-.61c-.12-.2-.23-.41-.33-.62s-.22-.44-.28-.58c0,0,0-.09,0-.1a.47.47,0,0,1-.06-.15c-.06-.14-.11-.29-.17-.42s-.22-.4-.32-.61c-.21-.39-.5-.75-.72-1.13-.09-.15-.36-.14-.39,0a5.07,5.07,0,0,0-.12,1.6,3.56,3.56,0,0,0,.17.8c.11.28.24.56.37.83a11.34,11.34,0,0,0,.79,1.35,1.58,1.58,0,0,0,.66.62,1,1,0,0,0,.9,0A.45.45,0,0,0,46.23,4.89Z"/><path class="cls-1" d="M59.2.06A7,7,0,0,0,58,1.33a3.93,3.93,0,0,0-.49.84c-.12.27-.22.55-.32.83a13.82,13.82,0,0,0-.51,1.66,2.08,2.08,0,0,0,0,.86c0,.12.13.4.3.36a.79.79,0,0,0,.46-.38,2.85,2.85,0,0,0,.39-.73c.17-.49.37-1,.59-1.46.12-.24.24-.47.35-.71a7.81,7.81,0,0,0,.29-.81c.18-.5.3-1,.45-1.52A.22.22,0,0,0,59.2.06Z"/><path class="cls-1" d="M72.12,10.87a16,16,0,0,0-3.23,1.49c-.5.33-1,.64-1.5,1a3.58,3.58,0,0,0-.71.64,2.17,2.17,0,0,0-.32.73.2.2,0,0,0,.19.25,2.51,2.51,0,0,0,.82,0,3.79,3.79,0,0,0,.87-.39l1.46-.92a15.91,15.91,0,0,0,2.7-2.28C72.6,11.16,72.4,10.76,72.12,10.87Z"/><path class="cls-1" d="M79.67,25.45a3.22,3.22,0,0,0-1.82-.17l-1.86.3c-.6.1-1.21.17-1.8.31l-.88.2a3.58,3.58,0,0,0-.47.13c-.12-.17-.56-.1-.64.17s.2.58.46.69a3.25,3.25,0,0,0,1.28.07c1,0,2-.15,2.93-.25a5.21,5.21,0,0,0,2.89-.75A.44.44,0,0,0,79.67,25.45Z"/><path class="cls-1" d="M80.86,40.25a12.94,12.94,0,0,1-1.75-.16,14,14,0,0,1-1.71-.34,10.64,10.64,0,0,1-1.57-.61c-.28-.13-.54-.29-.81-.43s-.55-.24-.81-.38a.12.12,0,0,0-.16.16,3.93,3.93,0,0,0,.49.84,5.58,5.58,0,0,0,.73.64,6.07,6.07,0,0,0,1.82.9A4.9,4.9,0,0,0,81,40.61C81.14,40.52,81,40.25,80.86,40.25Z"/><path class="cls-1" d="M8,113.21c0-.06-.06-.13-.11-.09s-.14,0-.2,0l-.12,0-.23.12a3,3,0,0,0-.47.25c-.3.2-.62.36-.93.54-.16.09-.32.18-.49.26l-.12.05h0l-.26.1c-.17,0-.34.11-.52.15l-.27.06-.13,0-.22.08h0l-.13,0a2.15,2.15,0,0,0-.32.13.57.57,0,0,0-.26.64c.15.43.71.48,1.12.47a3.67,3.67,0,0,0,1.17-.3,7.15,7.15,0,0,0,1.08-.52,4.35,4.35,0,0,0,1-.87,1.79,1.79,0,0,0,.36-.61l.09-.26a.49.49,0,0,0,0-.11C8,113.39,8,113.28,8,113.21Z"/><path class="cls-1" d="M14.45,121.43a.12.12,0,0,0-.15-.11,2.79,2.79,0,0,0-1.33.94,16.64,16.64,0,0,0-1.08,1.52c-.35.49-.69,1-1,1.48a6.8,6.8,0,0,0-.46.77,2.93,2.93,0,0,0-.3.89c-.07.4.35.83.74.57a2.61,2.61,0,0,0,.7-.58,7.15,7.15,0,0,0,.59-.77l1-1.52c.32-.5.69-1,1-1.53a2.75,2.75,0,0,0,.36-.91A3.12,3.12,0,0,0,14.45,121.43Z"/><path class="cls-1" d="M25.75,126.6a5.74,5.74,0,0,0-.68.51,2.72,2.72,0,0,0-.48.73,8.38,8.38,0,0,0-.66,1.68,7.43,7.43,0,0,0-.28,1.75,1.65,1.65,0,0,0,.21,1,1.53,1.53,0,0,0,.53.67.41.41,0,0,0,.48-.06,1.72,1.72,0,0,0,.32-.65l0-.07a1.39,1.39,0,0,0,.12-.28,2.18,2.18,0,0,0,0-.51,8,8,0,0,1,.1-1.43,7.36,7.36,0,0,1,.41-1.46,5.93,5.93,0,0,0,.29-.69c.07-.25.1-.5.17-.75A.39.39,0,0,0,25.75,126.6Z"/><path class="cls-1" d="M37.8,129.52l-.1,0c-.21-.26-.45-.5-.65-.76l0,0,0-.06-.21-.28-.06-.06-.13-.18c-.18-.25-.34-.5-.5-.76-.29-.5-.54-1-.83-1.54a6.31,6.31,0,0,1-.38-.73c-.14-.29-.37-.52-.49-.82a.13.13,0,0,0-.26,0,7.45,7.45,0,0,0-.19.94c0,.31,0,.62,0,.92a6.23,6.23,0,0,0,.58,2,8.35,8.35,0,0,0,.9,1.63c.46.63,1,1.49,1.87,1.5a.83.83,0,0,0,.8-.6,7.35,7.35,0,0,1,.28-.83C38.54,129.61,38.09,129.4,37.8,129.52Z"/><path class="cls-1" d="M47.62,116.7a2.47,2.47,0,0,1-.29.06h0l-.14,0-.14,0h0l0,0a1.42,1.42,0,0,0-.61-.07l-.75,0h-.49l-.33-.08-.25-.09s0,0-.07,0h0l-.17-.09-.29-.18-.56-.32-.06,0a1.44,1.44,0,0,0-.4-.23h0l-.12,0a.53.53,0,0,0-.77.32,1.49,1.49,0,0,0,.13,1.15,3.41,3.41,0,0,0,.55.81,4.11,4.11,0,0,0,1.83.94,3.29,3.29,0,0,0,2.08,0,1.49,1.49,0,0,0,.8-.55,1.23,1.23,0,0,0,.14-.25,2,2,0,0,0,.1-.21s.09-.19.06-.12c.06-.12.14-.23.2-.35A.28.28,0,0,0,47.62,116.7Z"/><path class="cls-1" d="M44.47,116.34l.07,0-.08,0h0Z"/><path class="cls-1" d="M43,115.46Z"/><path class="cls-1" d="M50.19,104a.24.24,0,0,0-.17.15H50l-.21,0a7.3,7.3,0,0,0-.81,0c-.34,0-.57.08-1,.1s-.55,0-.82,0c-.59,0-1.18,0-1.76-.07a5.34,5.34,0,0,0-1.69.07.33.33,0,0,0-.14.55,3.84,3.84,0,0,0,2.17,1.17,9,9,0,0,0,2.54.22,3,3,0,0,0,2.44-.91C51,104.8,50.9,103.84,50.19,104Z"/><path class="cls-1" d="M52,92.49s-.05,0,0,0Z"/><path class="cls-1" d="M52.18,92.5a.76.76,0,0,0-.15,0h0s0,0,0,0,.07.06,0,0a.43.43,0,0,0-.2-.11l-.11,0h0a1.57,1.57,0,0,0-.23-.09.88.88,0,0,0-.36,0H51a3.84,3.84,0,0,1-.59,0l-.3,0-.14,0a8.42,8.42,0,0,1-1.12-.31h0l-.12-.06a1.82,1.82,0,0,0-.38-.11l-.26-.07-.12,0a.32.32,0,0,0-.17,0,.09.09,0,0,0-.08,0,.2.2,0,0,0-.24.24.06.06,0,0,0,0,.08.21.21,0,0,0,0,.11.54.54,0,0,0,.08.21,2.44,2.44,0,0,0,.14.28,1.88,1.88,0,0,0,.58.61,3.8,3.8,0,0,0,1.36.61,4.83,4.83,0,0,0,1.47.13,1.3,1.3,0,0,0,.61-.14A2.22,2.22,0,0,0,52,93.5l.09-.1.1-.12v0s0,0,0,0l0,0L52.4,93A.32.32,0,0,0,52.18,92.5Z"/><path class="cls-1" d="M59.89,85.43a1.74,1.74,0,0,1-.68-.07l-.37-.12h-.06l-.19-.1a4.35,4.35,0,0,0-.54-.22l-.09,0-.13-.06a3.18,3.18,0,0,1-.4-.23l-.08-.06-.11-.1a3.22,3.22,0,0,1-.32-.32s-.09-.1-.13-.16l-.06-.08a6.3,6.3,0,0,1-.5-.83,8.06,8.06,0,0,0-.48-.8,1.86,1.86,0,0,0-.41-.43c-.15-.12-.45-.26-.64-.14-.82.52-.25,1.85.08,2.51a5.62,5.62,0,0,0,1.37,1.77,3.14,3.14,0,0,0,2.19.89,2.45,2.45,0,0,0,1.79-1A.27.27,0,0,0,59.89,85.43Z"/><path class="cls-1" d="M69.62,73.57a5.51,5.51,0,0,1-.81,0,3.92,3.92,0,0,0-1.23.06,7.35,7.35,0,0,1-1.88.08,14.06,14.06,0,0,1-1.81-.34c-.34-.08-.65-.2-1-.3a1.74,1.74,0,0,0-.45-.06.58.58,0,0,0-.26,0l-.08.05s0,0,0,0-.14.11-.1.18v0c-.2.59.88,1.21,1.26,1.44a5.66,5.66,0,0,0,2.33.72,8.51,8.51,0,0,0,2.31-.06,2.38,2.38,0,0,0,1.22-.52,5.2,5.2,0,0,0,.7-.78A.28.28,0,0,0,69.62,73.57Z"/><path class="cls-1" d="M73.81,64.94a.48.48,0,0,0-.48-.17l0,0h0l0,0-.12-.08-.25-.18-1-.74c-.33-.24-.68-.46-1-.69l-.51-.34a1.28,1.28,0,0,0-.69-.31.5.5,0,0,0-.48.64,1.28,1.28,0,0,0,.5.61l.52.45c.39.34.78.66,1.19,1s.74.56,1.12.83a1.37,1.37,0,0,0,.78.28.88.88,0,0,0,.8-.61A.61.61,0,0,0,73.81,64.94Z"/><path class="cls-1" d="M79.31,52.61a1.17,1.17,0,0,0-.61-.32,2.87,2.87,0,0,0-.65-.12l-.21,0-.15,0-.26,0-.58,0c-.19,0-.38,0-.58,0h-.44c-.24,0-.3,0-.2,0h-.07l-.17,0-.27,0a1.57,1.57,0,0,0-.69.29.49.49,0,0,0-.1.77,1.67,1.67,0,0,0,.59.4,5.8,5.8,0,0,0,.6.13,8.47,8.47,0,0,0,1.33.07c.4,0,.8,0,1.2-.05a1.75,1.75,0,0,0,1.34-.77A.57.57,0,0,0,79.31,52.61Z"/><path class="cls-2" d="M28.68,55.38c-5.2,6-11.06,11.49-15.68,18-6.41,9-10.32,20.1-8.88,31s8.91,21.3,19.47,24.41a15.73,15.73,0,0,0,9,.26c6-1.84,9.39-8.15,10.74-14.24s1.27-12.48,3.27-18.39c3.37-10,12-17,18.44-25.39S75.81,52.3,76.41,41.67s-2.65-21.58-9.63-29.62c-3.1-3.57-7-6.61-11.58-7.86-5.56-1.53-11.75,0-15.3,4.73-2.89,3.84-2,7-.83,11.33C42.73,33.79,37.54,45.13,28.68,55.38Z"/><path class="cls-3" d="M70.46,39.79a56.55,56.55,0,0,1-9.91,15.74C56.41,60.18,51.44,63.94,46.7,68A57.3,57.3,0,0,0,34.57,81.44a48.39,48.39,0,0,0-4,8.18c-1,2.74-1.68,5.57-2.46,8.4-.82,3-1.91,6.28-4.45,8.29-2.09,1.66-5.45,2.69-7.76.86a1.21,1.21,0,0,0-2,.84c-.22,4.12.17,8.57,2.63,12a10.26,10.26,0,0,0,8.85,4.7c8.52-.5,12.09-9.27,13.15-16.53.64-4.37.84-8.85,2.3-13.06a31.57,31.57,0,0,1,5.09-9c4.31-5.49,9.7-10,14.4-15.13,4.11-4.48,7.65-9.69,9.41-15.48.11-.27.22-.53.32-.8a47,47,0,0,0,2.92-14.64C73,38.58,71,38.58,70.46,39.79Z"/><path class="cls-4" d="M62.71,59.12A24.1,24.1,0,0,1,61,61.81c-.7.73-1.54,1.33-2.28,2-1.54,1.46-2.91,3.1-4.42,4.59-3.16,3.11-6.69,5.8-9.95,8.8s-6.4,6.43-8.27,10.51c-2.54,5.51-2.83,11.49-4.11,17.33-.3,1.38-.74,2.7-1.13,4.05a15.85,15.85,0,0,1-1.26,3.78,17.85,17.85,0,0,1-2.38,3.15c-.63.71-2.13,3.09-3.33,2.45-.2-.1-.49.07-.4.31.81,2.3,3.74,1.19,5.24.38,2.41-1.3,3.81-3.92,5.17-6.17a18,18,0,0,0,1.9-3.73,37.62,37.62,0,0,0,1-4.05c.67-3.22,1.07-6.5,1.79-9.71a25.16,25.16,0,0,1,3-7.72,29.65,29.65,0,0,1,4.31-5.3c3.36-3.38,7.18-6.27,10.66-9.52a25.32,25.32,0,0,0,5.12-6.09,10.5,10.5,0,0,0,1.16-3.75c.17-1.3.73-2.5.66-3.82A.42.42,0,0,0,62.71,59.12Z"/><path class="cls-1" d="M64.26,17.57a6.64,6.64,0,0,0-2.9-1.24A16.18,16.18,0,0,0,58.11,16,15.63,15.63,0,0,0,52,17.48a22.83,22.83,0,0,0-5.17,3.36c-1.48,1.23-3.44,2.71-4.23,4.52h0c-.15.29.08.75.47.61,1.71-.6,3.1-2.15,4.53-3.23a25.8,25.8,0,0,1,4.86-3,13.61,13.61,0,0,1,5.64-1.3,20.31,20.31,0,0,1,3.2.33,4.82,4.82,0,0,0,2.83-.32A.51.51,0,0,0,64.26,17.57Z"/><path class="cls-1" d="M71,51.42a.51.51,0,0,0-.21-.15,13.37,13.37,0,0,0-2.52-2.63,27.51,27.51,0,0,0-10.91-5.9,29.69,29.69,0,0,0-8.22-1.17c-2.54,0-5.81.15-8,1.55a.48.48,0,0,0,.24.89c1.31,0,2.63-.28,3.94-.36s2.43-.16,3.65-.12a27.63,27.63,0,0,1,7.8,1.39,29.54,29.54,0,0,1,6.94,3.38,23.42,23.42,0,0,1,3.08,2.35,29.11,29.11,0,0,0,2.89,2.67,1.11,1.11,0,0,0,1.3-.17A1.15,1.15,0,0,0,71,51.42Z"/><path class="cls-1" d="M47.55,79.83a26.21,26.21,0,0,0-2.47-2.91,27.22,27.22,0,0,0-6.22-4.7,27.55,27.55,0,0,0-7.08-2.73,14,14,0,0,0-7.56-.09.14.14,0,0,0,0,.26c2.3.56,4.67.73,7,1.35a25.5,25.5,0,0,1,6.69,2.9,24.72,24.72,0,0,1,5.46,4.52,24.14,24.14,0,0,1,2.29,2.94c.56.85,1.11,2.09,2.27,2.11v0a.73.73,0,0,0,.68-.37C49.21,82,48.2,80.69,47.55,79.83Z"/><path class="cls-1" d="M40,112.7c-.06-1.39-1.17-2.75-1.89-3.91a27.14,27.14,0,0,0-2.76-3.72,21.58,21.58,0,0,0-7.2-5.24,32.22,32.22,0,0,0-8.92-2.56c-3.11-.43-6.53-.92-9.62-.33-.1,0-.08.16,0,.19,2.92,1,6.17,1,9.21,1.64a34.82,34.82,0,0,1,8.41,2.63,20.06,20.06,0,0,1,6.54,4.94A33.07,33.07,0,0,1,36.4,110c.72,1.11,1.29,2.63,2.42,3.34A.74.74,0,0,0,40,112.7Z"/><path class="cls-1" d="M46.36,16s0-.08,0-.13V16Z"/><path class="cls-1" d="M51.78,7.21c-.44-.56-1.38-.58-2-.62a7,7,0,0,0-2.1.1,6.65,6.65,0,0,0-2.16,1.2A9.16,9.16,0,0,0,44,9.28a12.4,12.4,0,0,0-2.3,4.12,12.73,12.73,0,0,0-.46,2.29,3.12,3.12,0,0,0,1.29,3.36,2.4,2.4,0,0,0,2.39,0,2.74,2.74,0,0,0,1.31-2,9.63,9.63,0,0,0,.1-1c0,.14-.06.22,0-.08v0s0,0,0-.08v.06c0-.12,0-.24.07-.35a6.74,6.74,0,0,1,.24-.88c0-.13.09-.26.13-.39h0c.12-.25.23-.49.37-.73s.31-.48.47-.72l.27-.31c.36-.4.78-.74,1.17-1.1l.29-.25,0,0A4.38,4.38,0,0,0,50.52,10l0,0,.24-.26a6.91,6.91,0,0,1,.57-.51C52,8.7,52.38,8,51.78,7.21Z"/><path class="cls-5" d="M47.67,8.51a1.82,1.82,0,0,0-1.34.26,6.15,6.15,0,0,0-1.09.74,7.52,7.52,0,0,0-1.62,1.85A5.09,5.09,0,0,0,42.89,14a2.08,2.08,0,0,0,1.28,1.94,1.44,1.44,0,0,0,1.41-.37,2.14,2.14,0,0,0,.48-1.3l-.06.41a6.25,6.25,0,0,0,.09-.87c0-.1,0-.2,0-.3a8.63,8.63,0,0,1,.33-1.13l0-.09a3.59,3.59,0,0,1,.17-.34l.36-.57c.08-.11.15-.22.23-.31l0,0,.08-.09c.2-.26.37-.54.55-.81C48.17,9.69,48.39,8.81,47.67,8.51Z"/><path class="cls-6" d="M50.54,27.14a5.06,5.06,0,0,0-.39-1,7.54,7.54,0,0,0-.61-.87L49.13,25l-.47-.2-.53-.07a1.58,1.58,0,0,0-.77.17,1,1,0,0,0-.43.26,1.91,1.91,0,0,0-.62.79,1.58,1.58,0,0,0-.17.77,11.69,11.69,0,0,0,.26,1.87,4.2,4.2,0,0,0,.39,1,1.84,1.84,0,0,0,.26.4,2.2,2.2,0,0,0,.21.32,1.53,1.53,0,0,0,.54.5,1.81,1.81,0,0,0,.91.23A1.76,1.76,0,0,0,50,30.49c.1-.11.2-.23.29-.35a1.66,1.66,0,0,0,.38-.76c0-.2.06-.41.08-.61a2.81,2.81,0,0,0,0-.58A6.19,6.19,0,0,0,50.54,27.14Z"/><path class="cls-6" d="M61.92,24.49a4.33,4.33,0,0,0-.19-.79,6.85,6.85,0,0,0-.49-1.15,6.64,6.64,0,0,0-.73-1,1.74,1.74,0,0,0-.8-.46,1.78,1.78,0,0,0-1,0,1.85,1.85,0,0,0-.8.46,1.82,1.82,0,0,0-.46.81,4.8,4.8,0,0,0,.08,2.32,3.65,3.65,0,0,0,.65,1.29c0,.11.08.23.13.34a1.45,1.45,0,0,0,.33.64,1.36,1.36,0,0,0,.53.48l.45.19a1.47,1.47,0,0,0,.75,0,1.86,1.86,0,0,0,1.08-.52A2,2,0,0,0,62,25.78,6.25,6.25,0,0,0,61.92,24.49Z"/><path class="cls-6" d="M61.1,30.89a2,2,0,0,0-1.64-.36c-2,.43-3.54,1.88-5.48,2.29s-4-.09-5.4,1.68a2.8,2.8,0,0,0-.53,2.82,4.17,4.17,0,0,0,2.42,2.09c2.32.92,4.86.28,7.08-.59s4.42-2,4.94-4.34A3.84,3.84,0,0,0,61.1,30.89Z"/><path class="cls-7" d="M59.71,33.53a8.68,8.68,0,0,0,1.36-2.66,2,2,0,0,0-1.61-.34c-2,.43-3.54,1.88-5.48,2.29s-3.9-.06-5.33,1.61a13.49,13.49,0,0,0,2,1.86.53.53,0,0,0,.83-.1c.23-.47.49-.92.76-1.36a15.28,15.28,0,0,0,1.38.74,2.11,2.11,0,0,0,1.6.26c.54-.2.75-.75,1-1.22.1-.21.34-.52.44-.78l.18.16A1.93,1.93,0,0,0,59.71,33.53Z"/><path class="cls-3" d="M18.13,89.21l0-.13c0-.09-.05-.19-.08-.28a5.1,5.1,0,0,0-1.13-2l-.34-.41-.08-.09,0-.06-.66-.51a1.28,1.28,0,0,0-.43-.19,2.65,2.65,0,0,0-.42-.18l-.1,0L14,85.27a2.22,2.22,0,0,0-1.19.27,1.46,1.46,0,0,0-.69.4,2.22,2.22,0,0,0-.79.87,6.56,6.56,0,0,0-.39.91q-.07.45-.12.9l.12.87,0,.16c0,.19.05.39.08.58a1.25,1.25,0,0,0,.07.26c0,.05,0,.1.05.15l.36.85a.41.41,0,0,0,.05.09l.15.23a4.32,4.32,0,0,0,.6.79l.71.54.86.37a2.66,2.66,0,0,0,1.37.06,2.55,2.55,0,0,0,1.28-.41l.7-.54a3.34,3.34,0,0,0,.88-1.52,1.06,1.06,0,0,0,.08-.5A2.74,2.74,0,0,0,18.13,89.21Z"/><path class="cls-3" d="M32.93,76.45a1.49,1.49,0,0,0-.2-.74,1.32,1.32,0,0,0-.18-.4l-.46-.6,0,0a5.34,5.34,0,0,0-.65-.5,4.59,4.59,0,0,0-.85-.35l-.38-.11-.21,0-.62-.09-.61.09a2,2,0,0,0-.68.31,1.27,1.27,0,0,0-.18.06h-.11a.54.54,0,0,0-.39.11l-.08,0h0c-.06,0-.2,0-.27,0a.12.12,0,0,0-.08.2l.18.16s0,0,0,0a.31.31,0,0,1,0,.08.63.63,0,0,0,.12.31.25.25,0,0,0,0,.09,2.32,2.32,0,0,0-.2.91c0,.06,0,.12,0,.18s0,.27,0,.41a1.36,1.36,0,0,0,0,.2l.11.78v.05a2.79,2.79,0,0,0,.32.78,1.54,1.54,0,0,0,.25.32,1.5,1.5,0,0,0,.53.53,2.24,2.24,0,0,0,1,.53l.78.11h.13a2.71,2.71,0,0,0,1.38-.38,2.82,2.82,0,0,0,1-1l.06-.12.3-.71A2.25,2.25,0,0,0,32.93,76.45Z"/><path class="cls-3" d="M41.89,62V62c0-.07,0-.13,0-.19L41.78,61l0-.07-.09-.23a3.87,3.87,0,0,0-.92-1.56,3.66,3.66,0,0,0-.93-.73,4,4,0,0,0-1-.44l-.15,0a2.46,2.46,0,0,0-1.37,0,2.52,2.52,0,0,0-1.14.66,4.32,4.32,0,0,0-.5.63,4.75,4.75,0,0,0-.33.81l-.08.23,0,.09-.11.85v.21a7.16,7.16,0,0,0,.12.93,5.27,5.27,0,0,0,.37.88l.06.12.06.11,0,.06.51.66.38.29a1.49,1.49,0,0,0,.35.27l.12.07a3.16,3.16,0,0,0,1.59.43,2.5,2.5,0,0,0,1.21-.27,2.41,2.41,0,0,0,1-.65,3.21,3.21,0,0,0,.81-1.39v-.1c0-.25.09-.52.11-.78Z"/><path class="cls-3" d="M56.39,53.9a1.41,1.41,0,0,0-.41-.64l0,0c-.06-.08-.12-.17-.19-.25a2,2,0,0,0-.58-.42l-.16-.1a1.06,1.06,0,0,0-.21-.11,2.09,2.09,0,0,1-.29-.16l-.2-.15-.06,0L54.14,52l-.06,0h0a.69.69,0,0,0-.66-.12,1.91,1.91,0,0,0-1,.78,2.57,2.57,0,0,0-.24.64,5.18,5.18,0,0,0-.11.79,2.72,2.72,0,0,0,.35,1.3,1.42,1.42,0,0,0,.39.57,2.58,2.58,0,0,0,.57.41c.21.09.42.19.64.26a1.54,1.54,0,0,0,.82.05,1.38,1.38,0,0,0,.73-.24.83.83,0,0,0,.21-.16,1.47,1.47,0,0,0,.51-.54,1.6,1.6,0,0,0,.23-.72l0-.28A1.42,1.42,0,0,0,56.39,53.9Z"/><path class="cls-6" d="M50.39,23a2.06,2.06,0,0,0-1.66-1.12c-.72-.12-1.44-.2-2.17-.28a20.37,20.37,0,0,0-2.05-.22,3.52,3.52,0,0,0-2,.25.29.29,0,0,0-.1.38,3.33,3.33,0,0,0,1.71.87,17,17,0,0,0,2,.48c.68.14,1.35.29,2,.4a2.17,2.17,0,0,0,2.09-.45A.3.3,0,0,0,50.39,23Z"/><path class="cls-6" d="M60.88,14.75a4.6,4.6,0,0,0-.93.56l-.87.7a10.72,10.72,0,0,0-1.49,1.67c-.44.57-.9,1.14-1.36,1.7a5.94,5.94,0,0,0-.67,1,2,2,0,0,0-.3,1,.28.28,0,0,0,.27.27,1.8,1.8,0,0,0,.94-.32,5.38,5.38,0,0,0,.93-.72c.53-.55,1.06-1.1,1.58-1.66.28-.31.54-.62.8-.95a7,7,0,0,0,.64-.9c.18-.33.33-.67.49-1A3.74,3.74,0,0,0,61.25,15,.26.26,0,0,0,60.88,14.75Z"/></g></g></svg>