<svg xmlns="http://www.w3.org/2000/svg" viewBox="0 0 141.35 106.47"><defs><style>.cls-1{fill:#354776;}.cls-2{fill:#4964a9;}.cls-3{fill:#3f558d;}.cls-4{fill:#467ebf;}.cls-5{fill:#657ab8;}.cls-6{fill:#8b9acc;}.cls-7{fill:#202b48;}.cls-8{fill:#fff;}</style></defs><g id="Lager_2" data-name="Lager 2"><g id="OBJECTS"><path class="cls-1" d="M29.21,31.61a19.77,19.77,0,0,1-5.73.49,4.36,4.36,0,0,1-2.25-.84,6.42,6.42,0,0,1-1.58-2.35c-.68-1.39-1.46-3-3-3.56-.91-.35-3.2-.4-2.95,1.08a.09.09,0,0,0,.09.07c.7.09,1.25-.35,2-.18A3,3,0,0,1,17.58,28c.83,1.51,1.15,3.27,2.43,4.51a6,6,0,0,0,4.3,1.58c2-.07,3.47-1,5.1-2A.25.25,0,0,0,29.21,31.61Z"/><path class="cls-1" d="M40,27.49h0A15.28,15.28,0,0,0,39,24a11.43,11.43,0,0,0-2.25-3.74,10.35,10.35,0,0,1-2.48-3.63,7.92,7.92,0,0,1-.42-2.25c0-.74.19-1.47.14-2.19a.46.46,0,0,0-.24-.41.44.44,0,0,0-.16-.06h-.07a.48.48,0,0,0-.41.24c-.74,1.13-.61,3-.39,4.3a9.22,9.22,0,0,0,1.89,4.17,15.19,15.19,0,0,1,2.61,4.07c.53,1.47.8,3.1,2.1,4.1a.53.53,0,0,0,.71-.19l.28-.51A.24.24,0,0,0,40,27.49Z"/><path class="cls-1" d="M55.5,11.78c-.75-1.74-2-3.26-2.6-5a5.05,5.05,0,0,1-.29-2.61c0-.21.9-2.5,1.35-1.87a.1.1,0,0,0,.18,0c.1-.4-.16-.67-.54-.79-.7-.22-1.31.32-1.72.83-1.17,1.44-1,3.69-.36,5.31.75,2.06,2.06,3.85,2.65,6a8.35,8.35,0,0,1,.34,2.94A8.05,8.05,0,0,1,54.27,18a5.41,5.41,0,0,0-.19.77c0,.11-.1.59,0,.4h0s0,.06-.06.12a.47.47,0,0,0,.22.54c1.44.77,2.16-2,2.24-2.89A10.91,10.91,0,0,0,55.5,11.78Z"/><path class="cls-1" d="M71.53,19.24C70,18.76,70.45,16,70.45,14.79c0-1.61,0-3.21.14-4.82s.24-3.2.41-4.8c.09-.85.14-1.71.22-2.57,0-.43,0-1.94.34-2.12a.13.13,0,0,0,0-.19.61.61,0,0,0-1-.12c-.76.51-.8,1.6-1,2.41a53.44,53.44,0,0,0-1,7,42.8,42.8,0,0,0-.3,7c.13,1.72,1.08,3.49,3.07,3.24A.29.29,0,0,0,71.53,19.24Z"/><path class="cls-1" d="M88.33,2.86a2.92,2.92,0,0,0-3.94-.44c-.11.08,0,.21.11.2a3.2,3.2,0,0,1,2.86.71,3.8,3.8,0,0,1,1,2.35c.16,2.06-1.08,4-1.84,5.79a21.36,21.36,0,0,0-1.52,6c-.15,1.55.75,3.51,2.59,3.13a.26.26,0,0,0,.11-.42c-.79-.76-.53-2.13-.39-3.08A27.55,27.55,0,0,1,88,13.73a40,40,0,0,0,1.71-6.21A5.65,5.65,0,0,0,88.33,2.86Z"/><path class="cls-1" d="M116.91,9.62c-1.38-1.57-4-1.14-5.68-.34A9.19,9.19,0,0,0,107,14a6.24,6.24,0,0,1-2,2.72,11.75,11.75,0,0,1-2.83,1.37l-3.65,1.33a8.53,8.53,0,0,0-3.26,1.65.74.74,0,0,0,.32,1.23c1,.35,2.27-.24,3.16-.58l3.58-1.34a12.24,12.24,0,0,0,5-2.89c1.39-1.55,1.73-3.72,3.19-5.24a6.18,6.18,0,0,1,2.69-1.71,10.21,10.21,0,0,1,2.87-.18h0a.12.12,0,0,0,.08.2.83.83,0,0,0,.8-.43A.42.42,0,0,0,116.91,9.62Z"/><path class="cls-1" d="M129.49,25.11v0a3.83,3.83,0,0,0-1.73,1.2,21.36,21.36,0,0,1-2,1.65,26,26,0,0,1-4.25,2.53,32.26,32.26,0,0,1-9.36,2.63.36.36,0,0,0-.22.54c1,1.7,3.3,1.41,4.89,1a24.37,24.37,0,0,0,5.29-2,27.89,27.89,0,0,0,4.56-3.05,26.89,26.89,0,0,0,2.08-1.91,3.6,3.6,0,0,0,1.36-2.12A.46.46,0,0,0,129.49,25.11Z"/><path class="cls-1" d="M17.2,53.11c-.62.39-1.24.75-1.89,1.1a4.4,4.4,0,0,1-2.09.75,8.89,8.89,0,0,1-2.43-.8,12.21,12.21,0,0,0-2.67-.63,9.25,9.25,0,0,0-4.74.6,7.62,7.62,0,0,0-1.89,1.14c-.18.15-1,1.2-1.22,1.11a.09.09,0,0,0-.1,0,.4.4,0,0,0-.17.38.42.42,0,0,0,.3.4c.61.23,1-.13,1.45-.51a6.32,6.32,0,0,1,2.38-1.34,8.79,8.79,0,0,1,5.59.35c1.6.6,3.08,1.72,4.88,1.12,1.56-.51,2.37-2,3-3.42C17.62,53.18,17.36,53,17.2,53.11Z"/><path class="cls-1" d="M18.12,74.86c-1.24.16-2.49.14-3.73.31s-2.47.54-3.7.78c-2.55.47-5.13.78-7.68,1.19a.5.5,0,0,0-.36.36l-.15,0c-.13,0-.16.27,0,.3l.2.05a.51.51,0,0,0,.44.26A70.6,70.6,0,0,0,11,77.55a25.63,25.63,0,0,0,3.8-.68,29.24,29.24,0,0,0,3.47-1.57C18.44,75.2,18.35,74.83,18.12,74.86Z"/><path class="cls-1" d="M22.09,88.84a.26.26,0,0,0-.44-.18A5,5,0,0,0,20.28,90a15.91,15.91,0,0,0-.71,1.64c-.5,1.18-1,2.35-1.54,3.52s-1,2.32-1.46,3.49a8.16,8.16,0,0,0-1,3.39.14.14,0,0,0,.21.12,7.4,7.4,0,0,0,2-2.73c.66-1.14,1.31-2.28,1.88-3.46s1.11-2.31,1.64-3.46a14.43,14.43,0,0,0,.77-1.76A4.86,4.86,0,0,0,22.09,88.84Z"/><path class="cls-1" d="M41.34,104.38a7.49,7.49,0,0,1-.56-1.91,47.11,47.11,0,0,0-1.35-5.19,10.39,10.39,0,0,0-1.85-3.57A4.31,4.31,0,0,0,36,92.48c-.46-.19-1.41,0-1.66-.52a.26.26,0,0,0-.47.06c-.36,1.25,1.3,1.84,2,2.46,1.15,1,1.62,2.64,2.11,4,.62,1.72,1,3.49,1.56,5.23a4.48,4.48,0,0,0,.89,1.8c.4.39,1,.82,1.56.46a.26.26,0,0,0,.12-.29C42,105.19,41.57,104.83,41.34,104.38Z"/><path class="cls-1" d="M61.8,98c-.22-.91-.42-1.83-.64-2.75q-.63-2.67-1-5.4c-.22-1.6-.29-3.25-1.44-4.5a4,4,0,0,0-1.87-1.2,2.36,2.36,0,0,0-1-.06c-.31.1-.53.37-.82.5A.24.24,0,0,0,55,85c.28.13.38.41.62.59a9,9,0,0,0,.79.46,3.1,3.1,0,0,1,1.23,1.28c.63,1.33.62,3.06.89,4.5s.64,3.1,1.07,4.62c.22.77.49,1.51.77,2.26a7.5,7.5,0,0,0,1,2,.51.51,0,0,0,1-.26A11.7,11.7,0,0,0,61.8,98Z"/><path class="cls-1" d="M81.07,89c-.78-1.67-2.31-2.89-3.33-4.41a6,6,0,0,1-1-2.37,4.89,4.89,0,0,1,0-2.6c.13-.3-.17-.74-.51-.51a3.65,3.65,0,0,0-1.56,4.26c.51,1.93,1.87,3.39,3.14,4.87a10.15,10.15,0,0,1,1.75,2.38c.4,1-.53,2-1,2.77-1,1.54-1.82,3.69-1.37,5.51a.52.52,0,0,0,.94.13l.35-.63a.14.14,0,0,0-.11-.2,15.73,15.73,0,0,1,.49-1.91,10.26,10.26,0,0,1,1.49-2.56C81.43,92.19,81.89,90.71,81.07,89Z"/><path class="cls-1" d="M106,92.62a9.69,9.69,0,0,0-2.57-3.12,12.1,12.1,0,0,0-4.15-1.66A4.65,4.65,0,0,1,97.54,87c-.53-.43-1.17-.71-1.33-1.43-.07-.32-.51-.27-.6,0a3.09,3.09,0,0,0-.06,1.9,3.13,3.13,0,0,0,1.58,1.66c1.4.75,3.05.75,4.44,1.48a6.89,6.89,0,0,1,2.62,2.68c.36.61.64,1.25,1,1.87a5.71,5.71,0,0,0,1.1,1.74.56.56,0,0,0,.94-.39C107.34,95.21,106.56,93.74,106,92.62Z"/><path class="cls-1" d="M135.55,75.72c-1.56-.22-3.27.61-4.84.73a28.11,28.11,0,0,1-5.19,0c-1.77-.2-3.53-.52-5.27-.87s-3.7-1.12-5.47-.79a.22.22,0,0,0-.25-.09,1.18,1.18,0,0,0-.71.52.64.64,0,0,0,.1.78c1.43,1.54,4.08,1.72,6,2.14a39.16,39.16,0,0,0,5.91.86,17.47,17.47,0,0,0,5.63-.42c1.45-.4,3.58-1.05,4.19-2.58A.2.2,0,0,0,135.55,75.72Z"/><path class="cls-1" d="M139.71,59.53a3.82,3.82,0,0,0-1.81,0c-.61.1-1.23.23-1.84.35a20.93,20.93,0,0,1-4,.48A19,19,0,0,1,125.48,59c-.3-.12-.58.28-.41.54,1.43,2.29,4.16,3,6.74,2.91a18.9,18.9,0,0,0,4.35-.7A17.52,17.52,0,0,0,138.3,61a3.65,3.65,0,0,0,1.59-1A.3.3,0,0,0,139.71,59.53Z"/><path class="cls-1" d="M136.56,39.85a28.7,28.7,0,0,0-5.68,2.28c-1.85.87-3.64,1.88-5.4,2.92-.55.33-1.84,1.05-1.77,1.84s1.32.27,1.71.11a27.7,27.7,0,0,0,2.65-1.5c.89-.5,1.8-1,2.7-1.47s2.07-1.13,3.12-1.66A26.5,26.5,0,0,0,137,40.71.49.49,0,0,0,136.56,39.85Z"/><path class="cls-2" d="M140.84,45.5c-1.58.58-3.27.8-4.83,1.45s-3.08,1.39-4.69,1.94c-1.34.45-2.7.84-4.06,1.21a41.12,41.12,0,0,0-2.72-8.89c.66-.16,1.3-.36,1.9-.57a19.09,19.09,0,0,0,5.86-3.27,6.66,6.66,0,0,0,2-2.41,9.29,9.29,0,0,0,.43-3.06c0-.39-.5-.47-.69-.19a9.13,9.13,0,0,1-2,1.75c-.66.56-1.24,1.22-1.92,1.76a22,22,0,0,1-4.62,2.58c-.65.29-1.39.6-2.18.87a46.93,46.93,0,0,0-5.15-8A41.14,41.14,0,0,0,112,24.4l1.1-.77A19.87,19.87,0,0,1,124.43,20a.3.3,0,0,0,.21-.5c-3.54-2.9-8.18-1.17-11.61,1-1.11.71-2.17,1.49-3.23,2.28a48,48,0,0,0-15.91-7.17,16,16,0,0,1,1.71-2.72,19.38,19.38,0,0,1,3.77-3.58c.69-.51,1.43-.95,2.13-1.45s1.36-1.24,2.17-1.75a.4.4,0,0,0-.2-.74,10.73,10.73,0,0,0-3.1.1,9.71,9.71,0,0,0-2.74,1.3,17.23,17.23,0,0,0-4.57,4.44,18.18,18.18,0,0,0-2.12,3.72,76.1,76.1,0,0,0-14-1.43c.17-1.09.29-2.19.38-3.26a30.45,30.45,0,0,0,0-5.23c-.15-1.64-.27-3.38-1.51-4.57a.37.37,0,0,0-.58.08,4.3,4.3,0,0,0-.39,2.07c0,.87.12,1.73.17,2.6A46.56,46.56,0,0,1,75.1,10a32.88,32.88,0,0,1-.37,3.44,110.54,110.54,0,0,0-13,.92,17.65,17.65,0,0,1-.39-2.72,15.68,15.68,0,0,1,.42-4.78,20.11,20.11,0,0,1,.79-2.38A14.34,14.34,0,0,0,63.1,2c.07-.38-.33-.8-.71-.54a5.67,5.67,0,0,0-2.12,2.09,14.38,14.38,0,0,0-1.06,3.08A17.35,17.35,0,0,0,58.87,13c.09.59.21,1.18.35,1.76-3.23.47-6.52,1-9.77,1.8-.33-.58-.68-1.16-1.05-1.72a29.49,29.49,0,0,0-4-4.86c-1.47-1.44-3.13-2.92-5.34-2.81-.24,0-.52.27-.41.54a9.39,9.39,0,0,0,1.39,2.2,20.21,20.21,0,0,0,2.21,2A26.34,26.34,0,0,1,46,16.37c.2.3.36.61.54.91a48.49,48.49,0,0,0-15.76,7.17c-.45.33-.88.67-1.31,1-.15-.14-.31-.26-.45-.4A9.81,9.81,0,0,1,26.45,21c-.26-.82-.38-1.67-.56-2.5a11.75,11.75,0,0,1-.46-2.42.38.38,0,0,0-.7-.19,6.77,6.77,0,0,0-1.24,2.61,6.56,6.56,0,0,0,.3,3,12.72,12.72,0,0,0,3.1,5.13c.19.19.4.35.6.53a53.24,53.24,0,0,0-9,10.66l-.35.57a19.6,19.6,0,0,0-2,0A19,19,0,0,0,6.7,41.7c-1.2.83-3.1,2.16-3.21,3.76a.92.92,0,0,0,.66,1.08c.84.2,1.56-.44,2.18-.89A22.3,22.3,0,0,1,15,41.48c.53-.12,1.07-.2,1.6-.27a58.49,58.49,0,0,0-5.89,19.12c-.55.45-1.1.92-1.67,1.36L5,64.88,3.08,66.34c-.3.24-.59.49-.89.72s-.37.24-.54.4a.58.58,0,0,0-.17.18c-.05.15-.11.16-.18,0a.53.53,0,0,0-.37.9c1.58,2,3.7.24,5.18-.92s2.81-2.29,4.19-3.47a40.43,40.43,0,0,0,2.88,18.68,18.3,18.3,0,0,1-2,1.4,29.68,29.68,0,0,1-4.47,2.16,14,14,0,0,1-2.53.86c-.81.16-1.62.47-2.45.56-.24,0-.52.26-.41.54,1,2.48,3.9,1.89,5.88,1.15a26.7,26.7,0,0,0,5.92-3.15c.45-.32.89-.65,1.31-1a23.12,23.12,0,0,0,8.94,8.88c0,1.1.16,2.21.29,3.29a26.12,26.12,0,0,0,.8,4.73,9.1,9.1,0,0,0,2.13,4,.43.43,0,0,0,.71-.19,11.82,11.82,0,0,0-.12-4.23c-.2-1.59-.59-3.14-.82-4.73-.08-.54-.12-1.07-.17-1.61,5.95,2.18,12.05.78,17.57-2.38.87-.5,1.73-1,2.59-1.52a19,19,0,0,1,2,3.94A10.75,10.75,0,0,1,49,99.87c-.09,1.33-.77,2.77-.42,4.08a.51.51,0,0,0,.62.35c1.62-.36,2.16-2.47,2.29-3.91a12.09,12.09,0,0,0-.69-5,16.89,16.89,0,0,0-2.57-4.57l-.12-.16c1.84-1.12,3.67-2.23,5.55-3.27.26-.14.53-.27.78-.43,1.11-.59,2.23-1.17,3.38-1.69l.32-.13-.27.1.83-.33c.56-.22,1.12-.42,1.69-.62s1.43-.49,2.15-.7l.17.24c.45.65.9,1.3,1.31,2a23.2,23.2,0,0,1,2.18,4.48,20.83,20.83,0,0,1,1.12,4.66c.09.81.18,1.62.28,2.43a6.85,6.85,0,0,0,.9,2.29.47.47,0,0,0,.79,0,4.65,4.65,0,0,0,1.08-2.76,14.13,14.13,0,0,0-.23-2.9,23.73,23.73,0,0,0-1.89-5.8A18.54,18.54,0,0,0,65,83.32c-.1-.09-.2-.2-.31-.32h0c.57-.14,1.15-.27,1.73-.39l.87-.16.65-.12.19,0,.88-.09c.79-.06,1.58-.1,2.37-.11a34.85,34.85,0,0,1,3.82.15l1,.13c.61.1,1.22.19,1.83.31,1.52.28,3,.62,4.53,1A13.1,13.1,0,0,1,84,85.71c1.35,2.47,2.06,5.23,3.14,7.82s2.72,4.5,5.58,4.57,5.2-1.86,7-3.71c.24-.24,0-.77-.36-.62a16,16,0,0,1-3.6.94,16.43,16.43,0,0,1-1.85.13,6.11,6.11,0,0,1-1.76,0c-1-.24-1.52-1.26-1.94-2.11-.57-1.17-1.1-2.36-1.62-3.54a34.91,34.91,0,0,0-2.43-4.71c5.36,1.22,11,2.38,16.51,1.72h0A21.36,21.36,0,0,0,107,89.61a15.09,15.09,0,0,0,8,2.32c5.15,0,10.48-3,11.79-8.26a.35.35,0,0,0-.58-.33c-3.1,2.83-7.27,5.11-11.56,5.32A12.16,12.16,0,0,1,108,87,19.14,19.14,0,0,1,106,85.63,26.72,26.72,0,0,0,118.58,79a28.86,28.86,0,0,0,6.2-8.53,13.86,13.86,0,0,1,1.65-.35,12.64,12.64,0,0,1,3.42,0c1.18.16,2.3.68,3.48.81A1.45,1.45,0,0,0,135,69.91a1.71,1.71,0,0,0-1.13-1.74,10.66,10.66,0,0,0-3.77-1,14.74,14.74,0,0,0-4,.17c.26-.76.5-1.51.7-2.28a33.81,33.81,0,0,0,.91-11.73c.87-.13,1.72-.31,2.51-.47a29.2,29.2,0,0,0,6.15-2.17c2.15-1,3.45-2.72,4.89-4.51C141.49,45.92,141.28,45.33,140.84,45.5Z"/><path class="cls-2" d="M58.16,85.12c.46-.18.25-.11,0,0Z"/><path class="cls-3" d="M114.22,66.79c-4.12-1.5-8.59-1.39-12.91-1.15a60.09,60.09,0,0,1-6.29.14c-.48,0-1-.06-1.42-.11-.18,0-.91-.1-1.06-.12q-1.52-.22-3-.51A73.08,73.08,0,0,0,75.77,63.3a47.39,47.39,0,0,0-13.59,2,119.48,119.48,0,0,0-12.11,4.86l-.49.21-.17.07-1.23.5c-1,.37-1.92.73-2.9,1.06-1.75.58-3.55.86-5.33,1.32l-.23,0c-.4,0-.81.06-1.21.08-.81,0-1.62,0-2.43,0l-.87-.09-.55-.1a20.51,20.51,0,0,1-2.3-.61l-.47-.17a.91.91,0,0,0-.22-.06l-.42-.25c-.34-.18-.67-.37-1-.57-.14-.09-.27-.19-.41-.27-.63-.38.09.19.21.19-.45,0-1.35-1.26-1.66-1.59l0,0c-.24-.41-.49-.81-.73-1.23,0,0,0,0,0-.06s-.26-.67-.27-.68A13.26,13.26,0,0,1,27,66.47c-.06-.25-.1-.5-.15-.76,0-.56-.09-1.12-.1-1.69a47.45,47.45,0,0,1,.39-6.52c.07-.64.14-1.27.22-1.91l.09-.72c-.11.9,0-.18,0-.35.17-1.19.36-2.38.56-3.57.43-2.53.94-5,1.51-7.55a4.94,4.94,0,0,0-9-3.8,44.26,44.26,0,0,0-5.4,22.3c0,1.33.15,2.66.3,4,0,.19,0,.43,0,.76,0,.57,0,1.15,0,1.72,0,.28,0,.57,0,.86a8.84,8.84,0,0,0,.1,1.06c.08.81.21,1.62.3,2.43-.13-1.12.21,1.41.27,1.73A25.87,25.87,0,0,0,17,78a30.34,30.34,0,0,0,2.94,6.58A15.34,15.34,0,0,0,25.26,90c2.88,1.55,5.76,1.6,8.92,1.11C43.46,89.66,49,85,57,80.92c6.93-3.54,15.67-5.89,23.42-4.16,8.61,1.93,15.29,6,24.49,5a18.63,18.63,0,0,0,8-2.3,10,10,0,0,0,4.94-7.93C118.08,69.3,116.14,67.48,114.22,66.79Z"/><path class="cls-3" d="M57.85,79.3c-.2.1-.36.18.16-.07h0Z"/><path class="cls-1" d="M43.34,77.62a5.8,5.8,0,0,0-4,.16c-.45.18-.9.37-1.34.57l-.17.08-.61.16c-.86.26-1.73.48-2.61.67l-1.16.23-.71.12a21.62,21.62,0,0,1-2.67,0l-.76,0c-.37-.22-.71-.5-1.08-.72l-.18-.1-.1-.11c-.51-.57-1.06-1.11-1.57-1.68a3.82,3.82,0,0,1-.47-.62c-.21-.3-.4-.6-.59-.91A20.57,20.57,0,0,1,24,73a32.94,32.94,0,0,1-2-5.61,47,47,0,0,1-1.09-6.12c-.1-1-.18-2-.23-3a6.2,6.2,0,0,0-.35-2.62.54.54,0,0,0-.94,0,6.4,6.4,0,0,0-.54,3.08c-.07,1.25-.11,2.5-.1,3.75,0,2.34.21,4.64.36,7s.5,4.53.77,6.8a20.63,20.63,0,0,0,1.41,6.26,11.49,11.49,0,0,0,4.32,5.06,11.12,11.12,0,0,0,3.62,1.7,13.08,13.08,0,0,0,3.85.17c4.78-.43,13.16-1.64,13.26-7.85A4.17,4.17,0,0,0,43.34,77.62Z"/><path class="cls-1" d="M56.77,74.4l-.45,0c-.29-.22-.29-.23,0,0l-.4-.32a2.79,2.79,0,0,0-2-.29,7.12,7.12,0,0,0-1.91.84c-.44.26-.88.51-1.3.8a4.47,4.47,0,0,0-.77.66c-.16.17-.34.33-.51.49a1,1,0,0,0-.26,1,1.07,1.07,0,0,0,.7.7l.38.15c.05,0,.3.14.23.09a1.64,1.64,0,0,0,.81.22l.38.05a6.36,6.36,0,0,0,1.57-.07,4.49,4.49,0,0,0,1.28-.27,9.53,9.53,0,0,0,1.13-.51,2.6,2.6,0,0,0,1.15-1.58,2,2,0,0,0,0-.88h0l0,.19a.93.93,0,0,0,0-.22,3.67,3.67,0,0,0,.27-.38A.45.45,0,0,0,56.77,74.4Z"/><path class="cls-1" d="M112.74,73.06a3.27,3.27,0,0,0-3-.68c-.43.09-.86.16-1.29.22l-.34.05-.65.07c-1.81.13-3.65-.16-5.37.55-.37.15-.73.64-.42,1A5.11,5.11,0,0,0,104.17,76a10,10,0,0,0,3.24.3,15.63,15.63,0,0,0,3.26-.4,2.9,2.9,0,0,0,1.81-1.18,3.27,3.27,0,0,0,.28-.64,2.31,2.31,0,0,0,.19-.52A.5.5,0,0,0,112.74,73.06Z"/><path class="cls-4" d="M82.7,20.74h-.23a0,0,0,0,0,0,.08h.23a0,0,0,1,0,0-.08Z"/><path class="cls-5" d="M121.09,39.33a38,38,0,0,0-12.23-12.75,43,43,0,0,0-9.41-4.74,22.57,22.57,0,0,0-5.9-1.35,7.81,7.81,0,0,0-5.41,1.66,14.53,14.53,0,0,0-1.65,1.12.19.19,0,0,0,0,.28c.42.49.72,1,1.11,1.39a9,9,0,0,0,3,3.3,13.5,13.5,0,0,0,1.93,1c.63.3,1.26.58,1.91.85,0,0,.94.41.76.32a58.75,58.75,0,0,1,7.74,4.06c.54.35,1.07.71,1.59,1.09.25.17.49.35.73.53l.11.09c1.07.92,2.14,1.83,3.13,2.84.45.45.89.92,1.31,1.4.16.19.33.38.49.58a4.34,4.34,0,0,0,.37.35l-.2-.16a12.54,12.54,0,0,1,2.26,3.49,11.17,11.17,0,0,1,.76,1.46c-.21-.52-.66-1.13.37.92.17.34.35.65.55,1a6,6,0,0,0,2.28,2.45,4.35,4.35,0,0,0,4.79-.24C125.06,47.46,122.87,42.51,121.09,39.33Z"/><path class="cls-6" d="M116.16,38.22A16.58,16.58,0,0,0,115,35.51a15.78,15.78,0,0,0-3.51-4.45A27.52,27.52,0,0,0,107,27.75a13.46,13.46,0,0,0-5.79-2.18c-.57,0-.78.7-.44,1.07,1.3,1.42,3.1,2.24,4.64,3.38a19.87,19.87,0,0,1,3.52,3.46c1,1.21,1.8,2.53,2.74,3.85.48.69.89,1.4,1.32,2.11a2.56,2.56,0,0,0,1.11,1.05,1.07,1.07,0,0,0,.51.17c.22,0,.25,0,.09,0a4.49,4.49,0,0,1,.39.36.37.37,0,0,0,.62-.16c0-.18,0-.37.1-.55s0-.14,0,0L116,40A2.31,2.31,0,0,0,116.16,38.22Z"/><path class="cls-7" d="M59.16,40.48a5.69,5.69,0,0,0-2.29-1.83q-4-2.31-8-4.67c-1.43-.85-2.84-1.73-4.28-2.56-1.27-.73-2.68-1.5-4.19-1.13a.45.45,0,0,0-.2.75c.95.87,2,1.6,3,2.47,1.14,1.05,2.29,2.09,3.48,3.08a81.92,81.92,0,0,0,7.49,5.64c1.39.93,3.33,2.29,4.83.77A2,2,0,0,0,59.16,40.48Z"/><path class="cls-7" d="M90.86,25.11a1.11,1.11,0,0,0-.45-.61,1.26,1.26,0,0,0-.31-.13c.11,0,.22.05-.13-.05a2.9,2.9,0,0,0-2.55.58A29.36,29.36,0,0,0,84,28C83,29,82,30,81,31c-1.15,1.13-2.26,2.27-3.29,3.5a20.05,20.05,0,0,0-2.83,4c-.23.49.17,1.31.81,1.05a20.57,20.57,0,0,0,3.6-2.09,29.85,29.85,0,0,0,3.45-2.69q3.23-2.85,6.35-5.8C90.11,28,91.45,26.67,90.86,25.11Z"/><path class="cls-7" d="M55.13,49.08c-.13-.72-.24-1.44-.36-2.15-.06-.35-.1-.71-.17-1a2.42,2.42,0,0,0-3-1.67,2.71,2.71,0,0,0-1.85,1.85c-.64,2.33,1.63,10.33,5.06,7.18a2.41,2.41,0,0,0,.65-1.57A9.9,9.9,0,0,0,55.13,49.08Z"/><path class="cls-7" d="M85.4,43.8c-.13-.71-.24-1.43-.36-2.15-.06-.34-.1-.7-.17-1a2.42,2.42,0,0,0-3-1.67c-3.92,1.21-1.29,10.74,2.22,9.6a2.61,2.61,0,0,0,1-.57,2.38,2.38,0,0,0,.66-1.58A10,10,0,0,0,85.4,43.8Z"/><path class="cls-7" d="M87.29,56.16c-3.54-3.32-8.5-4.41-13.23-4a39.79,39.79,0,0,0-13.92,3.64l-.36.19A29.27,29.27,0,0,0,53,58.9a11.51,11.51,0,0,0-5.22,5.75,7.06,7.06,0,0,0,2.76,8.08,8.75,8.75,0,0,0,7.61,1,15.48,15.48,0,0,0,1.6-.61l1.14-.49c1-.39,2-.74,3.05-1s1.86-.47,2.8-.64l.74-.13c.56-.05,1.12-.12,1.69-.16q1.44-.09,2.88-.06c.51,0,1,0,1.54.08l.66.06.24,0c1.92.33,3.79.94,5.71,1.23,3,.46,5.93.09,8.25-2.08C92.48,66.12,90.89,59.55,87.29,56.16Z"/><path class="cls-8" d="M87.29,56.16c-3.54-3.32-8.5-4.41-13.23-4a39.79,39.79,0,0,0-13.92,3.64l-.36.19A29.27,29.27,0,0,0,53,58.9a14.94,14.94,0,0,0-3.09,2.4c.84.81,1.67,1.61,2.52,2.4s1.64,1.54,2.48,2.27a2.5,2.5,0,0,0,1.58.77c1.54,0,2.12-2.15,2.66-3.24.83-1.68,1.63-3.36,2.43-5l4.63,3.48a1,1,0,0,0,1.29-.34l2.32-3.42a19.9,19.9,0,0,0,6.82,4.49,1.09,1.09,0,0,0,1.22-.49l1.94-2.78a19.78,19.78,0,0,0,2.53,4.16,1.24,1.24,0,0,0,1.49.19l5.92-4.12A11.34,11.34,0,0,0,87.29,56.16Z"/><path class="cls-5" d="M37.18,37c-.06-.16-.11-.33-.18-.49a2,2,0,0,0-.46-.59l-.7-.68c-.44-.45-.88-.92-1.3-1.39a8.18,8.18,0,0,0-.63-.68l-.71-.66c-.27-.27-.61-.58-1-.47s-.65.6-.4.92v0l.17.19h0s.06.11.09.17l.39.74a11.91,11.91,0,0,0,1.08,1.48q.51.64,1.05,1.26c.19.22.37.43.56.63a1.65,1.65,0,0,0,.65.46l.37.12A.85.85,0,0,0,37.18,37Z"/><path class="cls-5" d="M40.43,49.94a.42.42,0,0,0-.37-.21c-.32,0-.52.23-.76.42a4.76,4.76,0,0,0-.62.57,14.46,14.46,0,0,0-1.17,1.42c-.3.48-.62.94-.91,1.43a5.36,5.36,0,0,0-.42,1,1.46,1.46,0,0,0-.08.59.81.81,0,0,1,0,.16.61.61,0,0,1,0-.18.75.75,0,0,0,.44,1.09c1.5.24,2.25-1.56,2.83-2.63a14.27,14.27,0,0,0,.76-1.8,5.06,5.06,0,0,0,.23-.87A1.41,1.41,0,0,0,40.43,49.94Z"/><path class="cls-5" d="M62,22.16a4,4,0,0,0-.09-.85,1,1,0,0,0-.46-.53v0a.14.14,0,0,0-.26,0v0c-.41.14-.51.71-.58,1.09l-.27,1.63a16.72,16.72,0,0,0-.28,1.7,6.71,6.71,0,0,0,.28,1.6.27.27,0,0,0,.45.12c.15-.2.32-.38.47-.57a2.38,2.38,0,0,0,.49-.86A7.5,7.5,0,0,0,62,23.77,12.36,12.36,0,0,0,62,22.16Z"/><path class="cls-5" d="M71.7,44.62a.29.29,0,0,0-.47-.12l-.08,0h-.08L71,44.4c-.17-.19-.36-.37-.53-.55-.41-.44-.85-.87-1.27-1.3s-.81-.86-1.21-1.29a8,8,0,0,0-.7-.61L67,40.37a1.35,1.35,0,0,0-.44-.15.24.24,0,0,0-.3.23,1.07,1.07,0,0,0,0,.53l.24.51a5.44,5.44,0,0,0,.57.95c.47.63,1,1.24,1.45,1.84.24.29.49.57.75.83a2.44,2.44,0,0,0,1,.69,1.45,1.45,0,0,0,1.1-.1A1,1,0,0,0,71.7,44.62Z"/><path class="cls-5" d="M102.06,48.12a4.35,4.35,0,0,0-1.68-.66,8.79,8.79,0,0,0-1.7-.06L97,47.51a5.07,5.07,0,0,0-.56.05c-.11,0-.21.07-.32.09H96l-.14,0a.19.19,0,0,0-.13,0l0,0h0a.49.49,0,0,0-.36.54,1.06,1.06,0,0,0,.53.66,5.06,5.06,0,0,0,2.13.31l1,.07a7,7,0,0,0,1,0,4.3,4.3,0,0,0,1.14-.26,4.53,4.53,0,0,0,.91-.45A.21.21,0,0,0,102.06,48.12Z"/><path class="cls-5" d="M113.4,55.88a1.57,1.57,0,0,0-.05-.37c0-.08-.08-.13-.11-.2s0,0,0-.1a.14.14,0,0,0-.25-.07c0,.1-.09.07-.19.14a1.48,1.48,0,0,0-.26.24,5.76,5.76,0,0,0-.53.57l-.1.14,0,0-.22.26c-.2.23-.38.47-.56.72l-.06.06s0,0,0,.07h0l-.23.27a4.6,4.6,0,0,0-.56.68,2.92,2.92,0,0,0-.38.72,1.92,1.92,0,0,0-.09.63A.35.35,0,0,0,110,60a1.82,1.82,0,0,0,1.57-.32,4.73,4.73,0,0,0,1.22-1.41,4.37,4.37,0,0,0,.59-1.51A2.76,2.76,0,0,0,113.4,55.88Z"/><path class="cls-5" d="M111,57.36l0-.07s0,0,0,.07Z"/><path class="cls-5" d="M37.56,67.79a3.29,3.29,0,0,0-.49-.42L37,67.3l-.06,0-.07,0-.13-.11c-.28-.24-.54-.5-.8-.76s-.59-.55-.86-.85c-.12-.15-.88-.78-1.07-.5a.78.78,0,0,0-.08.65,1.88,1.88,0,0,0,.18.6c.19.32.39.63.61.93a6,6,0,0,0,.85.89c.12.12.26.23.39.34a2.75,2.75,0,0,0,.64.45c.39.17.87.41,1.25.13a.55.55,0,0,0,.19-.6A1.55,1.55,0,0,0,37.56,67.79Z"/></g></g></svg>