<svg xmlns="http://www.w3.org/2000/svg" viewBox="0 0 107.17 113.54"><defs><style>.cls-1{fill:#87bdad;}.cls-2{fill:#739f92;}.cls-3{fill:#b7d7d7;}.cls-4{fill:#e2eff0;}.cls-5{fill:#5b7e74;}.cls-6{fill:#3a524b;}</style></defs><g id="Lager_2" data-name="Lager 2"><g id="OBJECTS"><path class="cls-1" d="M42.89,77.29c-1.51-2.34-3.27-4.46-4.59-6.94-.32-.61-.59-1.24-.91-1.85l0-.06c-.12-.29-.24-.59-.35-.9a32.73,32.73,0,0,1-1.25-4.24c-.16-.68-.29-1.38-.41-2.07,0-.23-.17-1.11-.17-1.13-.24-1.76-.44-3.53-.7-5.29a30.29,30.29,0,0,0-2.62-8.93c-2.67-5.58-8.38-10-14.73-9.85-6.17.11-11.87,4.1-14.67,9.52C-.72,51.73-.24,58.52.71,65.18A76.45,76.45,0,0,0,5.29,83.54c.22.6.45,1.2.67,1.79,2,5.19,4.57,10.47,8.73,14.27s9.61,6.26,15.19,5.81a20,20,0,0,0,4.34-.77c.28-.09,1.38-.53,1.89-.73,0,0,1.46-.62,1.32-.55a9.24,9.24,0,0,0,1.06-.7,16.89,16.89,0,0,0,6-7A18.86,18.86,0,0,0,42.89,77.29Z"/><path class="cls-1" d="M36.28,103.84l-.17.07Z"/><path class="cls-1" d="M80.11,14.53A19.2,19.2,0,0,0,71,2.35a19.26,19.26,0,0,0-16-1.12,21.39,21.39,0,0,0-11.3,10.85,51.35,51.35,0,0,0-4.88,28.19,54,54,0,0,0,1.6,8.33C41.63,58.81,44.52,70,53,76.2c5.74,4.18,14.16,2.81,17.72-3.51,3-5.29,2.35-12.31,1-18-.32-1.35-.89-2.65-1.21-4,0-.15-.15-.88-.18-1-.09-.72-.17-1.45-.21-2.17A13.52,13.52,0,0,1,71,40.88a.69.69,0,0,1,0-.08c.1-.22.2-.44.31-.66.26-.52.53-1,.82-1.53.58-1,1.21-2,1.85-3,1.24-1.88,2.56-3.72,3.62-5.71C80.2,25.13,81.38,19.9,80.11,14.53Z"/><path class="cls-1" d="M107,79.2a26.73,26.73,0,0,0-1.16-5.69,19,19,0,0,0-3.65-6.06A13.17,13.17,0,0,0,89.94,62.7c-4.49.84-7.59,4.79-9.09,8.87-.1.27-.2.54-.29.81-.46.63-.93,1.26-1.4,1.88l-.18.23-1.1,1.36c-.61.75-1.24,1.49-1.89,2.21a42,42,0,0,1-3.9,3.88l-.91.76-.21.16-2.48,1.7c-3,2-6.09,4-8.35,6.74-3,3.69-5,8.3-3.66,13.12,1.48,5.18,6.58,7.5,11.45,8.45,7.94,1.55,16.65.47,23.64-3.78a33.31,33.31,0,0,0,14.3-18.48A26.61,26.61,0,0,0,107,79.2Z"/><path class="cls-2" d="M67.69,62.15a4.73,4.73,0,0,0-5.16,1,6.15,6.15,0,0,0-1,1.22c.61-.77.46-.58-.43.57l-.09.13-.23.25-.22.21a4.34,4.34,0,0,1-.46.28l-.19.1-.09,0h-.37a5.24,5.24,0,0,1-.56,0,5.73,5.73,0,0,1-.69-.16l-.14,0a.15.15,0,0,1-.07,0,5.64,5.64,0,0,1-.53-.31l0,0a4.68,4.68,0,0,0-.5-.53,23.48,23.48,0,0,1-1.47-2.58,42.68,42.68,0,0,0-3-5.65c-2.49-3.49-3.66-8-4.88-12.08-.6-2-1-4.15-1.47-6.24-.38-1.91-.58-4.19-2-5.59a.31.31,0,0,0-.52.14c-.46,1.72-.13,3.59-.08,5.36q.09,3.07.33,6.15a80.23,80.23,0,0,0,1.7,12,15.91,15.91,0,0,1,.24,2.49,19.51,19.51,0,0,0,.64,3.49,40.06,40.06,0,0,0,2.34,6.27,12,12,0,0,0,10.41,7.16C64.42,76,70.18,72,70.6,66.47A4.69,4.69,0,0,0,67.69,62.15Z"/><path class="cls-2" d="M37.62,92.38c-1.07-1.39-3.32-2.46-5.09-1.74A9.93,9.93,0,0,0,30.09,92l-.28.16-.43.24-.8.27c-.17,0-.35.06-.51.11l-.14,0-.64,0-.35,0c-.38-.09-.76-.16-1.13-.28-.18-.06-.36-.14-.55-.19l-.18,0c-.29-.15-.6-.37-.73-.45q-.51-.3-1-.63L23.09,91c.15.13.15.17-.16-.09l0,0,0,0,0,0a21.06,21.06,0,0,1-1.85-1.81l-.42-.5-.17-.2-.16-.23-.5-.73c-1-1.6-1.93-3.28-2.82-5S15,79,14,77.24a22.11,22.11,0,0,1-1.27-2.34c-.4-1-.72-2.06-1-3.1C11.1,69.87,10.58,67.92,9.9,66a67.43,67.43,0,0,1-1.75-6.52c-.26-1-.62-2.08-1-3.09s-1-2-1.46-3.08a.49.49,0,0,0-.89.12,25.41,25.41,0,0,0-.72,2.92A21.17,21.17,0,0,0,4,59.83c.1,2.22.55,4.44.77,6.65a45.6,45.6,0,0,0,1.4,7.11c.27,1,.56,2.1.88,3.14s.39,2.31.64,3.45A39.54,39.54,0,0,0,12.33,93a20,20,0,0,0,10.85,9,15,15,0,0,0,7.69.28c2.53-.54,5.93-2.15,7.13-4.56A4.92,4.92,0,0,0,37.62,92.38Z"/><path class="cls-2" d="M23.09,91l-.18-.11h0Z"/><path class="cls-2" d="M101.4,83.9c-.38-2.47-3.66-3.19-5.46-1.87-2.5,1.11-3.65,3.68-5.2,5.91-.55.77-1.11,1.53-1.68,2.3l-.09.12-.38.48c-.35.43-.69.85-1,1.26a40.69,40.69,0,0,1-4.25,4.36c-.4.35-.81.69-1.23,1-.13.1-1.21.85-.27.21-.89.6-1.75,1.22-2.69,1.76s-1.73,1.07-2.65,1.52l-.94.45-.62.3-.63.27a3.88,3.88,0,0,0-.63.35c-.45.1-.89.27-1.34.36l-1,.19a7.1,7.1,0,0,0-.85.17,12.35,12.35,0,0,1-4.92.13A16.53,16.53,0,0,1,60.6,101c-.56-.35-1.12.32-.85.85,1.43,2.81,3.94,4.32,6.58,5.81a14.79,14.79,0,0,0,4.59,1.82,18.22,18.22,0,0,0,2.86.27l1.06,0h.52c-1.15,0,.7.1.87.1C84.05,110,90.87,103.7,95.47,98c1.47-1.81,2.88-3.68,4.2-5.6a15.48,15.48,0,0,0,2-3.55,8.08,8.08,0,0,0,.46-2.47A15.87,15.87,0,0,0,101.4,83.9Z"/><path class="cls-3" d="M79.64,15.41a10.15,10.15,0,0,0-4.25-6c.7.45-.78-.55-1-.71s-.17-.17-.51-.49a23.41,23.41,0,0,0-2.34-2C68.65,4.07,64.26,2,60.72,3.88a.59.59,0,0,0,.14,1.06,26.54,26.54,0,0,1,4.75,1.68,8.32,8.32,0,0,1,3.21,3.44c.23.38.44.76.65,1.14.11.2.22.39.31.59a.59.59,0,0,1,0,.08.87.87,0,0,0,0,.14,6.25,6.25,0,0,0,.16.62.33.33,0,0,0,0,.06c0,.42.07.83.12,1.25A24.32,24.32,0,0,0,71,17.28c.1.36.17.74.26,1.11s0,.45,0,.68c.15,1.52.5,3.34,1.69,4.44a4,4,0,0,0,5.61-.1C80.7,21.28,80.43,18.05,79.64,15.41Z"/><path class="cls-3" d="M28.94,54.79a4,4,0,0,0,.41-.6,5.65,5.65,0,0,0,.74-4.33,10.09,10.09,0,0,0-1.23-3.5,10.11,10.11,0,0,0-6.21-4.12,23.21,23.21,0,0,0-7-1.24c-1.8.09-5.06.65-5.52,2.78a.54.54,0,0,0,.51.67,9.27,9.27,0,0,0,2.52-.65,7.62,7.62,0,0,1,2.65-.19,9.48,9.48,0,0,1,5.15,2,5.19,5.19,0,0,1,1.41,1.68c0,.06.11.27.14.33a4.12,4.12,0,0,1,.13.47c.09.39.18.78.26,1.17A20.13,20.13,0,0,0,23.53,52a5.53,5.53,0,0,0,2,2.9,3.25,3.25,0,0,0,1.05.6,3.87,3.87,0,0,0,.41.4c.28.23.61.32.88.57a.62.62,0,0,0,1-.59A3,3,0,0,1,28.94,54.79Z"/><path class="cls-3" d="M103.21,72.15a34.14,34.14,0,0,0-4.8-3.91,10.24,10.24,0,0,0-5.36-2c-1.6-.14-4.16,0-5.3,1.24a.88.88,0,0,0,.38,1.46,11.24,11.24,0,0,0,2.32,0,7.61,7.61,0,0,1,2.07.29,8.53,8.53,0,0,1,3.7,2.09A16.27,16.27,0,0,1,99.09,75c.22.38.43.77.64,1.15l.19.4c0,.11.17.43.16.42a11.2,11.2,0,0,0,.55,1.5c.09.19.17.39.27.56l.39.5c.55.43.66.51.33.26a2.13,2.13,0,0,0,3.27-.42C106.49,77.21,104.78,73.87,103.21,72.15Z"/><path class="cls-4" d="M75.67,15a15.73,15.73,0,0,0-4.48-7.88,10.52,10.52,0,0,0-1.2-1,2.46,2.46,0,0,0-.68-.36c-.27-.08-.44,0-.7,0a.11.11,0,0,0-.11.15c0,.15,0,.3,0,.46a1.83,1.83,0,0,0,.28.6c.26.39.54.77.81,1.15A23.89,23.89,0,0,1,71,10.46,20.1,20.1,0,0,1,73,15.61c.1.47.14,1,.26,1.42a1.45,1.45,0,0,0,1.72,1.14C76.39,17.77,75.91,16,75.67,15Z"/><path class="cls-4" d="M27.45,48.85a14.39,14.39,0,0,0-.77-2.11,5.69,5.69,0,0,0-1.19-1.53,3.21,3.21,0,0,0-1.8-.84.7.7,0,0,0-.75.3.68.68,0,0,0,.1.81,5.73,5.73,0,0,1,.79,1.19c.06.12.11.24.17.35l.07.18c.09.26.17.53.26.8a17.72,17.72,0,0,1,.47,1.77,2.56,2.56,0,0,0,1.51,2.12,1.1,1.1,0,0,0,1.21-.49A3,3,0,0,0,27.45,48.85Z"/><path class="cls-4" d="M103.37,75.16a3.08,3.08,0,0,0-.12-.86,6.44,6.44,0,0,0-.64-1.32,4.08,4.08,0,0,0-1.07-1.23,5,5,0,0,0-.5-.29,1.2,1.2,0,0,0-1-.13h-.14a.53.53,0,0,0-.39.51l0,.12a.89.89,0,0,0,.08.6c0,.09.1.18.15.27l.13.27c0,.07.13.29,0,0a2.32,2.32,0,0,0,.16.36,9.81,9.81,0,0,1,.56,1c0,.14.11.28.15.43a5.77,5.77,0,0,0,.22.58c0,.09.07.19.11.28a1.32,1.32,0,0,0,.62.77,1.09,1.09,0,0,0,1.3-.17,1.28,1.28,0,0,0,.39-.88A2.62,2.62,0,0,0,103.37,75.16Z"/><path class="cls-1" d="M27.49,24.31a4.5,4.5,0,0,0-.71-1.38A7.45,7.45,0,0,0,26,22a4.13,4.13,0,0,0-1.73-1,3.55,3.55,0,0,0-1.83,0,2.66,2.66,0,0,0-1.17.62,2.54,2.54,0,0,0-.88,1A3.44,3.44,0,0,0,20,24.36a3.87,3.87,0,0,0,.69,2.33,4.75,4.75,0,0,0,1,1.27l.33.26a3.36,3.36,0,0,0,1.49.87l.16.05a3.13,3.13,0,0,0,1.82.05,4.09,4.09,0,0,0,.75-.31,3.08,3.08,0,0,0,1.09-1.09,3.28,3.28,0,0,0,.47-2A5.14,5.14,0,0,0,27.49,24.31Z"/><path class="cls-1" d="M33.88,22.89l-.12-.32a.58.58,0,0,0,0-.14,1.75,1.75,0,0,0-.39-.66l-.17-.21L33,21.35a.93.93,0,0,0-.94-.29,1.12,1.12,0,0,0-.62.51l-.14.25c0,.08-.09.16-.13.25a1.72,1.72,0,0,0-.2.59c0,.1,0,.2,0,.29a1.79,1.79,0,0,0,0,.89l0,.19c0,.1,0,.2.07.3a2.13,2.13,0,0,0,.52.8,1.31,1.31,0,0,0,1.13.37,1.35,1.35,0,0,0,1-.64,1.83,1.83,0,0,0,.26-.59,2.81,2.81,0,0,0,.06-.65A2,2,0,0,0,33.88,22.89Z"/><path class="cls-1" d="M56.93,85.8a4.69,4.69,0,0,0-.25-1.44,6.54,6.54,0,0,0-.61-1.28A3.72,3.72,0,0,0,55,81.87l-.24-.19a2.71,2.71,0,0,0-3-.23,2.64,2.64,0,0,0-1.15,1.34h0A4,4,0,0,0,50,84.72a5.22,5.22,0,0,0,0,1,4.34,4.34,0,0,0,.53,1.76,5.67,5.67,0,0,0,.63.83,2.55,2.55,0,0,0,.73.55,3,3,0,0,0,4.4-1.09,2.73,2.73,0,0,0,.42-.92A6.63,6.63,0,0,0,56.93,85.8Z"/><path class="cls-1" d="M50,104.85c0-.21,0-.42,0-.63s0-.41,0-.61a2.53,2.53,0,0,0-.17-.77.78.78,0,0,0-1.14-.47,2.87,2.87,0,0,0-.58.37,4.26,4.26,0,0,0-.49.63,4.07,4.07,0,0,0-.67,1.37,11.68,11.68,0,0,0-.22,1.18,2.12,2.12,0,0,0,0,1,2.68,2.68,0,0,0,.07.27,2.12,2.12,0,0,0,.48,1,1.32,1.32,0,0,0,1.85,0,2.29,2.29,0,0,0,.39-.65l.08-.24a3.94,3.94,0,0,0,.18-.48,7.74,7.74,0,0,0,.12-1.19A5,5,0,0,0,50,104.85Z"/><path class="cls-1" d="M84.17,51.24c-1.57-3-6.24-2.88-7.86,0a5.79,5.79,0,0,0-.77,3,7.07,7.07,0,0,0,.37,2.1,9.34,9.34,0,0,0,.81,1.72l.23.37A4.69,4.69,0,0,0,78.5,60l.88.37a2.73,2.73,0,0,0,1.47.07,3.61,3.61,0,0,0,2.1-1,5,5,0,0,0,.46-.55,4.38,4.38,0,0,0,.56-1l-.2.49A16.93,16.93,0,0,0,84.71,56a8.57,8.57,0,0,0,.23-1.89A5.93,5.93,0,0,0,84.17,51.24Z"/><path class="cls-1" d="M96,52.89a2,2,0,0,0-.5-.87,2,2,0,0,0-1.13-.54,1.93,1.93,0,0,0-1,.14,1.76,1.76,0,0,0-.94.8,4.17,4.17,0,0,0-.24.58,6,6,0,0,0-.08.61L92,54l0,.4a3.25,3.25,0,0,0,.07.81,4.13,4.13,0,0,0,.21.84,1.85,1.85,0,0,0,.78.9,1.54,1.54,0,0,0,1.22.19c.16-.07.34-.13.49-.21a2,2,0,0,0,.87-1.13c.08-.21.18-.42.25-.63A6.62,6.62,0,0,0,96,54.05,3.48,3.48,0,0,0,96,52.89Z"/><path class="cls-1" d="M11.72,28.43a2,2,0,0,0-.5-.87A2,2,0,0,0,10.09,27a1.93,1.93,0,0,0-1,.14,1.76,1.76,0,0,0-.94.8,4.17,4.17,0,0,0-.24.58,6,6,0,0,0-.08.61l0,.36,0,.4a3.25,3.25,0,0,0,.07.81,4,4,0,0,0,.21.84,1.85,1.85,0,0,0,.78.9,1.5,1.5,0,0,0,1.22.19,4.25,4.25,0,0,0,.49-.21,2,2,0,0,0,.87-1.13c.08-.21.18-.42.25-.63a5.6,5.6,0,0,0,.13-1.09A3.5,3.5,0,0,0,11.72,28.43Z"/><path class="cls-1" d="M88.87,36.39a3.45,3.45,0,0,0-.12-.43,1.55,1.55,0,0,0-.26-.55l.08.24a1.92,1.92,0,0,0-1.21-1.31l-.14-.06-.15-.13a.65.65,0,0,0-.79.11.94.94,0,0,1-.09.12l-.11.08-.08,0a1.79,1.79,0,0,0-.78,1c0-.05,0-.06,0,0a2.45,2.45,0,0,0-.24.58,3.27,3.27,0,0,0-.19.94,11.43,11.43,0,0,0,.12,2.41l-.06-.48A12.4,12.4,0,0,0,85,40.3a2.43,2.43,0,0,0,.2.63,1,1,0,0,0,.12.16s0,0,0,0,0,0,0,0h0a.72.72,0,0,0,.48.42c1.48.22,2.33-1.52,2.78-2.66a4.51,4.51,0,0,0,.27-1.22A3.2,3.2,0,0,0,88.87,36.39Z"/><path class="cls-5" d="M34.9,93.94a.59.59,0,0,0-.92-.12c-.32.27-.84.29-1.21.55a9.16,9.16,0,0,1-1,.64,29.28,29.28,0,0,1-2.92,1.44,8.24,8.24,0,0,1-6,.21A12.58,12.58,0,0,1,18,93.43a21.65,21.65,0,0,1-1.91-2.36c-.61-.83-1.09-1.87-2-2.34a.4.4,0,0,0-.59.34c-.14,1.25.73,2.56,1.32,3.6A15.63,15.63,0,0,0,17,95.59a13.31,13.31,0,0,0,6.18,3.91,11.45,11.45,0,0,0,7.59-.87,16.07,16.07,0,0,0,3.49-1.87A2.14,2.14,0,0,0,34.9,93.94Z"/><path class="cls-5" d="M65.61,65.84a17.39,17.39,0,0,0-2.41,1.65A14.15,14.15,0,0,1,60.4,69a5.26,5.26,0,0,1-5-1.3,16.78,16.78,0,0,1-3.53-5.26c-.53-1.07-1-2.17-1.44-3.29-.27-.71-.59-1.84-1.4-2.1a.08.08,0,0,0-.08,0c-.71.75-.17,2.3,0,3.17a41.37,41.37,0,0,0,1.25,4,15.85,15.85,0,0,0,4,6.49,8.37,8.37,0,0,0,7.22,2.07,11,11,0,0,0,4.19-1.67c1.22-.76,2.45-1.64,2.68-3.16A1.85,1.85,0,0,0,65.61,65.84Z"/><path class="cls-5" d="M97.72,92.78a5.12,5.12,0,0,0-.25-1.65,2.41,2.41,0,0,1-.12-1.08.44.44,0,0,0-.32-.42,3.85,3.85,0,0,0-2.34.54,6.5,6.5,0,0,0-2.5,2.49,21.53,21.53,0,0,1-4.49,4.83c-1.63,1.38-3.12,3-4.85,4.23A32,32,0,0,1,80,103.53a16.62,16.62,0,0,0-2.78,1.74.58.58,0,0,0,.25,1c2.14.33,4.55-.52,6.56-1.2a21.9,21.9,0,0,0,6.53-3A30.05,30.05,0,0,0,96,96.88a12.88,12.88,0,0,0,1.19-1.66A4.17,4.17,0,0,0,97.72,92.78Z"/><path class="cls-6" d="M66.52,12.12a.25.25,0,0,0-.28.37c.14.25-.94.63-1.09.72a15.94,15.94,0,0,1-1.76,1,9.08,9.08,0,0,1-3.68.91,5.38,5.38,0,0,1-5.05-3.34.53.53,0,0,0-1,.28c.65,3.11,3.89,4.88,6.9,4.76a10,10,0,0,0,5-1.66,3.17,3.17,0,0,0,1.58-1.8C67.24,12.83,67.1,12.21,66.52,12.12Z"/><path class="cls-6" d="M59.78,22.18c0-.53.11-1.06.13-1.59a2.61,2.61,0,0,0-.77-1.85l-.53-.41a1.8,1.8,0,0,0-1-.31,1.19,1.19,0,0,0-.7,0,1.8,1.8,0,0,0-1,.31,2.57,2.57,0,0,0-1.2,1.56c-.19.91-.28,1.84-.39,2.76-.05.34-.09.69-.13,1,0,.17,0,.34-.07.52a2.68,2.68,0,0,0,.06,1.22,2.84,2.84,0,0,0,.69,1.17l.54.42a2,2,0,0,0,1,.32,1.38,1.38,0,0,0,.7,0,1.41,1.41,0,0,0,.67-.19,2.53,2.53,0,0,0,1.28-1.09,3.47,3.47,0,0,0,.31-.71l.09-.71c0-.11,0-.21,0-.31l.05-.51.07-.67.09-.73C59.77,22.33,59.77,22.25,59.78,22.18Z"/><path class="cls-6" d="M20.49,46.68A1.63,1.63,0,0,0,19,45.83c-.27,0-.57.28-.45.59,0,0,0,0,0,0h0l-.09.09a2.89,2.89,0,0,0-.33.45c-.28.45-.53.9-.77,1.36s-.58,1.07-.89,1.59c-.16.26-.31.52-.48.77s-.16.25-.25.37l-.14.19,0,.05A7.45,7.45,0,0,1,15,52a7,7,0,0,1-.56.51l-.26.17c-.12.07-.24.14-.35.22a7.33,7.33,0,0,1-.73.39,1.4,1.4,0,0,1-.22.08l-.39.12a2.69,2.69,0,0,1-.64.11,5.2,5.2,0,0,1-1.52-.14.75.75,0,0,0-.73,1.24,4.78,4.78,0,0,0,4.26.92,7.23,7.23,0,0,0,3.94-2.4,18.34,18.34,0,0,0,2.61-4A2.66,2.66,0,0,0,20.49,46.68Z"/><path class="cls-6" d="M20.76,61v.07a5.52,5.52,0,0,0-.1-.71,2.94,2.94,0,0,0-.3-.68l-.06-.11c0-.06,0-.12,0-.17a7,7,0,0,0-.46-1.49v0h0c-.07-.16-.13-.33-.2-.49s-.21-.28-.32-.41a1.68,1.68,0,0,0-.66-.43,2,2,0,0,0-1.33-.1,2.53,2.53,0,0,0-.91.53,2,2,0,0,0-.6,1.44A11.5,11.5,0,0,0,16,59.7a6.06,6.06,0,0,0,.45,1.16v.07a4,4,0,0,0,.15.8,1.36,1.36,0,0,0,0,.17v0h0a2,2,0,0,0,.47.82,2,2,0,0,0,1.06.51A1.79,1.79,0,0,0,19.36,63l.38-.29v0a1.73,1.73,0,0,0,.3-.16,1.93,1.93,0,0,0,.65-.94A1.47,1.47,0,0,0,20.76,61Z"/><path class="cls-6" d="M100.09,77.65c-.17-.24-.18-.43-.49-.54a.25.25,0,0,0-.31.14,1.12,1.12,0,0,0-.27,0c-.32,0-.63,0-1,.07l-.69.15-.24,0-.47.06a5.94,5.94,0,0,1-.73,0l-.4,0h-.09a4.36,4.36,0,0,1-1.32-.42,4.71,4.71,0,0,1-1.87-1.81,12.88,12.88,0,0,1-.91-2.71.63.63,0,0,0-1.14-.15,4.21,4.21,0,0,0-.09,3.62,6.47,6.47,0,0,0,2.45,3.2,6.86,6.86,0,0,0,3.84,1.14,3.91,3.91,0,0,0,3.68-1.94A.84.84,0,0,0,100.09,77.65Z"/><path class="cls-6" d="M91.3,82.09a1.74,1.74,0,0,0-.27-.83,2.77,2.77,0,0,0-.8-.8,1.74,1.74,0,0,0-.83-.27,1.75,1.75,0,0,0-.88,0,9.34,9.34,0,0,0-1.15.55h0l-.71.29a2.16,2.16,0,0,0-.69.45l-.25.27a5.18,5.18,0,0,0-.74,1c-.2.39-.37.79-.53,1.19l-.08.58a1.69,1.69,0,0,0,.19.83,1.05,1.05,0,0,0,.28.48,1.57,1.57,0,0,0,.61.56,2.46,2.46,0,0,0,1.09.29,1.56,1.56,0,0,0,.83-.18,1.63,1.63,0,0,0,.7-.45L90.68,84l.35-.45a1.81,1.81,0,0,0,.27-.83A1.18,1.18,0,0,0,91.3,82.09Z"/><path class="cls-6" d="M66.35,30.14a1.24,1.24,0,0,0-1.15-.87c-1-.09-1.62.68-2.14,1.39l-.74,1,0,0A14.71,14.71,0,0,1,61,30.3a1.25,1.25,0,0,0-1.93.25l-1.68,2.22c-.09.11-.38.4-.6.66l-.26-.31q-.75-1-1.41-2.13a3.17,3.17,0,0,0-1.44-1.58,2.17,2.17,0,0,0-2,.48l-1.09.75L50,31l-.22.15c0-.2,0-.39,0-.59q-.06-.66-.15-1.32a13,13,0,0,0-.63-2.83.37.37,0,0,0-.73.1c0,1.13.07,2.26.05,3.4,0,.81-.38,2.06.12,2.77a1.44,1.44,0,0,0,2,.23c.49-.25,1-.55,1.43-.83a6.59,6.59,0,0,0,.86-.49l.29-.16c-.07-.14-.07-.15,0,0,.23.09.55,1,.68,1.17.25.43.52.85.8,1.26.51.75,1.09,1.82,2,2.09s1.62-.47,2.2-1.15,1-1.12,1.44-1.67c.91,1.12,2.11,2.29,3.43,1.54A8.2,8.2,0,0,0,65.2,32.9C65.88,32.15,66.72,31.24,66.35,30.14Z"/><path class="cls-6" d="M29.92,61.81a1.1,1.1,0,0,0-1.86.77c0-.1-.19.35-.22.42-.14.31-.28.61-.43.92s-.24.52-.37.78l0,.07-.38-.31a3.18,3.18,0,0,0-1.05-.54,1.83,1.83,0,0,0-1.94.77,3.11,3.11,0,0,0-.4,2c0,.49-.22.62-.72.61-1.29,0-2.6-1.43-3.87-.56a3.15,3.15,0,0,0-.93,1.89c-.12.42-.25.83-.34,1.24a2.37,2.37,0,0,0-.06.41L17,70.08l-.75-.44-1.76-1c-.49-.29-1.07.41-.62.8l2.06,1.8c.54.47,1.14,1.18,1.92,1.13s1.13-.84,1.42-1.54c.16-.4.31-.8.45-1.21.07-.22.14-.45.22-.68,0,0,0,0,0,0l.57.24a6.22,6.22,0,0,0,1.1.38,3.72,3.72,0,0,0,2.19-.1,2.8,2.8,0,0,0,1.54-1.31,2.89,2.89,0,0,0,.27-1.3v-.16a3.83,3.83,0,0,0,1.22.78,1.84,1.84,0,0,0,2.07-1c.43-.72.78-1.51,1.15-2.27A1.87,1.87,0,0,0,29.92,61.81Z"/><path class="cls-6" d="M89.76,91.72a7.61,7.61,0,0,0-2.69.52l-1.21.34-.14,0c0-.06,0-.13,0-.17.1-.45.21-.89.33-1.33a1.11,1.11,0,0,0-1.35-1.35,16.92,16.92,0,0,1-3.82.33,19.88,19.88,0,0,1,1-3,1,1,0,0,0-.58-1.42c-.81-.21-1.63-.37-2.46-.5a20.81,20.81,0,0,0,.95-3.06.53.53,0,0,0-1-.4,32.91,32.91,0,0,0-1.94,3.73.9.9,0,0,0,.53,1.31c.78.15,1.54.32,2.3.5a21.68,21.68,0,0,0-1.08,3.52,1,1,0,0,0,1,1.3,17.9,17.9,0,0,0,3.87,0c-.31,1.37-.34,2.86,1.32,3a13.6,13.6,0,0,0,2.53-.33,8.69,8.69,0,0,0,3-.69A1.27,1.27,0,0,0,89.76,91.72Z"/><path class="cls-3" d="M50.12,11.26a1.13,1.13,0,0,0-.48-.26,1.59,1.59,0,0,0-.75,0,2.66,2.66,0,0,0-.91.27,5.28,5.28,0,0,0-.86.6,6.25,6.25,0,0,0-.45.44,1.24,1.24,0,0,0-.18.22,1.42,1.42,0,0,0-.34.64.78.78,0,0,1,0,.14l-.06.14-.1.24-.06.42.06.41a1.13,1.13,0,0,0,.28.53.78.78,0,0,0,.28.29.87.87,0,0,0,.35.2.76.76,0,0,0,.39.1,1.18,1.18,0,0,0,.62,0l.6-.15a2.73,2.73,0,0,0,1-.65l.25-.23a4.08,4.08,0,0,0,.63-.89,3.09,3.09,0,0,0,.3-1.34A1.33,1.33,0,0,0,50.12,11.26Z"/><path class="cls-3" d="M67.11,45.61a.31.31,0,0,0,0-.1L67,45a1,1,0,0,0-.06-.35c-.07-.18-.15-.36-.22-.53l0-.06-.09-.14-.3-.39a1.44,1.44,0,0,0-.61-.4,1,1,0,0,0-.49-.13,1.51,1.51,0,0,0-.76,0,1.93,1.93,0,0,0-.82.29l-.17.12a3,3,0,0,0-1,1,6,6,0,0,0-.67,1.46,1.89,1.89,0,0,0,0,1,2,2,0,0,0,.3.94l.39.51a2,2,0,0,0,.81.52,1.3,1.3,0,0,0,.64.17,1.89,1.89,0,0,0,1,0l.6-.25a2.53,2.53,0,0,0,.91-.9,3.65,3.65,0,0,0,.35-.78c0-.08,0-.16.08-.24s.12-.31.17-.47l.09-.66Z"/><polygon class="cls-3" points="53.42 40.04 53.42 40.03 53.42 40.04 53.42 40.04"/><path class="cls-3" d="M53.47,40.21l0-.15v0a1.55,1.55,0,0,1,0,.26,1.18,1.18,0,0,0,0-.26v0a.57.57,0,0,0-.08-.25.68.68,0,0,0-.41-.31,1.26,1.26,0,0,0-.58,0,1.39,1.39,0,0,0-.72.35c-.12.1-.24.19-.34.29a3.69,3.69,0,0,0-.4.55l-.51.71a1.48,1.48,0,0,0-.25.67,1.94,1.94,0,0,0,0,.72l0,.15a1,1,0,0,0,.46.6,1.06,1.06,0,0,0,.78.1,2.13,2.13,0,0,0,1.22-.88L53,42a3.83,3.83,0,0,0,.43-1A1.63,1.63,0,0,0,53.47,40.21Z"/><path class="cls-3" d="M53.41,40h0C53.41,40,53.41,40,53.41,40Z"/><path class="cls-3" d="M53.42,40Z"/><path class="cls-3" d="M60.86,58l-.12-.67a1,1,0,0,0-.18-.45l-.21-.27a.39.39,0,0,0-.38-.1l-.24.05a1.15,1.15,0,0,0-.31.11c-.05,0-.38.29-.12.1l-.52.39a6.43,6.43,0,0,0-.84.64,2.38,2.38,0,0,0-.79,1.86,1.75,1.75,0,0,0,.24.89,1.78,1.78,0,0,0,.64.64,1.77,1.77,0,0,0,1.79,0,2.25,2.25,0,0,0,.49-.37,2.11,2.11,0,0,0,.53-.9,2.75,2.75,0,0,0,.14-.8A6.09,6.09,0,0,0,60.86,58Z"/><path class="cls-3" d="M38.23,82.38v0a5,5,0,0,0-.16-1,1.83,1.83,0,0,1-.08-.25s0-.09,0-.14a1.5,1.5,0,0,0-.34-.57,1.06,1.06,0,0,0-.34-.33,1.38,1.38,0,0,0-.57-.15,2.16,2.16,0,0,0-.36,0,1.09,1.09,0,0,0-.54.18h0l-.18.09a2.53,2.53,0,0,0-.7.47c-.1.1-.2.21-.29.32a4,4,0,0,0-.47.59,3.15,3.15,0,0,0-.3.71l-.06.23c0,.2,0,.41-.08.61a.57.57,0,0,0,0,.34,1,1,0,0,0,.07.38l.22.53a1.7,1.7,0,0,0,.57.62.69.69,0,0,0,.24.18l.51.22a1.57,1.57,0,0,0,.88,0,1.7,1.7,0,0,0,.82-.27l.45-.34a3.16,3.16,0,0,0,.41-.52l.23-.54v0c0-.09,0-.18,0-.26l0-.12c0-.2,0-.4.08-.6S38.25,82.49,38.23,82.38Z"/><path class="cls-3" d="M24.05,76a1.6,1.6,0,0,0-.36-.63,1.14,1.14,0,0,0-.86-.32,1.66,1.66,0,0,0-1.14.54,4.53,4.53,0,0,0-.81,1.17,7.12,7.12,0,0,0-.36.86c-.07.16-.14.31-.2.47a2.5,2.5,0,0,0-.1.91,1.59,1.59,0,0,0,.55,1.18,1.38,1.38,0,0,0,.88.36,1.13,1.13,0,0,0,.47,0,1.9,1.9,0,0,0,.95-.64,4.89,4.89,0,0,0,.77-1.61,4.41,4.41,0,0,0,.15-.55,6.61,6.61,0,0,0,.15-.89A2.37,2.37,0,0,0,24.05,76Z"/><polygon class="cls-3" points="23.69 75.35 23.69 75.35 23.69 75.35 23.69 75.35"/><path class="cls-3" d="M23.69,75.35Z"/><path class="cls-3" d="M9.83,47a1.65,1.65,0,0,0-.44.16,2.39,2.39,0,0,0-1,1.11,5.56,5.56,0,0,0-.39.9,1.54,1.54,0,0,0,.32,1.4.75.75,0,0,0,.73.19,1.06,1.06,0,0,0,.43-.26,2.44,2.44,0,0,0,.23-.33,1.24,1.24,0,0,0,.17-.27,1.21,1.21,0,0,0,.09-.34,5,5,0,0,1,.26-.83,1.38,1.38,0,0,0,.12-.29,2.8,2.8,0,0,0,.06-.28,4.48,4.48,0,0,0,.09-.64A.54.54,0,0,0,9.83,47Z"/><path class="cls-3" d="M87.81,72.59a.94.94,0,0,0-.23-.43,1.31,1.31,0,0,0-.67-.46,1.44,1.44,0,0,0-.77,0l.36,0a3.56,3.56,0,0,0-.57.08l-.27.1a8.43,8.43,0,0,0-.83.33l.35-.15a9.86,9.86,0,0,0-1,.33,1.85,1.85,0,0,0-.6.58c-.05.09-.16.22,0,0a.81.81,0,0,0-.2.78.65.65,0,0,0,0,.13,1.57,1.57,0,0,0,.55.74,1,1,0,0,0,.33.19,1.69,1.69,0,0,0,.54.12h.55a5.62,5.62,0,0,0,.7-.1,1.87,1.87,0,0,0,.63-.28,2.15,2.15,0,0,0,.66-.54,1.75,1.75,0,0,0,.4-1C87.84,72.82,87.83,72.71,87.81,72.59Z"/><path class="cls-3" d="M75.2,94.64a2.64,2.64,0,0,0,0-.28,3.46,3.46,0,0,0-.48-1.77,2.65,2.65,0,0,0-.9-1A2.69,2.69,0,0,0,72.61,91a3.49,3.49,0,0,0-1.87,0l-.27,0a3.66,3.66,0,0,0-1.9,1.07,4.05,4.05,0,0,0-1,1.75c0,.06,0,.12-.07.17a3.83,3.83,0,0,0,0,2.07,3,3,0,0,0,.39.92,3,3,0,0,0,1,1,2.89,2.89,0,0,0,1.27.67,3,3,0,0,0,1,.14,2.83,2.83,0,0,0,1.46-.33,1,1,0,0,0,.49-.22l.15-.11a4.11,4.11,0,0,0,1.43-1.41,3.36,3.36,0,0,0,.42-1c0-.35.09-.69.14-1A.78.78,0,0,0,75.2,94.64Z"/></g></g></svg>