<svg xmlns="http://www.w3.org/2000/svg" viewBox="0 0 111.06 115.63"><defs><style>.cls-1{fill:#d7879c;}.cls-2{fill:#cb546a;}.cls-3{fill:#a5334c;}.cls-4{fill:#dfa4b8;}.cls-5{fill:#e7bdd6;}.cls-6{fill:#4e1922;}</style></defs><g id="Lager_2" data-name="Lager 2"><g id="OBJECTS"><path class="cls-1" d="M108.14,68.84c-1.33-6.4-6.81-11.21-12.22-14.32-2.44-1.4-5-2.62-7.34-4.17l-.86-.59a1.16,1.16,0,0,0-.27-.14c-.34-.28-.66-.67-.94-.95s-.44-.5-.68-.73c-.31-.52-.62-1-.92-1.58,0-.08-.32-.81-.41-1.15-.21-.72-.32-1.44-.5-2.17a1.23,1.23,0,0,0,0-.16c0-.2,0-.4,0-.55-.06-.84-.09-1.69-.09-2.53,0-3.34.37-6.67.36-10,0-6.7-1.77-14-7-18.61C71.31,6,63.13,5.85,56,8.54a30.9,30.9,0,0,0-13.33,10c-3.85,5-4.58,10.46-6.94,16-.3.71-.68,1.4-1,2.12-.21.5-.37,1-.55,1.51-.08.25-.6,1.39-.11.33a29.85,29.85,0,0,0-1.11,3c-.07.13-.58,1.38-.63,1.54a2.24,2.24,0,0,1-.1.21l-.36.74c-.38.73-.74,1.48-1.13,2.21A58,58,0,0,1,26,53.67l-.59.75-1.42,1.75c-1,1.16-1.93,2.32-2.88,3.48C16.66,65,12.63,70.51,10.09,77a28.81,28.81,0,0,0-.83,18.65C13.35,109,27.91,120,41.88,113.92c5.75-2.48,9.57-7.78,13.17-12.66l1.08-1.45,0,0c.17-.2.33-.41.5-.62A38.68,38.68,0,0,1,60,95.54c.48-.46,1-.9,1.5-1.35.31-.21.61-.43.92-.63.65-.42,1.33-.77,2-1.13l.13-.06.43-.15.5-.17a16.87,16.87,0,0,1,1.7-.42,13.77,13.77,0,0,0,1.57,0h.1l.47.1.2,0a24.17,24.17,0,0,1,2.5.79c3.38,1.24,6.44,2.58,10.07,2.94,6.77.67,13.32-2.54,18.25-7C105.81,83.61,109.71,76.36,108.14,68.84Z"/><path class="cls-2" d="M101.38,73.14c-4.07,0-7.59,2.06-11.41,3.16a38.17,38.17,0,0,1-11.48,1.1c-7.56-.17-15.48-1-22.48,2.52-5.85,3-11.56,10.26-18.88,8.36-3.78-1-4.93-4.88-5.93-8.23a45.3,45.3,0,0,1-1.37-6.19c-.29-2-.22-4-.57-5.91-.65-3.57-4.46-4.38-7.47-3.28s-4.92,4.11-6.15,7a35.14,35.14,0,0,0-2,19.91A30.81,30.81,0,0,0,19.53,104c2.93,3.71,6.91,7.43,11.9,7.45,9.92,0,16.86-8.81,23.39-15,3.39-3.2,7.23-6.32,11.81-7.57,5.24-1.43,10.18.76,15.32,1.49a18.61,18.61,0,0,0,20.93-15.23A1.59,1.59,0,0,0,101.38,73.14Z"/><path class="cls-3" d="M33.24,101.29A20,20,0,0,0,30.8,101c.93,0-.78-.34-.56-.17a7.89,7.89,0,0,1-1.29-.75c-.06-.06-.3-.25-.39-.34s-.47-.45-.69-.69l-.44-.5C27.34,98.41,27,98,27,98c-.37-.54-.71-1.1-1-1.66a34.16,34.16,0,0,0-2.47-4.11,18.42,18.42,0,0,1-3.05-7.06,38.41,38.41,0,0,1-.71-4.27A13.31,13.31,0,0,0,19,76.83a.75.75,0,0,0-1.29,0,8.93,8.93,0,0,0-1.05,4.51,34.63,34.63,0,0,0,0,5c.13,1.68.2,3.35.43,5,.11.73.28,1.39.32,2.12a13.64,13.64,0,0,0,.42,3,22,22,0,0,0,5.26,9c2.43,2.43,6.63,4.53,10.11,3.25a4,4,0,0,0,2.81-3.7C36,103.42,34.93,101.57,33.24,101.29Z"/><path class="cls-3" d="M90.79,82.83h0l-.12,0,.09,0Z"/><path class="cls-3" d="M96.85,80.88a.91.91,0,0,0-.61-.81c-.47-.13-.81.16-1.18.37s-.68.32-1,.52-.71.45-1.08.65c-.74.4-1.44.86-2.19,1.22l0,0-.06,0-.09,0-.38.15-.48.17c-.53.18-1.08.28-1.63.41a15.86,15.86,0,0,0-1.74.65,8.35,8.35,0,0,0-1.8.88A1,1,0,0,0,84.89,87a14.13,14.13,0,0,0,3.31.54,9.16,9.16,0,0,0,3.28-.4,7.57,7.57,0,0,0,4.73-3.59,4.18,4.18,0,0,0,.5-1.31A5.32,5.32,0,0,0,96.85,80.88Z"/><path class="cls-4" d="M81,25.39a20.23,20.23,0,0,0-2.82-7.81,13,13,0,0,0-7-5.89,6.47,6.47,0,0,0-2.56-.11c.29,0,.56,0,.83.05-1.17,0-2.14-.25-3.21.44l-.36.27-.08.07-.63.18a10.33,10.33,0,0,0-1.55.8c-.34.22-.46.88,0,1.07a5,5,0,0,1,1.3.79,4.36,4.36,0,0,0,.39,1,5.35,5.35,0,0,0,.44.62,4.86,4.86,0,0,0,1,1.75l.16.18a26.09,26.09,0,0,0,2,2.43c.11.13.22.25.32.38s.37.54.54.82.44.79.65,1.19l0,.06a3,3,0,0,1,.12.32,16.77,16.77,0,0,1,.67,2.5c0,.18.07.37.09.55.09.56.08.49,0-.2a4.64,4.64,0,0,1,.11,1.3c.16,2.53-.29,5.56,2,7.34,1.43,1.13,3.47,1.79,5.16.67A6.1,6.1,0,0,0,81.12,33a8.13,8.13,0,0,0,.33-2.79A33,33,0,0,0,81,25.39Z"/><path class="cls-5" d="M77.71,19.46a6.22,6.22,0,0,0-4.29-3.13,5.63,5.63,0,0,1-.59-.12c-.09,0-.25-.13-.34-.07a1,1,0,0,0-.68,1.1,2.88,2.88,0,0,0,.57,1.36A10.66,10.66,0,0,1,73,19.7s0,0,0,.05a1.06,1.06,0,0,1,.09.25c.08.23.14.47.22.7A23.48,23.48,0,0,1,74,23.3c0,.15.05.3.07.45v.05c0,.23,0,.47.07.7a20.29,20.29,0,0,0,.25,2.2c.24,1.31,1,3.17,2.63,3.17s2.26-2.26,2.29-3.6A13.42,13.42,0,0,0,77.71,19.46Z"/><path class="cls-6" d="M62.78,48.69c-.05-1-.16-1.91-.28-2.86v-.07h0c-.05-.43-.1-.87-.16-1.31a3.71,3.71,0,0,0-.89-1.67,3.6,3.6,0,0,0-1.38-1.27L58.89,41a3.77,3.77,0,0,0-2-.09,2.46,2.46,0,0,0-1.24.34,3.75,3.75,0,0,0-1.59,1,5.09,5.09,0,0,0-1.44,3.48v3.58c0,.59,0,1.17,0,1.76a9.84,9.84,0,0,0,.17,2A6.11,6.11,0,0,0,53.69,55a4.57,4.57,0,0,0,7.89,0q.24-.41.45-.81a4,4,0,0,0,.47-1.09,5,5,0,0,0,.17-1.27A19.87,19.87,0,0,0,62.78,48.69Z"/><path class="cls-6" d="M66.76,35.54c-1.63.69-3.21,1.37-4.77,2.21a13.17,13.17,0,0,1-5.06,1.61,8.35,8.35,0,0,1-4.37-.86,10.09,10.09,0,0,1-3.4-3.13c-.26-.35-1-.3-.92.25.25,3.81,4.72,6,8.06,6.37a11.42,11.42,0,0,0,6.23-1.27,10.79,10.79,0,0,0,2.74-1.84A9.71,9.71,0,0,0,67.14,36C67.24,35.8,67.06,35.41,66.76,35.54Z"/><path class="cls-6" d="M82.68,59.67a.65.65,0,0,0-.88-.23A10.36,10.36,0,0,0,80,60.6a11,11,0,0,0-1.76,2c-.91,1.47-1.52,3.07-2.57,4.47-.16.22-.35.4-.51.61-.39.51,0,0,0,0s-.56-.16-.59-.17a6.68,6.68,0,0,1-.87-.81,44.8,44.8,0,0,1-3.64-3.91,2,2,0,0,0-3.18.41c-1.3,2.05-2.56,4.15-3.91,6.17-.21.31-.69,1.16-1.13,1.16s-1.16-.92-1.47-1.26c-1.55-1.68-3.13-3.31-4.84-4.83-1.5-1.33-3.35-3.38-5.55-2.37a6.24,6.24,0,0,0-2.12,2.18l-2,2.68a11.19,11.19,0,0,0-1.12,1.47c-.17.35-.27.36-.19.36-.56,0-1.16-1.45-1.36-1.85-1-2-1.82-4.11-2.82-6.12-.74-1.5-1.41-3.37-3.4-3.07a.78.78,0,0,0-.52,1.06.24.24,0,0,1,0,.09c.06.12.18.26.25.38a6,6,0,0,1,.71,1.47c.39,1.22.8,2.43,1.24,3.64.78,2.16,1.35,4.79,2.91,6.55a3.65,3.65,0,0,0,5.44.37,25.66,25.66,0,0,0,2.31-2.87c.45-.56.9-1.13,1.34-1.7.22-.27.44-.61.69-.9.29.24.61.61.77.75.45.41.9.82,1.34,1.24q1.32,1.26,2.58,2.58c1.42,1.49,2.78,3.55,4.93,4s4-1,5.25-2.71c1-1.33,1.82-2.72,2.69-4.11,1,1.09,2.09,2.13,3.13,3.22a5.64,5.64,0,0,0,2.8,2A4.62,4.62,0,0,0,78.49,72c1.85-1.29,3.26-3.76,4.25-5.75a7.81,7.81,0,0,0,.86-3.79A5.82,5.82,0,0,0,82.68,59.67Z"/><path class="cls-2" d="M39.05,49.25c0-.09-.06-.18-.1-.28l-.19-.59a1.48,1.48,0,0,0-1-1,1.4,1.4,0,0,0-.76,0,1.36,1.36,0,0,0-.62.37l-.49.38-.24.2a2.71,2.71,0,0,0-.39.49,1.7,1.7,0,0,1-.1.14,4.62,4.62,0,0,0-.54,1.09l-.09.31a3.3,3.3,0,0,0-.09.63,1.75,1.75,0,0,0,.2.88,2.39,2.39,0,0,0,.42.66h0a1.42,1.42,0,0,0,.55.51,2.24,2.24,0,0,0,1,.27,1.58,1.58,0,0,0,.6-.1l.1,0a2.36,2.36,0,0,0,1.37-1.05,3.23,3.23,0,0,0,.31-.82,4.79,4.79,0,0,0,.13-1.25A2.9,2.9,0,0,0,39.05,49.25Z"/><path class="cls-2" d="M61.3,26l-.45-1.08L60.14,24a3.36,3.36,0,0,0-1.45-.93,2.17,2.17,0,0,0-1.14-.31,2.22,2.22,0,0,0-1.2,0,2.22,2.22,0,0,0-1.14.31,3.36,3.36,0,0,0-1.45.93l-.39.39-.1.1,0,.05c-.25.32-.5.65-.76,1l-.14.3c-.12.27-.23.54-.35.82a2.85,2.85,0,0,0-.34,1.29,2.36,2.36,0,0,0,0,1.29,1.93,1.93,0,0,0,.09.68c.06.17.12.34.19.51a4.35,4.35,0,0,0,1.15,2,4.44,4.44,0,0,0,2,1.15,4.54,4.54,0,0,0,2.37,0,4.59,4.59,0,0,0,1.84-1,3.73,3.73,0,0,0,1-1,4,4,0,0,0,.91-1.76l.12-.46a12.37,12.37,0,0,0,.22-2.1C61.41,26.8,61.36,26.4,61.3,26Z"/><path class="cls-2" d="M55.86,17.2a1,1,0,0,0-.48-.62,1.06,1.06,0,0,0-.8-.11l-.43.19a1.85,1.85,0,0,0-.78,1l0,.14a2,2,0,0,0-.09.6,1.29,1.29,0,0,0,.45,1l.31.23a.86.86,0,0,0,.24.11.89.89,0,0,0,.58-.06h0l.07,0h0l.09,0,.18-.08a1,1,0,0,0,.36-.33,1.18,1.18,0,0,0,.24-.46,3,3,0,0,1,.1-.32,1.91,1.91,0,0,0,.08-.63A3.33,3.33,0,0,0,55.86,17.2Z"/><path class="cls-2" d="M79.21,47l-.21-.5a1.64,1.64,0,0,0-.55-.59,1,1,0,0,0-.46-.27,1,1,0,0,0-.54-.15,1.06,1.06,0,0,0-.56,0,1.56,1.56,0,0,0-.78.25l-.16.09a2.32,2.32,0,0,0-.29.21,1.15,1.15,0,0,0-.39.4l-.2.25-.22.53,0,0a.24.24,0,0,1,0,.08,1.39,1.39,0,0,0-.06.19l-.08.56c0,.19,0,.37.08.56l.21.5a1.54,1.54,0,0,0,.54.59A1.06,1.06,0,0,0,76,50a1,1,0,0,0,.53.15,1.06,1.06,0,0,0,.56,0,1.67,1.67,0,0,0,.78-.25l.15-.1a3.69,3.69,0,0,0,.57-.43l.34-.45,0,0a1.63,1.63,0,0,0,.23-.58l0-.19c0-.19.05-.38.07-.57S79.23,47.2,79.21,47Z"/><path class="cls-2" d="M91.41,56.56l-.07-.18,0,.25a2.42,2.42,0,0,0-.07-.47.83.83,0,0,0-.57-.58.81.81,0,0,0-.8.21h0a1.72,1.72,0,0,0-.58.38l-.34.29-.12.09-.22.28-.11.18a2.71,2.71,0,0,1-.24.35,1.36,1.36,0,0,0-.18.68,2.3,2.3,0,0,0,0,.26h0a1,1,0,0,0,.31.75,1.06,1.06,0,0,0,.75.31h.06a1.32,1.32,0,0,0,.56,0,1.28,1.28,0,0,0,.59-.35q.17-.15.33-.33l.08-.09a1.83,1.83,0,0,0,.32-.48l.13-.36c0-.15.07-.29.1-.44A1.39,1.39,0,0,0,91.41,56.56Z"/><path class="cls-2" d="M45.24,81.83a1.29,1.29,0,0,0-.12-.38h0s0,0,0,0l0-.06a.86.86,0,0,0-.48-.49.84.84,0,0,0-.81,0l-.1.07-.11,0a1.54,1.54,0,0,0-.31.25l-.13.11,0,0a1.88,1.88,0,0,0-.36.27,2.48,2.48,0,0,0-.29.37l.23-.3a5.35,5.35,0,0,1-.45.5,3.35,3.35,0,0,0-.4.53l-.1.14a1.22,1.22,0,0,0-.16.5v-.07c0,.09,0,.19-.05.28a1.14,1.14,0,0,0,.2,1,.84.84,0,0,0,.32.3,1.21,1.21,0,0,0,.58.16l.29,0a1.71,1.71,0,0,0,1-.29,2.83,2.83,0,0,0,.28-.2,1.66,1.66,0,0,0,.37-.38c.11-.15.23-.29.33-.45a1.92,1.92,0,0,0,.18-.31l.15-.36.05-.39a.22.22,0,0,0,0-.08s0-.1,0-.16v-.34A1.53,1.53,0,0,0,45.24,81.83Z"/><path class="cls-1" d="M109.71,58.52c-2.75-4.69-7.67-6.08-12.59-7.4-.25-.89-.48-1.79-.65-2.7-1-5.63.43-11.21-.15-16.84A26.35,26.35,0,0,0,91.58,19.1,18.22,18.22,0,0,0,86.82,7C77.75-3.09,61.89-1.34,51.93,6.35a31.9,31.9,0,0,0-9,10.69A24.22,24.22,0,0,0,37.51,19a28,28,0,0,0-9,6.9c-5.25,6.06-7.92,14-8.55,21.87-.07.93-.11,1.86-.13,2.79-.34.36-.68.72-1,1.07-3.15,3.08-6.72,5.68-9.61,9A39.32,39.32,0,0,0,2.7,70.87c-3,7-3.76,15.12-.92,22.36A26.85,26.85,0,0,0,8.3,103c2.77,2.6,6.56,5.12,10.45,5.38,1.1.07,1.09-1.41.24-1.76-1.55-.65-3.16-1.14-4.65-1.94a20.83,20.83,0,0,1-4.1-2.87,24.55,24.55,0,0,1-5.9-8.11c-3-6.69-2.67-14.32,0-21.08a36.46,36.46,0,0,1,5.88-9.85C12.81,59.64,16,57.12,19,54.36c.31-.28.59-.59.89-.89a47.21,47.21,0,0,0,1,7.58c.15.71.24,2,1,2.32a.77.77,0,0,0,1-.34c.41-.66-.08-1.82-.22-2.48-.26-1.22-.47-2.45-.63-3.68a46.67,46.67,0,0,1-.34-5.29c4.46-5,7.51-11,10.15-17.26,1.71-4,3.51-8.21,6.84-11.2a17,17,0,0,1,2.73-2c-.14.53-.26,1.07-.35,1.61,0,.24.3.44.43.18.4-.84.79-1.66,1.19-2.48a17.25,17.25,0,0,1,1.65-.73c2-.74,4-1.11,6-1.69a.24.24,0,0,0,0-.46A9,9,0,0,0,48,17.21a8.45,8.45,0,0,0-3.4-.4q.42-.7.9-1.41a33.67,33.67,0,0,1,5.81-6.52A28.87,28.87,0,0,1,67.84,1.94C74.09,1.5,80.39,3.37,84.67,8.1a17.89,17.89,0,0,1,4.08,7.5c0,.05,0,.1,0,.15a25.51,25.51,0,0,0-8.4-5.66,23.35,23.35,0,0,0-16-1c-.08,0-.07.16,0,.15a30.35,30.35,0,0,1,14.3,1.53,24.16,24.16,0,0,1,10.4,7.72,18.07,18.07,0,0,1-1,6.35c-1.18,3.55-3,6.84-4.16,10.39A26.73,26.73,0,0,0,83,38.7a.35.35,0,0,0-.35.15c-.78,1.22-.49,3-.08,4.31a10.73,10.73,0,0,0,2.52,4.16c2.6,2.74,6.22,4,9.76,5.08l.54.15a33.21,33.21,0,0,0,1.67,4.21,31.18,31.18,0,0,0,2,3.47c.69,1.05,1.28,2.24,2.58,2.54a.53.53,0,0,0,.66-.51c0-1.2-.77-1.91-1.4-2.87a30.49,30.49,0,0,1-2.06-3.65q-.57-1.22-1-2.49a21.34,21.34,0,0,1,7.6,3.62,9,9,0,0,1,3,4.15,14.19,14.19,0,0,1,.13,6.32,56.53,56.53,0,0,1-1.49,7c-.08.28-.16.56-.25.84a5.22,5.22,0,0,0-1.11-1,.51.51,0,0,0-.75.57,13.17,13.17,0,0,1-.1,8,22.11,22.11,0,0,1-3.59,6.89,21,21,0,0,1-12.84,7.93c-6.5,1.19-13.16-1-19.54,1.29-5.44,2-9.67,6.08-14.15,9.57a30.22,30.22,0,0,1-8.79,5,16.42,16.42,0,0,1-10,.15.06.06,0,0,0-.06.1c4.84,3.85,12,1.43,16.7-1.4,5.4-3.23,9.75-8,15.54-10.65,6.79-3.08,14.18-.47,21.26-1.89a25,25,0,0,0,14-8.46,22,22,0,0,0,4.4-8.44,12,12,0,0,0,.39-4.75,13.81,13.81,0,0,0,.72-1.84A53.45,53.45,0,0,0,110.35,70C111.05,66.21,111.76,62,109.71,58.52ZM32,29.21c-1.94,3.91-3.44,8-5.51,11.86a48.06,48.06,0,0,1-4.66,7.19,38.08,38.08,0,0,1,4.74-16.4A27.9,27.9,0,0,1,35.82,22a26.23,26.23,0,0,1,3.53-1.83A22.65,22.65,0,0,0,32,29.21Zm58,19.54a12.73,12.73,0,0,1-4.67-3.68c0-1.56-.06-3.13.1-4.68a23.92,23.92,0,0,1,1.46-5.75c1.26-3.42,3-6.65,4-10.17A20.15,20.15,0,0,0,91.39,22a25.12,25.12,0,0,1,3.07,11c.1,2.82-.32,5.63-.47,8.44A31.16,31.16,0,0,0,94.5,49c.1.51.22,1,.34,1.52A30.87,30.87,0,0,1,89.94,48.75Z"/><path class="cls-4" d="M15.84,46.36c.07.17.13.33.2.49l0-.05a6.33,6.33,0,0,0-.42-1,4.16,4.16,0,0,0-.78-.94,3.11,3.11,0,0,0-1.3-.82,2.59,2.59,0,0,0-.64-.23,11.22,11.22,0,0,0-1.28-.17,5.24,5.24,0,0,0-1.45.21,6,6,0,0,0-2.5,1.51,5.34,5.34,0,0,0-.44.39,4.31,4.31,0,0,0-.39.46,3.59,3.59,0,0,0-1,1.57,4.37,4.37,0,0,0,0,3.74,3.59,3.59,0,0,0,1,1.57l1,.76a4.83,4.83,0,0,0,2.46.66l1.29-.17a4.87,4.87,0,0,0,2.15-1.25c.09-.12.19-.24.29-.35l.53-.67a.69.69,0,0,1,.11-.13l.07-.08a6.12,6.12,0,0,0,.39-.5,2.83,2.83,0,0,0,.39-.52L16,49.7v0l0-.09,0-.08v0c.05-.41.11-.81.16-1.22v-.14s0,0,0-.06A3.43,3.43,0,0,0,15.84,46.36Z"/><path class="cls-4" d="M30.26,14.14V13.9c0-.06,0-.12,0-.18a.85.85,0,0,0-.18-.41v0c0-.08-.05-.19-.14-.13l0,0a1,1,0,0,0-.21-.1.89.89,0,0,0-.43,0l-.19,0-.25,0a1.46,1.46,0,0,0-.77.21,2.69,2.69,0,0,0-.48.24,2.63,2.63,0,0,0-.53.4,4,4,0,0,0-.43.56,1.29,1.29,0,0,0-.21.66,1.32,1.32,0,0,0,0,.71l.18.42a1.3,1.3,0,0,0,.46.5.86.86,0,0,0,.39.23,1.33,1.33,0,0,0,.68.15,1.84,1.84,0,0,0,1.26-.52,3.67,3.67,0,0,0,.44-.52,2.1,2.1,0,0,0,.13-.26,5.42,5.42,0,0,0,.31-.85A1.44,1.44,0,0,0,30.26,14.14Z"/><path class="cls-4" d="M106,32.69c-.12-.39-.3-.77-.46-1.15a3.51,3.51,0,0,0-1.24-1.24,3.44,3.44,0,0,0-1.74-.47h-.35a4.34,4.34,0,0,0-3,1.38,5,5,0,0,0-.49.59,4.52,4.52,0,0,0-.46.62l-.07.13a3,3,0,0,0-.48,1.51,3.09,3.09,0,0,0,0,1,3.39,3.39,0,0,0,.12.82,3.14,3.14,0,0,0,.4.94,2.8,2.8,0,0,0,.95,1,2.84,2.84,0,0,0,1.26.66,6,6,0,0,0,1,.14,3.86,3.86,0,0,0,1.13-.17,5.76,5.76,0,0,0,1.14-.45,2.89,2.89,0,0,0,1-.79,5.1,5.1,0,0,0,.91-1.3,7.93,7.93,0,0,0,.47-1.13A3.94,3.94,0,0,0,106,32.69Z"/><path class="cls-4" d="M77.86,105.39a2,2,0,0,0-1.81-.73l-.2,0a2,2,0,0,0-.54,0,5,5,0,0,0-.87.22,6.25,6.25,0,0,0-1.78.81l-1.1.86a5.43,5.43,0,0,0-1,1.07,4.7,4.7,0,0,0-.37.54,7.19,7.19,0,0,0-.4,1,2.16,2.16,0,0,0-.1.57,1.54,1.54,0,0,0,0,.85,3.78,3.78,0,0,0,.06.47A3.13,3.13,0,0,0,72,113.23a3.41,3.41,0,0,0,1.68,0v0l.17,0h0a3.4,3.4,0,0,0,1.11-.63c.1-.07.2-.16.3-.24l.11-.09-.09.07a2.85,2.85,0,0,0,.26-.23l.19-.24a8.82,8.82,0,0,0,.8-1c.19-.33.41-.64.59-1s.32-.67.48-1a5.49,5.49,0,0,0,.45-1,3.7,3.7,0,0,0,.08-.48A2,2,0,0,0,77.86,105.39Z"/></g></g></svg>