<svg xmlns="http://www.w3.org/2000/svg" viewBox="0 0 116.82 103.9"><defs><style>.cls-1{fill:#76bce2;}.cls-2{fill:#6198b5;}.cls-3{fill:#4b778b;}.cls-4{fill:#b2d7ea;}.cls-5{fill:#d0e7f9;}.cls-6{fill:#355463;}.cls-7{fill:#fff;}</style></defs><g id="Lager_2" data-name="Lager 2"><g id="OBJECTS"><path class="cls-1" d="M109.58,53.23c-5.27-5.09-12.91-6.68-20-5.65-10.27,1.5-18.43,8.88-24.45,16.89-4.18,5.58-11.89,20-20.07,11.27-2.69-2.87-3.47-7.09-3.2-11,.63-9.07,4.88-17.14,6.62-25.94C51,25.94,49.69-2,30.38.12,18.23,1.47,8.47,10.26,3.5,21.1c-5.67,12.39-3.42,24.29-.45,37C7.44,76.9,18,104.81,41.48,103.87a43.25,43.25,0,0,0,22.86-7.52c6.35-4.43,13.47-19.88,23.08-17,2.88.85,4.79,3.73,5.37,6.68.9,4.49-3.37,15.74,4.79,15.88,4.57.08,10.32-4,12.92-7.53,4.18-5.69,6-12.9,6.29-19.88C117.07,66.91,115.21,58.65,109.58,53.23Z"/><path class="cls-2" d="M103.23,86.53a38.48,38.48,0,0,0,.17-7.33,12.28,12.28,0,0,0-2.28-6A13.68,13.68,0,0,0,89.5,67.75c-5.38.2-10.41,3.31-14.29,6.84-.24.21-.47.45-.71.68a.66.66,0,0,0-.3.1,17,17,0,0,0-4.68,4.81,21.38,21.38,0,0,0-1.7,3.12,8.16,8.16,0,0,0-1,3,1.81,1.81,0,0,0,1,1.75c1,.45,1.89-.3,2.62-.9,2.06-1.66,3.86-3.62,5.77-5.45,3.31-3.15,8-6.49,12.86-4.91,5.06,1.65,6,8.77,6.17,13.28a32.89,32.89,0,0,1-.11,4.21,7.11,7.11,0,0,0,.2,3.21,3.22,3.22,0,0,0,4.22,1.79c2-.68,2.88-2.74,2.95-4.74C102.59,92,103,89.25,103.23,86.53Z"/><path class="cls-2" d="M53.3,89.68c-3.08-1.41-6.62-.71-9.89-1.08a27.3,27.3,0,0,1-9-2.72A35.54,35.54,0,0,1,20.71,73.5c-1.9-2.91-3.34-6.09-5.29-9-1.39-2.05-4.19-6.38-7.06-4-2.56,2.15-.69,6.31.21,8.86A52,52,0,0,0,27,94a36.29,36.29,0,0,0,10.38,5.49,22.14,22.14,0,0,0,5.82,1.07,15.5,15.5,0,0,0,1.82,0,24,24,0,0,0,4.31-.28c2.58-.4,6.55-1.11,7.39-4C57.45,93.59,55.67,90.77,53.3,89.68Z"/><path class="cls-3" d="M48.59,96.4c-1.57-1-3.49-1.11-5.29-1.24a34.44,34.44,0,0,1-5.9-1,33.92,33.92,0,0,1-10.83-5C20.24,84.84,16,78.76,13,71.74c0-.09-.16,0-.15.06,1.48,7.61,6.45,14.71,12.6,19.33a36.46,36.46,0,0,0,11.23,5.63,37.55,37.55,0,0,0,6.2,1.3c2,.25,4.13.26,5.79-1A.39.39,0,0,0,48.59,96.4Z"/><path class="cls-3" d="M99.43,84.63a15.62,15.62,0,0,0-.57-2.8A15,15,0,0,0,96.22,77a13,13,0,0,0-4.06-3.47,5.41,5.41,0,0,0-2.43-.79c-.59,0-1.47.26-1.44,1a.35.35,0,0,0,.34.34,4,4,0,0,1,.77,0,2.69,2.69,0,0,1,.89.38A14.64,14.64,0,0,1,92,75.63,13.3,13.3,0,0,1,94.86,79a14.82,14.82,0,0,1,1.65,4,14.24,14.24,0,0,1,.34,2,6,6,0,0,0,.78,2.25.64.64,0,0,0,1.08,0A3.67,3.67,0,0,0,99.43,84.63Z"/><path class="cls-4" d="M39.07,52c-.24-.83-.22-1.32-1-1.86a2.85,2.85,0,0,0-2.16-.45c-.68.14-1,.54-1.72.22a11.32,11.32,0,0,1-1.56-1.11C30.16,47.13,28,48.06,26.11,50c-.76.79-1.54,1.84-2.74,1.27s-1.94-1.59-3.13-2.06a3.43,3.43,0,0,0-3.67.77,18.34,18.34,0,0,0-1.41,1.65,3,3,0,0,1-1.07.93c-.74.28-1.16-.23-1.62-.75a4.06,4.06,0,0,0-4-1.43,3.33,3.33,0,0,0-2.54,3,.47.47,0,0,0,.35.46l.09,0h0a.48.48,0,0,0,.42-.24c.51-1.12,1.29-2,2.66-1.8,1,.17,1.45.93,2.07,1.67a2.91,2.91,0,0,0,4.26.31c1.12-.86,2.13-3.34,3.8-2.48,1.3.67,2.16,1.92,3.63,2.3a4.31,4.31,0,0,0,3.79-1.06c.77-.61,1.72-2,2.77-2.09,1.22-.11,2.52,1.66,3.64,2.08a3.31,3.31,0,0,0,2,.13c.64-.17.74-.35,1.35-.1.25.11.77.3,1,.43A.86.86,0,0,0,39.07,52Z"/><path class="cls-4" d="M45.17,81.13l0,0a.67.67,0,0,0-.71-.29,5.44,5.44,0,0,0-3.53,3.46c-.6,2,.84,3.38,1.26,5.18.24,1-.22,1.48-1,2.08A2.62,2.62,0,0,0,40,93.43c0,.93.68,1.35,1.08,2.09a2.26,2.26,0,0,1,.31,1.21,1.14,1.14,0,0,1-.12.41h0a.52.52,0,0,0-.23.56,1,1,0,0,0,.17.4.87.87,0,0,0,1.35.18c1.15-1.15.41-3.23-.47-4.3-.36-.43-.45-.63,0-1s.63-.47.91-.74a3,3,0,0,0,.9-2.23,6,6,0,0,0-.68-2.41,4.83,4.83,0,0,1-.85-2.72,4.07,4.07,0,0,1,1.75-2.36C44.42,82.27,45.6,81.7,45.17,81.13Z"/><path class="cls-4" d="M75.38,77.35a5.33,5.33,0,0,0-2.64-2.83,6.36,6.36,0,0,0-2.2-.46,2.67,2.67,0,0,1-1.83-.7,3.67,3.67,0,0,1-.95-2,16.68,16.68,0,0,0-.14-2A.7.7,0,0,0,67.5,69s0,0,0,0l0-.06v0a.57.57,0,0,0-.81,0c-.58.48-.45,1.76-.4,2.46a6,6,0,0,0,.59,2.22,4.21,4.21,0,0,0,3.64,2.34,3.41,3.41,0,0,1,2.92,1.61A3.76,3.76,0,0,1,73.87,79c0,.28,0,.58,0,.86a1.85,1.85,0,0,0,.07.62c.07.16.27.29.31.43a.26.26,0,0,0,.38.15c.2-.11.41-.09.61-.24a1.2,1.2,0,0,0,.35-.58,2.8,2.8,0,0,0,.17-1A5.31,5.31,0,0,0,75.38,77.35Z"/><path class="cls-4" d="M99.29,52.67c.15,0,.22,0,.44-.18a.45.45,0,0,0,0-.77c-2.33-1.47-5.48.9-6.43,3-1.38,3.06.07,5.59,1.67,8.18.83,1.34,1.7,3,.76,4.54a27.55,27.55,0,0,1-2.41,2.66,5.15,5.15,0,0,0-1.15,3.26,13.62,13.62,0,0,1-.55,2.11.82.82,0,0,0,.15.85.74.74,0,0,0,.72.2,2.62,2.62,0,0,0,1.84-2.44,7.5,7.5,0,0,1,.12-1.71,3.7,3.7,0,0,1,.88-1.3c1.54-1.7,3.2-3.14,2.87-5.68-.38-2.85-3.11-4.74-3.44-7.54a4.47,4.47,0,0,1,1.45-3.8A8.86,8.86,0,0,1,99.29,52.67Z"/><path class="cls-4" d="M112.78,84.91c-.27.13-.42,0-.83,0a4.12,4.12,0,0,0-1.24.32,2.85,2.85,0,0,1-1.91-.09,19.44,19.44,0,0,0-2.61-.86,7.67,7.67,0,0,0-2.53,0A10.27,10.27,0,0,0,99,86.39c-.52.4-1.26,1-1.2,1.77,0,.31.4,1,.77.58A16.1,16.1,0,0,1,102,86.6a6,6,0,0,1,4.3-.25c.73.29,1.27.94,2,1.26a4.3,4.3,0,0,0,2.18.36,3.38,3.38,0,0,0,2.23-1,2.64,2.64,0,0,0,.51-1.85C113.24,84.93,113,84.83,112.78,84.91Z"/><path class="cls-4" d="M45.47,21.23a14.6,14.6,0,0,0-.15-3.55A25.64,25.64,0,0,0,43.93,11a11.33,11.33,0,0,0-4.26-5.8,5.37,5.37,0,0,0-4-.83c-.7.19-2,.89-2.08,1.74,0,.47-.26.81-.27,1.35a5.89,5.89,0,0,0,.19,1.45,14.48,14.48,0,0,0,.56,1.84,23.54,23.54,0,0,1,1.24,4c0,.16,0,.32.08.49s.07.6.1.91c.1.78.18,1.56.25,2.35a16.32,16.32,0,0,0,.4,3.35,6.61,6.61,0,0,0,3,4,3.64,3.64,0,0,0,3.64,0,10,10,0,0,0,1.1-.84A4,4,0,0,0,45,23c.08-.25,0-.22-.08.08s-.17.32.11-.31A5,5,0,0,0,45.47,21.23Z"/><path class="cls-4" d="M89.44,53.79a2.31,2.31,0,0,0-.45-.32,3.72,3.72,0,0,0-2.11-1.57,4.76,4.76,0,0,0-3,.27,17.55,17.55,0,0,0-4.07,2,18.81,18.81,0,0,0-2,1.51,5.37,5.37,0,0,0-1.24,2.43c0,.13-.08.27-.13.4a.43.43,0,0,1-.05.12c-.15.34-.31.68-.45,1a3.29,3.29,0,0,0-.27,1.8.67.67,0,0,0,.63.49,4.5,4.5,0,0,0,1.68-.62c.23-.12.47-.26.71-.37l.24-.07.35-.08.45-.08c.11,0,.15,0,.15,0a4,4,0,0,0,1.62-.57c.54-.35,1.09-.66,1.65-1s1.06-.59,1.61-.85l.16-.09.13,0,.95-.35a4.74,4.74,0,0,0,2.63-1.93c0-.09.12-.2.17-.3a1.3,1.3,0,0,0,.14-.32,1.58,1.58,0,0,0,.17-.67l.07,0a2.51,2.51,0,0,0,.25-.32A.35.35,0,0,0,89.44,53.79Z"/><path class="cls-4" d="M112.64,63.21l.14.21.1.14Z"/><path class="cls-4" d="M113.87,65c-.1-.19-.2-.38-.31-.56-.21-.35-.55-.66-.78-1s-.33-.44-.5-.65a2.63,2.63,0,0,0-.54-.42l-.07-.13-.51-.86a11.74,11.74,0,0,0-1.07-1.63,2.88,2.88,0,0,0-2.85-1.26.44.44,0,0,0-.3.53,12,12,0,0,1,.62,2.35s0,.42,0,.46c0,.28,0,.56,0,.84s0,.4,0,.6a3.75,3.75,0,0,0-.25.49,1.9,1.9,0,0,0-.21.56l.09-.17a7.47,7.47,0,0,0-.6,1.78,15,15,0,0,0-.33,2.2,6,6,0,0,0,.81,3.21,4.27,4.27,0,0,0,3.51,2,4.11,4.11,0,0,0,3.5-2C115.38,69.34,114.85,66.91,113.87,65Z"/><path class="cls-5" d="M42.48,12.07c-.72-1.42-1.64-3.1-3.11-3.85a.36.36,0,0,0-.53.31A41,41,0,0,0,40,13,11.4,11.4,0,0,1,40.26,15a5.67,5.67,0,0,0,.59,2.85,1.69,1.69,0,0,0,1.39.79,1.58,1.58,0,0,0,1.39-.79C44.49,16,43.34,13.75,42.48,12.07Z"/><path class="cls-5" d="M85.55,54.18l-.63-.2c-1.1-.6-2.44.11-3.43.71a14.23,14.23,0,0,0-1.3.89,2.79,2.79,0,0,0-1.12,1.65h0a.6.6,0,0,0,.58.77,2,2,0,0,0,.79-.12,7.19,7.19,0,0,0,.86-.37c.44-.25.88-.51,1.34-.73l.31-.15.17-.07a9.35,9.35,0,0,0,.92-.38A2.83,2.83,0,0,0,85.27,55c.13-.15.26-.29.4-.43A.26.26,0,0,0,85.55,54.18Z"/><path class="cls-5" d="M113,67.62a8.06,8.06,0,0,0-.13-1,5.54,5.54,0,0,0-.21-.57,2.93,2.93,0,0,0-.54-1,2.81,2.81,0,0,0-.61-.48.82.82,0,0,0-1.19.49,3.48,3.48,0,0,0-.12.56,4.6,4.6,0,0,0,0,.91c0,.12,0,.23,0,.34V67l0,.18a1,1,0,0,0,0,.34c0,.12,0,.24,0,.35s0,.47,0,.71a2.23,2.23,0,0,0,.14.85c.17.49.48,1.11,1.08,1.11s1.23-.75,1.42-1.34A4.25,4.25,0,0,0,113,67.62Z"/><path class="cls-6" d="M26.32,22.16a3.54,3.54,0,0,0-.4-1.79,3.49,3.49,0,0,0-1-1.49,3.55,3.55,0,0,0-1.49-1,3.54,3.54,0,0,0-1.79-.4l-1.23.16a4.74,4.74,0,0,0-2.05,1.2l-.72.94a4.56,4.56,0,0,0-.63,2.34L16.9,24l0,.46A6,6,0,0,0,17,25.81c0,.33,0,.66.05,1a3.4,3.4,0,0,0,.39,1.78,3.49,3.49,0,0,0,1,1.49l.94.73a3.42,3.42,0,0,0,1.72.54,2.33,2.33,0,0,0,1.23,0A3.41,3.41,0,0,0,24,30.8l.94-.73a4.58,4.58,0,0,0,1.19-2A19.93,19.93,0,0,0,26.32,22.16Z"/><path class="cls-6" d="M27.26,8.48a.69.69,0,0,0-.8.16,13.79,13.79,0,0,0-1.58,1.91,7.48,7.48,0,0,1-2,1.53,2.21,2.21,0,0,1-2.24.15,16.76,16.76,0,0,1-2-1.79.59.59,0,0,0-1,.57,4.56,4.56,0,0,0,3.48,3.64c2.07.34,4.14-.89,5.47-2.38a4,4,0,0,0,1.24-2.66A1.34,1.34,0,0,0,27.26,8.48Z"/><path class="cls-6" d="M37.19,29.84c-.38-2.59-2.45-5.1-5.32-4.65s-3.41,3.25-4.72,5.27a8.86,8.86,0,0,1-5.46,4.13c-2.65.47-4.66-.91-6.09-3-1.17-1.72-2.31-4.12-4.31-5C9,25.54,7.69,28,7,29.78a11.83,11.83,0,0,0-.32,7c1.14,4.56,4.9,8,9.2,9.62,5.21,2,10.32.58,14.67-2.66a15.68,15.68,0,0,0,1.47-1.25,15.38,15.38,0,0,0,4-5.25A13.24,13.24,0,0,0,37.19,29.84Z"/><path class="cls-7" d="M31.87,25.19c-2.76.43-3.41,3.25-4.72,5.27a8.86,8.86,0,0,1-5.46,4.13c-2.65.47-4.66-.91-6.09-3-1.17-1.72-2.31-4.12-4.31-5a2.33,2.33,0,0,0-1.19-.23c-.1,1-.1,2.08-.14,3.07S9.87,31.16,9.81,32A3.57,3.57,0,0,0,10,33.92a1.21,1.21,0,0,0,.9.65c.56.08.76-.27,1.19-.49s-.18-.28.68-.13c.54.09.51.06.66.51s.16.67.23,1c.18.85.32,1.71.54,2.55S15,39.9,16.12,39.8a2.35,2.35,0,0,0,1.5-.89c.52-.6.87-1.85,1.9-1.4s1.49,2.34,2.65,3A2.43,2.43,0,0,0,25,40.22c1.2-1,1.28-2.57,1.85-3.95.16-.38.37-.91.86-.93a8.07,8.07,0,0,1,1.27.4,6.52,6.52,0,0,0,2.71-.07.93.93,0,0,0,.65-.65c.59-3.22,1-6.46,1.29-9.71A4,4,0,0,0,31.87,25.19Z"/><path class="cls-2" d="M36.3,60.87l0-.16a3,3,0,0,0-.23-.63,2.14,2.14,0,0,0-.48-.84,4.78,4.78,0,0,0-.34-.42l-.17-.18L35,58.56a4.48,4.48,0,0,0-.73-.57,9.4,9.4,0,0,0-1.13-.49l-.19-.08a2,2,0,0,0-.43-.05,1.36,1.36,0,0,0-.8,0,1.47,1.47,0,0,0-.76.2,1.4,1.4,0,0,0-.47.24l-.06,0a1.68,1.68,0,0,0-1,1.16,2.94,2.94,0,0,0-.32,1.37,2.86,2.86,0,0,0,.07.57A5.33,5.33,0,0,0,29.3,62l.09.33c.12.28.24.56.35.84a2.83,2.83,0,0,0,.46.63,3.65,3.65,0,0,0,.35.43l.69.53.05,0a8.93,8.93,0,0,0,.85.35l.14.06h.07l.81.11L34,65.2l.73-.3.61-.48a4.56,4.56,0,0,0,.51-.65,1,1,0,0,0,.08-.14.43.43,0,0,1,0-.07,6.5,6.5,0,0,0,.36-.86l.12-.92Z"/><path class="cls-2" d="M38.92,78.67l-.14-.07h0l0,0-.07-.08h0a2.52,2.52,0,0,0-.12-.29L38.41,78a1.27,1.27,0,0,1-.13-.19,1.74,1.74,0,0,0-.27-.38,3,3,0,0,0-.39-.31l.27.21a3.11,3.11,0,0,1-.33-.29,2,2,0,0,0-.35-.3,2.14,2.14,0,0,1-.43-.42l.15.2a1.79,1.79,0,0,0-.46-.49l-.07,0c-.06,0,0,0,0,0a.71.71,0,0,0-.52-.16.72.72,0,0,0-.5.33,1.24,1.24,0,0,0-.28.72,1.88,1.88,0,0,0,0,.41,3.42,3.42,0,0,0,.12.7l.06.19a1.91,1.91,0,0,0,.42.71,3.11,3.11,0,0,0,.31.32,1.77,1.77,0,0,0,.71.44l.5.07a2.67,2.67,0,0,0,.4,0,1.29,1.29,0,0,0,.82-.34c.16-.08.32-.15.48-.24A.29.29,0,0,0,38.92,78.67Z"/><path class="cls-2" d="M64.72,80.25a4.41,4.41,0,0,0-1.11-1.9,4.25,4.25,0,0,0-1.91-1.11,4.91,4.91,0,0,0-2.66.05,5.17,5.17,0,0,0-2.71,2.09,2.39,2.39,0,0,1-.13.21c-.07.12-.16.24-.24.35a4.78,4.78,0,0,0-.61,2.37,3.86,3.86,0,0,0,.54,2,3.94,3.94,0,0,0,1.42,1.42,4.89,4.89,0,0,0,2.34.64,6.11,6.11,0,0,0,1.56-.25,4.74,4.74,0,0,0,3-2.22,8.4,8.4,0,0,0,.52-1.23A4.39,4.39,0,0,0,64.72,80.25Z"/><path class="cls-2" d="M80,65.94c-.36.13-.71.25-1.07.35h-.16l-.25,0a4,4,0,0,0-.78.08l-.56.14a3.48,3.48,0,0,0-.77.32,1.61,1.61,0,0,0-.74.72,2.72,2.72,0,0,0-.19.47.47.47,0,0,0,0,.17s0,0,0,.08v0a.85.85,0,0,0,.08.37l-.06-.11.09.21a1,1,0,0,0,.33.33,1.51,1.51,0,0,0,.37.15l.22.06a1.59,1.59,0,0,0,1.07-.14,2.81,2.81,0,0,0,.75-.43l.46-.39a5.55,5.55,0,0,0,.76-1l.15-.18.19-.21.42-.5C80.42,66.21,80.28,65.84,80,65.94Z"/><path class="cls-2" d="M106.45,58.26a2.5,2.5,0,0,0-.4-1.26c0-.06,0-.12-.08-.17a1.71,1.71,0,0,0-.57-.76l-.7-.54a5.54,5.54,0,0,0-.87-.37,3.59,3.59,0,0,0-1.84,0,3.54,3.54,0,0,0-2.43,2.43,3.63,3.63,0,0,0,0,1.85c.06.15.13.29.19.44a2.58,2.58,0,0,0,.72,1.12,2.66,2.66,0,0,0,1.12.73,4.22,4.22,0,0,0,.45.18l.19.06.9.12L104,62l.81-.35a2.46,2.46,0,0,0,.94-.87,1.7,1.7,0,0,0,.44-.74,1.73,1.73,0,0,0,.23-.86A1.68,1.68,0,0,0,106.45,58.26Z"/><path class="cls-2" d="M113.67,80.08a2.69,2.69,0,0,0-.11-.79s0-.06,0-.08a3.39,3.39,0,0,0-.89-1.53l-.11-.09,0,0h0l0,0c-.19-.17-.41-.32-.61-.47l0,0-.82-.34-.9-.12a2.55,2.55,0,0,0-1.31.29,1.68,1.68,0,0,0-.75.44,1.62,1.62,0,0,0-.61.61,1.68,1.68,0,0,0-.44.75,2.57,2.57,0,0,0-.29,1.31.17.17,0,0,0,0,.07,1.24,1.24,0,0,0,.06.47,1.61,1.61,0,0,0,.07.49l.35.83.54.69a6,6,0,0,0,.74.57l.82.35.91.12.91-.12a2.55,2.55,0,0,0,1.17-.62,3.46,3.46,0,0,0,1.29-2.23,3.31,3.31,0,0,0,0-.55v.07A.15.15,0,0,1,113.67,80.08Z"/></g></g></svg>