<svg xmlns="http://www.w3.org/2000/svg" viewBox="0 0 79.94 132.94"><defs><style>.cls-1{fill:#d8854a;}.cls-2{fill:#cf652d;}.cls-3{fill:#de9a5e;}.cls-4{fill:#e7b68c;}.cls-5{fill:#763e19;}.cls-6{fill:#fff;}.cls-7{fill:#b25927;}</style></defs><g id="Lager_2" data-name="Lager 2"><g id="OBJECTS"><path class="cls-1" d="M79.78,40.58a1.21,1.21,0,0,1,0-.18c1.22-4.79-8.07-7-11.28-7.19A25.09,25.09,0,0,0,58.3,34.56l-.71.29a26.34,26.34,0,0,0-2.91-2.57c1-.53,1.88-1.09,2.79-1.67,1.2-.76,2.4-1.51,3.67-2.15l.48-.23.57-.17q2.46-1,1.23-.51c-.39.16-.41.17-.08,0l.94-.35a33.87,33.87,0,0,1,4.34-1.17l.73-.09c-.26,0-.4,0,.2-.07l.19,0a.36.36,0,0,0,.11,0l-.07,0a14.37,14.37,0,0,0,3.43-.67c2.56-.89,4.8-3.23,4.67-6.14a6.62,6.62,0,0,0-4.67-6.14c-2.74-.89-5.66-.38-8.4.28a30.22,30.22,0,0,0-6.69,2.63,14,14,0,0,0-1.3.74l-1.34,1A35.1,35.1,0,0,1,52.41,20a19.58,19.58,0,0,0-4.65,5.29,22.3,22.3,0,0,0-1.37,3h-.06a20.39,20.39,0,0,0-2.42-.41l.54-1.24c.24-.58.52-1.15.77-1.73.15-.35.22-.52.24-.59l.14-.3c.64-1.38,1.35-2.72,1.85-4.15,0-.11.06-.18.08-.24.24-.46.46-.94.71-1.4.48-.88,1-1.71,1.53-2.56.07-.11.11-.17.14-.23l.13-.13c.3-.34.59-.68.91-1,1.94-2,4.16-3.41,4.93-6.34A6.39,6.39,0,0,0,48.11.18c-2.8.67-5.19,2.89-7,5a27.25,27.25,0,0,0-4.43,6.58,19.73,19.73,0,0,0-2.07,8.69,30.06,30.06,0,0,0,.66,7.43c0,.23,0,.45.05.68a25.19,25.19,0,0,0-4.48,1.67c0-.8,0-1.6-.05-2.4a30.66,30.66,0,0,0-3.08-10.45c-1.23-2.71-2.65-5.33-4.08-7.94A31.53,31.53,0,0,0,21,5.15a8.6,8.6,0,0,0-3.84-2.76c.94.44.65.33-.86-.33a6.38,6.38,0,0,0-1.84-.2A5.08,5.08,0,0,0,10,4.39a6.81,6.81,0,0,0-.82,2.38c-.34,2.52.25-1.8-.13,1a8.91,8.91,0,0,0,1.21,5.35c.88,1.71,1.85,3.38,2.75,5.09s1.81,3.36,2.69,5.05c.2.37.39.75.58,1.12,0,.08.3.65.44.94L17,26c.18.49.33,1,.48,1.48.47,1.67.86,3.37,1.26,5.06.5,2.12,1.34,3.09,1.84,4.84a30.54,30.54,0,0,0-3.83-6c-2.16-2.66-5.16-5.6-8.57-6.37A6.52,6.52,0,0,0,1.4,27.31C0,29.16-.64,32.44.9,34.47a13.71,13.71,0,0,0,2.91,3.08l.35.26.07,0a32,32,0,0,1,2.55,2.53l.25.3.08.11c.32.51.67,1,1,1.51s.61,1,.88,1.58l.24.5c.38,1.19.73,2.4,1.17,3.56a10.79,10.79,0,0,0,1.56,3.24,56.07,56.07,0,0,0-3.52,9.89,64.07,64.07,0,0,0,3.06,39.41c3.77,9.42,9.29,19.12,17.84,25.27,9,6.5,23.68,10.53,33.52,3.42a26.38,26.38,0,0,0,10-14.9c3.43-13.24-2.85-25.54-6-38.07-.4-1.55-.66-3.12-1-4.69l0-.07c0-.33-.07-.65-.1-1-.08-.85-.12-1.7-.13-2.55,0-3.36.45-6.69.48-10.05a36.83,36.83,0,0,0-2.37-13.66l.61-.12.52-.09.24,0c.49,0,1-.08,1.47-.09,1.2,0,2.38.09,3.58.09C72.66,44,78.77,43.65,79.78,40.58Z"/><path class="cls-1" d="M55.15,17.89l.33-.26.13-.12Z"/><path class="cls-1" d="M69.35,26a1.36,1.36,0,0,0,.43-.09h0A1.61,1.61,0,0,1,69.35,26Z"/><path class="cls-2" d="M60.3,105.74c-3.39-1.68-7-2.82-10.38-4.57A68.6,68.6,0,0,1,40.16,95,47.34,47.34,0,0,1,25.79,77.35c-1.81-3.88-3.29-7.9-5-11.83C20,63.68,19.31,61.43,17.9,60a4.22,4.22,0,0,0-5.43-.67c-3.16,2.13-3.12,7.07-3.29,10.45a57.35,57.35,0,0,0,.67,11.85,48.22,48.22,0,0,0,6.61,18.52,76.47,76.47,0,0,0,5.43,10.58,77.91,77.91,0,0,0,6.93,9.52c2.49,2.92,5.17,5.89,8.49,7.86a16.7,16.7,0,0,0,11.8,2.09,29.14,29.14,0,0,0,11.32-4.82,13.84,13.84,0,0,0,6-10C66.76,110.9,64.11,107.62,60.3,105.74Z"/><path class="cls-3" d="M63.08,55.36a29.38,29.38,0,0,0-.78-5.1A14.74,14.74,0,0,0,59.76,45c-.73-1-1.59-2.46-2.46-3.58a45.2,45.2,0,0,0-6.43-6.83c-1.72-1.45-4.91-3.69-7.06-1.8a.13.13,0,0,0,0,.19,29.09,29.09,0,0,1,3.22,1.58,12.6,12.6,0,0,1,2.94,3,23.16,23.16,0,0,1,3.37,7.18c.2.64.38,1.29.52,2A9.55,9.55,0,0,1,54,48.14c.12,1.51.47,3,.73,4.43.12.67.22,1.35.34,2,0,.13.07.45.08.54q.06.42.09.84c.08.79.09,1.58.19,2.36a4.38,4.38,0,0,0,2.2,3.14,3.26,3.26,0,0,0,3.32,0,4.47,4.47,0,0,0,2.27-3.66A22.48,22.48,0,0,0,63.08,55.36Z"/><path class="cls-4" d="M60,50.91a17.88,17.88,0,0,0-.47-3.64A13,13,0,0,0,58.23,44a6.7,6.7,0,0,0-1-1.32,2.88,2.88,0,0,0-1.18-.95.15.15,0,0,0-.19.15,3.68,3.68,0,0,0,.27,1.34c.14.5.24,1,.39,1.49a25.06,25.06,0,0,1,.7,3.06,15.85,15.85,0,0,1,.25,3c0,1-.36,2.29.27,3.19a.92.92,0,0,0,1.24.33,2.31,2.31,0,0,0,1-1.6A9.25,9.25,0,0,0,60,50.91Z"/><path class="cls-3" d="M10.35,29.79a3,3,0,0,0-1.81-2.14,5.28,5.28,0,0,0-2-.42,2.44,2.44,0,0,0-.88.16,3.19,3.19,0,0,0-.48.19,1,1,0,0,0-.35.34h0l0,0h0a.85.85,0,0,0-.09.59,1.27,1.27,0,0,0,.13.32.7.7,0,0,0,.13.17.76.76,0,0,0,.1.14c.07.1.13.2.21.3.23.3.51.56.75.85a4.83,4.83,0,0,0,.41.49c.07.07.13.15.2.23a6.5,6.5,0,0,0,.65.49l-.09-.07a2.26,2.26,0,0,0,.75.41,2.11,2.11,0,0,0,.93.06,1.76,1.76,0,0,0,1.49-1.26A1.84,1.84,0,0,0,10.35,29.79Z"/><path class="cls-3" d="M20,8.93a2.63,2.63,0,0,0-.4-1.24,12,12,0,0,0-1-1.45c-.15-.19-.31-.38-.47-.56a3,3,0,0,0-.77-.56,2.68,2.68,0,0,0-.83-.37,3.32,3.32,0,0,0-.77,0,.42.42,0,0,0-.39.52,5.72,5.72,0,0,0,.11.57,3.86,3.86,0,0,0,.35.74c.06.11.11.22.17.32a3.42,3.42,0,0,0,.33.51l-.06-.08.11.15.21.3A9.79,9.79,0,0,1,17.33,9c.28.59.78,1.31,1.5,1.35a.77.77,0,0,0,.81-.32A1.57,1.57,0,0,0,20,8.93Z"/><path class="cls-3" d="M51,3.67c0,.19,0,.17,0-.06a.8.8,0,0,0-.32-.41c.12.07.11.07,0,0A.67.67,0,0,0,50.32,3a.8.8,0,0,0-.15,0l-.25,0a4.2,4.2,0,0,0-.61-.06,3.7,3.7,0,0,0-.72.11,4.08,4.08,0,0,0-1.67.82c-.31.24-.63.48-.93.73a5.32,5.32,0,0,0-.79,1,3.45,3.45,0,0,0-.2.32,2.45,2.45,0,0,0-.23,1.74,2,2,0,0,0,.61,1,1.84,1.84,0,0,0,1.26.52l.16,0a2.06,2.06,0,0,0,.94-.27,2.25,2.25,0,0,0,.52-.4,4.81,4.81,0,0,0,.47-.62A7.51,7.51,0,0,0,49.27,7c.1-.16.22-.31.33-.46a4,4,0,0,1,.33-.39,5.27,5.27,0,0,0,.62-.94,4.14,4.14,0,0,0,.35-.84A1.54,1.54,0,0,0,51,3.92Z"/><path class="cls-3" d="M71.71,16.56c-.1,0-.1-.06,0,0a2,2,0,0,0-.32-.22l-.32-.15a4.43,4.43,0,0,0-.7-.32,3.13,3.13,0,0,0-.44-.1,5.18,5.18,0,0,0-1.46-.19l-.25,0a3.23,3.23,0,0,0-1,.2,4.28,4.28,0,0,0-.66.37,2.12,2.12,0,0,0-1,1.78,2,2,0,0,0,1,1.77,5.5,5.5,0,0,0,.9.4,3.57,3.57,0,0,0,1.56,0,3.48,3.48,0,0,0,1.37-.62,3.79,3.79,0,0,0,.71-.51,4.6,4.6,0,0,0,.47-.62l.2-.31a4,4,0,0,1,.19-.4s0,0,0,0l.06-.11A.76.76,0,0,0,71.71,16.56Z"/><path class="cls-3" d="M77.25,37.34l-.18-.17a2.13,2.13,0,0,0-.91-.49,3.59,3.59,0,0,0-1-.13l-.62,0a1.73,1.73,0,0,0-.8.21l-.11.06-.2.13a1.24,1.24,0,0,0-.62,1.08,2.36,2.36,0,0,0,0,.28v0l0,.08a.31.31,0,0,0,0,.08,2.4,2.4,0,0,0,.53.73,3.11,3.11,0,0,0,1.21.59,3.74,3.74,0,0,0,1.05.19,2,2,0,0,0,.69-.07,5.51,5.51,0,0,0,.61-.28,1.39,1.39,0,0,0,.71-1.07A1.45,1.45,0,0,0,77.25,37.34Z"/><path class="cls-4" d="M9.53,29.23a.8.8,0,0,0-.2-.36l-.13-.13-.53-.5A1.43,1.43,0,0,0,8.31,28L8,27.8a.65.65,0,0,0-.23-.09l-.16,0-.34,0c-.08,0-.13.08-.12.15l.06.31a1.2,1.2,0,0,0,.13.36l.17.31a1.39,1.39,0,0,0,.31.37l.52.49a1,1,0,0,0,.47.31l.34.07a.44.44,0,0,0,.38-.1.4.4,0,0,0,.1-.38C9.58,29.43,9.55,29.33,9.53,29.23Z"/><path class="cls-4" d="M19.92,8.44l-.17-.18,0,0a.18.18,0,0,0-.05-.07,1.8,1.8,0,0,0-.37-.53c-.14-.12-.26-.26-.4-.38a3.47,3.47,0,0,1-.32-.34,2.85,2.85,0,0,1-.23-.37,1.34,1.34,0,0,0-.22-.36,1.23,1.23,0,0,0-.43-.28.63.63,0,0,0-.61.16,1,1,0,0,0-.2,1,5.42,5.42,0,0,0,.22.56,3.7,3.7,0,0,0,.62.9,1.86,1.86,0,0,0,.5.37,1.69,1.69,0,0,0,.36.17A1.15,1.15,0,0,0,19,9a2.89,2.89,0,0,0,.92-.23A.23.23,0,0,0,19.92,8.44Z"/><path class="cls-4" d="M49.25,3.34l-.41.22a3.25,3.25,0,0,0-.52.28,3.66,3.66,0,0,0-.44.44l-.18.19-.1.09a1.38,1.38,0,0,0-.27.45l.09-.21a1.28,1.28,0,0,0-.2.91l0,.09h0v.05a.17.17,0,0,0,.11.2h.1l0,0a.89.89,0,0,0,.71.09,1.91,1.91,0,0,0,.68-.35,4.15,4.15,0,0,0,.27-.32c.13-.15.25-.31.37-.48a1.46,1.46,0,0,0,.2-.71,5.61,5.61,0,0,0,0-.71A.32.32,0,0,0,49.25,3.34Z"/><path class="cls-4" d="M72.33,16.15h-.51a1.66,1.66,0,0,0-.32,0h-.14l-.54.05a1.48,1.48,0,0,0-.5.13l-.13.05c-.33.14-.67.26-1,.38a2.3,2.3,0,0,0-.57.27,1.82,1.82,0,0,0-.23.15.51.51,0,0,0-.23.23.32.32,0,0,0-.07.19.39.39,0,0,0,.14.53.33.33,0,0,0,.16.15.69.69,0,0,0,.32.08l.28,0a2.39,2.39,0,0,0,.7-.08c.34-.09.69-.2,1-.31L71,18a1.54,1.54,0,0,0,.49-.3c.13-.09.25-.19.37-.29a5,5,0,0,0,.73-.8C72.7,16.39,72.52,16.14,72.33,16.15Z"/><path class="cls-4" d="M78,38.06c0-.05,0-.1,0-.15a.36.36,0,0,0-.44-.34l-.19-.07a1.09,1.09,0,0,0-.53-.13,2.26,2.26,0,0,1-.26,0,.77.77,0,0,0-.26,0h-.37a1,1,0,0,0-.17,0,1,1,0,0,1-.25,0h.08a.62.62,0,0,0-.74.77,2,2,0,0,0,.23.63,1.62,1.62,0,0,0,1.32.7A1.65,1.65,0,0,0,77.68,39,1.26,1.26,0,0,0,78,38.06Z"/><path class="cls-5" d="M44.42,47c-.06-.11-.14-.19-.21-.3a3,3,0,0,0-.32-1.34,3.06,3.06,0,0,0-.82-1.28l-.81-.62A3,3,0,0,0,40.79,43a2.08,2.08,0,0,0-1,0,3,3,0,0,0-1.48.47l-.8.62a4,4,0,0,0-1,1.75c0,.35-.1.71-.14,1.06h0v0c-.06.47-.11,1-.15,1.42A4.59,4.59,0,0,0,36,49.62V51a7.66,7.66,0,0,0,.17,1.72,3.45,3.45,0,0,0,.8,1.51,3.35,3.35,0,0,0,1.25,1.14l1.06.45a3.33,3.33,0,0,0,1.77.08,2.25,2.25,0,0,0,1.13-.3,3.42,3.42,0,0,0,1.43-.92l.69-.9A4.44,4.44,0,0,0,45,51.52c0-.4.06-.81.1-1.22l0-.59A4.4,4.4,0,0,0,44.42,47Z"/><path class="cls-5" d="M60.17,62.78a5.22,5.22,0,0,0-4.67-3.35c-2-.39-3.92.35-5.73,1.21a24,24,0,0,1-2.66.74,27.47,27.47,0,0,1-8.34.44,19.09,19.09,0,0,1-7.54-2.38c-1.66-1-3.24-2.12-5.08-2.31h-.1a5.31,5.31,0,0,0-1.62.11c-5.16,1.24-6,7.31-4.13,11.49,4.05,9.31,16,11.7,24.93,9.66,4.88-1.11,10.44-3.56,13.35-7.82A8.89,8.89,0,0,0,60,66.44,4.68,4.68,0,0,0,60.17,62.78Z"/><path class="cls-6" d="M59.05,61a5.33,5.33,0,0,0-3.55-1.6c-2-.39-3.92.35-5.73,1.21a24,24,0,0,1-2.66.74,27.47,27.47,0,0,1-8.34.44,19.09,19.09,0,0,1-7.54-2.38c-1.66-1-3.24-2.12-5.08-2.31h-.1a5.58,5.58,0,0,0-1.15,0c.38,3.55,1,7.09,1.52,10.62.06.38.57.43.81.21a16.71,16.71,0,0,1,4.5-3.29c1.63-.66,1.95.62,2.56,1.71l1.54,2.75a.64.64,0,0,0,1,.13l2.41-2.47a5.75,5.75,0,0,1,1-1c.77-.43,1,.41,1.41,1,.8,1.12,1.67,2.93,3.05,3.47a2.25,2.25,0,0,0,2.75-1.12c.85-1.32,1.23-2.58,2.51-3.29.58,1.74,3,2.45,4.75,1.46a8.72,8.72,0,0,0,2.92-3.57C58.15,62.8,58.6,61.92,59.05,61Z"/><path class="cls-6" d="M55,73.28c-.83-1-2.08-3.18-3.58-3-1,.09-1.69,1.11-2.32,1.72a22.47,22.47,0,0,1-2.82,2.7c-.42.28-.19.3-.8.26a1.94,1.94,0,0,1-1.1-.49,12.78,12.78,0,0,1-1.27-1,12.57,12.57,0,0,1-2.21-2.86.55.55,0,0,0-.86-.11l-4.76,4.1c-.67.57-1.15,1.19-2.28.82a5.83,5.83,0,0,1-1.13-.75l-2.68-1.8a.48.48,0,0,0-.56.07,20.21,20.21,0,0,0-2.3,2.78c5.41,3.45,12.82,4.11,18.9,2.73a26.52,26.52,0,0,0,10.23-4.57Z"/><path class="cls-7" d="M52,122.1a6,6,0,0,1-.86-.69c-.21-.42-.51-1-.92-1.13l-.07-.06A4.18,4.18,0,0,0,48.88,119a12.27,12.27,0,0,0-3-1l-1.18-.41-.27-.1-.23-.13c-.81-.42-1.61-.82-2.39-1.3-.41-.26-.82-.53-1.22-.81l-.62-.48c-.62-.51-1.22-1-1.79-1.57a44.34,44.34,0,0,1-3.77-4.11c-2.27-2.76-4.48-5.7-7.1-8.71a56.55,56.55,0,0,0-3.88-4.44c-.67-.62-1.43-1.11-2.07-1.75a19.15,19.15,0,0,0-1.8-1.69,5.59,5.59,0,0,0-.72-1.6c-.48-.7-1-1.38-1.49-2.07a9.11,9.11,0,0,0-2.73-3,.15.15,0,0,0-.23.13c-.2,1.49.51,2.87,1,4.22l.84,2.1a5,5,0,0,0,1.06,1.55,12.79,12.79,0,0,0,.61,2.4c.33,1,.41,2,.76,3a48,48,0,0,0,2.9,6.16,56.4,56.4,0,0,0,7.29,10.47,36.35,36.35,0,0,0,9.1,8,23.08,23.08,0,0,0,6,2.5c1.53.38,3.42.71,4.84-.21l.55-.42c-.06,0,0,0,.25-.14a4.14,4.14,0,0,0,1.45-1.43c.34-.36.62-.73,1-1.14A.57.57,0,0,0,52,122.1Z"/><path class="cls-2" d="M26.91,42a1.9,1.9,0,0,0-.08-.36l.05.4a1.26,1.26,0,0,0-.17-.67l.06-.11a.37.37,0,0,0-.42-.54l-.2,0a1.28,1.28,0,0,0-.38-.16.77.77,0,0,0-.15,0,2.06,2.06,0,0,0-1.5.18l-.18.09a2.92,2.92,0,0,0-.73.58,4.74,4.74,0,0,0-.6.74c-.09.15-.16.32-.24.48s-.19.43-.28.65a2.37,2.37,0,0,0-.22.88c0,.07,0,.14,0,.21a3.32,3.32,0,0,0,0,.63,2.87,2.87,0,0,0,.28.84,1.23,1.23,0,0,0,.63.54,1.37,1.37,0,0,0,.87.07,3.23,3.23,0,0,0,.65-.25,3.82,3.82,0,0,0,.46-.36,2.64,2.64,0,0,0,.41-.32,2.88,2.88,0,0,0,.22-.27c.15-.18.32-.36.48-.54A3.42,3.42,0,0,0,26.91,42Z"/><path class="cls-2" d="M44.09,35.52a1.84,1.84,0,0,0-.47-.81,1.84,1.84,0,0,0-.67-.66,1.86,1.86,0,0,0-.81-.48,2.77,2.77,0,0,0-1.42-.32l-.55.08-.39.05a2.39,2.39,0,0,0-1.05.29,2.92,2.92,0,0,0-1.25.8l-.06.05A4.21,4.21,0,0,0,37,35a2,2,0,0,0-.49.84c-.07.16-.14.32-.2.48s0,.09,0,.13l0,.1c0,.06,0,.12,0,.17a2.52,2.52,0,0,0-.11.61,1.75,1.75,0,0,0,0,.85,1.57,1.57,0,0,0,.2.76,2.3,2.3,0,0,0,.63,1,4.67,4.67,0,0,0,.9.62l0,0a3.29,3.29,0,0,0,1,.39L39,41a3.15,3.15,0,0,0,1.63.06,4.55,4.55,0,0,0,.66-.1A4.24,4.24,0,0,0,43,39.91l.3-.35.58-.75c.12-.3.24-.59.37-.88s.09-.66.13-1A2.8,2.8,0,0,0,44.09,35.52Z"/><path class="cls-2" d="M51.66,54.11l-.12-.28a1.06,1.06,0,0,0-.42-.42,1.44,1.44,0,0,0-.93-.32c-.25,0-.51.06-.76.1l-.2,0a.67.67,0,0,0-.26.09,1.22,1.22,0,0,0-.48.3l-.23.3a3.71,3.71,0,0,0-.19.46.65.65,0,0,0,0,.13c0,.11,0,.21-.05.32a.88.88,0,0,0,.11.45,1.06,1.06,0,0,0,.48.56l.13.07.07,0a2.54,2.54,0,0,0,.38.16,1.07,1.07,0,0,0,.59,0,1.09,1.09,0,0,0,.55-.18l.05,0,.11-.06.09,0,0,0,.33-.14a1.09,1.09,0,0,0,.17-.13.6.6,0,0,0,.25-.25.58.58,0,0,0,.11-.15l0,0,.07-.1A1.18,1.18,0,0,0,51.66,54.11Z"/><path class="cls-2" d="M45.67,85.25a1.68,1.68,0,0,0-.27-.86,2.67,2.67,0,0,0-.82-.82,2.62,2.62,0,0,0-1.77-.23,3.52,3.52,0,0,0-.9.33,2.77,2.77,0,0,0-.9.87l-.09.15a4,4,0,0,0-.46,1,1.81,1.81,0,0,0,.33,1.62,1.31,1.31,0,0,0,.52.47,1.92,1.92,0,0,0,.93.26h.13l.35,0H43a3.09,3.09,0,0,0,2-.92l.36-.47a1.64,1.64,0,0,0,.27-.85A1.06,1.06,0,0,0,45.67,85.25Z"/><path class="cls-2" d="M64.81,85.22a2.12,2.12,0,0,0-.56-1A3.26,3.26,0,0,0,63,83.14l-1-.44a4.52,4.52,0,0,0-2.31,0,3.73,3.73,0,0,0-1.46.52,8.36,8.36,0,0,0-1.21.94,3.39,3.39,0,0,0-.91,1.15,5.08,5.08,0,0,0-.65,2.3l.14,1A2.94,2.94,0,0,0,56.31,90a1.86,1.86,0,0,0,.71.71,2.94,2.94,0,0,0,1.35.71,5.53,5.53,0,0,0,1.41.19,4.57,4.57,0,0,0,1.46-.21c.13,0,.27,0,.4-.09a3.74,3.74,0,0,0,1.4-.68,3.34,3.34,0,0,0,1.21-1.12A3.17,3.17,0,0,0,65,88l.16-1.15A3.29,3.29,0,0,0,64.81,85.22Z"/><path class="cls-2" d="M69.64,99.41v0Z"/><path class="cls-2" d="M69.57,99a.37.37,0,0,0,.05-.11c.1-.2,0-.53-.28-.5l-.11,0h-.09s-.09-.07-.15-.1a1.24,1.24,0,0,0-.53-.18l-.08,0L67.94,98l-.45.06a4.22,4.22,0,0,0-.45.18l-.21.09a1.54,1.54,0,0,0-.38.23,1,1,0,0,0-.31.32,1.56,1.56,0,0,0-.16.2l-.06.08a.9.9,0,0,0-.13.26,1.25,1.25,0,0,0-.1.27l0,.15a3.15,3.15,0,0,0,0,.43c0,.06,0,.15,0,.24a.24.24,0,0,0,0,.08s0,.08,0,.1v0a1.16,1.16,0,0,0,.2.42L65.8,101a1,1,0,0,0,.12.16l0,.06h0a1.46,1.46,0,0,0,.84.48,2.07,2.07,0,0,0,1,0,2,2,0,0,0,.41-.15.84.84,0,0,0,.39-.22l.2-.16a.6.6,0,0,0,.08-.08l.17-.18a1.9,1.9,0,0,0,.54-1.23,2,2,0,0,0,0-.26,3,3,0,0,0-.07-.46Z"/><path class="cls-5" d="M46,36.56c-.41.3-.8.62-1.23.88a17.07,17.07,0,0,0-1.43,1.11,6.92,6.92,0,0,1-3,1.52,4.49,4.49,0,0,1-3.16-.57,9.56,9.56,0,0,1-1.53-1c-.36-.3-.73-.78-1.22-.85a.21.21,0,0,0-.22.09c-.71,1.05,1.15,2.66,1.86,3.2a6.83,6.83,0,0,0,4.3,1.53,7.2,7.2,0,0,0,4.37-1.8,5,5,0,0,0,1.72-3.89C46.45,36.61,46.17,36.41,46,36.56Z"/></g></g></svg>