<svg xmlns="http://www.w3.org/2000/svg" viewBox="0 0 122.56 121.15"><defs><style>.cls-1{fill:#b2b541;}.cls-2{fill:#999c39;}.cls-3{fill:#ccd56b;}.cls-4{fill:#e5e48e;}.cls-5{fill:#777b2d;}.cls-6{fill:#3a3e14;}.cls-7{fill:#fff;}</style></defs><g id="Lager_2" data-name="Lager 2"><g id="OBJECTS"><path class="cls-1" d="M12.28,33.42l.1.12.06.06a1.94,1.94,0,0,0-.25-.29c-.11-.15-.22-.29-.34-.43.12.14.23.29.34.43h0Z"/><path class="cls-1" d="M119.56,78.53a11.22,11.22,0,0,0-3.77-2.21c-1.27-.51-2.55-.93-3.85-1.35s-2.57-.77-3.88-1.08a11.43,11.43,0,0,1-1.44-.46,44.31,44.31,0,0,0,1.06-11.64,40.7,40.7,0,0,0,4.45,1.7,13.39,13.39,0,0,0,6.13.43c.95-.17,3,0,3.69-.75,1.86-1.94-1-3.43-2.54-3.89a58,58,0,0,1-6.14-2.18,27,27,0,0,0-6.41-2,39.35,39.35,0,0,0-4.23-10.81l.48-.05c.42,0,.82,0,1.41-.14l.69-.11.66-.12.59-.06.49-.08.44-.05c.35,0,.7-.08,1-.13a19.83,19.83,0,0,0,3.22-.85,20.84,20.84,0,0,0,3.51-1.39,6.65,6.65,0,0,0,3.69-5.61c.2-2.2-1.69-4.12-3.62-4.75-3.42-1.11-6.08,1.39-8.41,3.46-.67.6-1.41,1.14-2.06,1.75s-1.21,1.28-1.86,1.88l-.16.11c-.18.15-.37.29-.56.42-.47.36-.72.61-1.09.89s-.71.52-1.07.76a55.22,55.22,0,0,0-8.86-9.62l.28-.13c.38-.18.83-.3,1.17-.47l.68-.39c1-.55,1.9-1.08,2.8-1.72a40,40,0,0,0,3.54-2.81,12.37,12.37,0,0,0,1.15-1.14,8.52,8.52,0,0,0,1.54-2.62,6.63,6.63,0,0,0,.72-2.65,5.16,5.16,0,0,0-1.13-3.18c-1.19-1.54-3.57-2.62-5.52-1.88L95.34,14a8.69,8.69,0,0,0-2.27,1.16c-.33.25-.65.5-1,.77a20.78,20.78,0,0,0-1.92,1.95,36.82,36.82,0,0,0-3.76,5.27,12.8,12.8,0,0,0-.78,1.63c.08-.19.11-.32-.05,0s-.25.64-.37,1c0-.05-.06,0-.15.2l-1.49-1a47,47,0,0,0-7.85-3.89l.17-.31c.63-1.09,1.35-2.1,2-3.16,1.34-2.12,2.61-4.28,3.93-6.42,1.49-2.4,3.57-5.15,2.75-8.12a2.64,2.64,0,0,0-3.16-1.8C78.68,1.74,77.2,4.64,76,6.89a39.73,39.73,0,0,0-2.84,6.85,56.84,56.84,0,0,0-1.4,6A53.73,53.73,0,0,0,60.7,17.71c.08-1.13.18-2.26.22-3.4.07-1.85.14-3.65,0-5.5s.16-4.36-.44-6.24a3.51,3.51,0,0,0-6.76,0c-.45,2,0,4.22.17,6.24a38,38,0,0,0,1.11,6.08c.24.91.53,1.81.83,2.7a42.65,42.65,0,0,0-10.73,1.54c0-1.25,0-2.5,0-3.76,0-2-.18-4.06-.39-6.06-.25-2.56-.11-5.2-2.41-6.86a2.68,2.68,0,0,0-3.2.41c-2,1.87-1.3,5.12-1,7.53a27.45,27.45,0,0,0,1.81,7c.43,1,.87,2,1.32,3.07A31.36,31.36,0,0,0,33.57,25c-.29.23-.57.48-.86.72-.68-1.08-1.36-2.16-2-3.24-.77-1.28-1.58-2.54-2.35-3.82-.39-.65-.77-1.31-1.16-2a7,7,0,0,0-2.89-2.87,3.47,3.47,0,0,0-5.15,3,6.86,6.86,0,0,0,1.08,4c.4.7.81,1.4,1.22,2.09a39.93,39.93,0,0,0,3.11,4.53,18.45,18.45,0,0,0,3.37,3.24,42.37,42.37,0,0,0-6.36,10.94,27,27,0,0,0-3-2.75c-1.31-1-2.57-2.16-3.87-3.22-.66-.54-1.36-1-2-1.65a3.83,3.83,0,0,1-.28-.29.75.75,0,0,1,.07.12l-.23-.3c-.07-.07-.09-.1-.09-.11-.33-.33-.56-.8-.89-1.14a4.06,4.06,0,0,0-4.43-.84A4,4,0,0,0,4.38,35c.25,3.06,2.35,4.77,4.6,6.5a41.74,41.74,0,0,0,4.86,3.11,17.18,17.18,0,0,0,5.94,2.19A46.57,46.57,0,0,0,18.25,57c0,1,0,2,0,3a18.63,18.63,0,0,0-4.51-.7c-1.83-.09-3.67,0-5.51,0-2.39,0-5.45-.2-7.12,1.87a4.07,4.07,0,0,0,0,5.58c1.86,2,4.66,1.69,7.12,1.56,1.84-.09,3.68-.16,5.51-.38A18,18,0,0,0,19,66.75c.22,1.14.47,2.27.78,3.38a42.85,42.85,0,0,0,1.49,4.35,21.14,21.14,0,0,0-2.78,1.68A38.17,38.17,0,0,0,13.87,80c-.62.6-1.23,1.21-1.8,1.86l-.7.87a2.37,2.37,0,0,0-.59,1,1.77,1.77,0,0,0-.25.72,4.83,4.83,0,0,0-.46,2,3.88,3.88,0,0,0,1.56,3.1,4.1,4.1,0,0,0,3.44.71,3.51,3.51,0,0,0,1.32-.52,2.86,2.86,0,0,0,.33-.2l.48-.21.92-.71c.13-.12.24-.26.37-.4.59-.63,1.15-1.28,1.72-1.93,1.13-1.25,2.26-2.49,3.35-3.78.34-.41.69-.84,1-1.27A50.73,50.73,0,0,0,34.74,93.35l-.23.12A21.73,21.73,0,0,0,30.3,96.8,29,29,0,0,0,26.88,101a18.09,18.09,0,0,0-1.27,1.87,7.51,7.51,0,0,0-.69,2.05,9.4,9.4,0,0,0-.21,1.41,5,5,0,0,0,.66,2.35,4.1,4.1,0,0,0,3.67,2.1,5.3,5.3,0,0,0,3.26-1.31l.52-.46a9.41,9.41,0,0,0,1.67-2.19q.93-1.45,2-2.82l-.74,1c.78-1,1.53-2,2.29-3a28.22,28.22,0,0,0,2.43-3.24,3.09,3.09,0,0,0,.34-.71A53.7,53.7,0,0,0,50.72,103a18.22,18.22,0,0,0-.84,2.16,33.78,33.78,0,0,0-1.6,8.58c-.25,3.43,1.81,6.89,5.38,7.37a6,6,0,0,0,5.88-2.88,8.28,8.28,0,0,0,1.1-4.32c.1-2.52.27-5.05.6-7.54L61,107.88c.11-.76.18-1.44.21-2.1A39.63,39.63,0,0,0,76.51,105c0,.2,0,.41,0,.62l-.07.18c-.05.38-.1.77-.16,1.16a11.9,11.9,0,0,0-.07,1.2,36.53,36.53,0,0,0,.26,4.31,11.81,11.81,0,0,0,.69,3.18,8.06,8.06,0,0,0,.95,1.88,9.26,9.26,0,0,0,2.29,2.17c2,1.45,5.48.44,6.55-1.71a8.42,8.42,0,0,0,1-4,10.36,10.36,0,0,0-.67-3.37A41.43,41.43,0,0,0,85,105.78a7,7,0,0,0-.54-.87,11.14,11.14,0,0,0-.78-1l-.06,0a4.4,4.4,0,0,0-.49-.73l-.22-.3a40.7,40.7,0,0,0,11-7.33L94.82,97c.2.36.41.71.61,1.06,0,0,.11.2.17.31l.28.67a21.74,21.74,0,0,0,1.3,2.24,43.73,43.73,0,0,0,3.24,4.52,14.73,14.73,0,0,0,1.71,1.82,5,5,0,0,0,5.72.77,4.44,4.44,0,0,0,1.8-5,7.77,7.77,0,0,0-2.36-3.37c-1.41-1.28-2.87-2.47-4.39-3.62-.6-.46-1.19-.91-1.81-1.34l-.49-.34a8.2,8.2,0,0,0-.85-.44l0-.08a2.42,2.42,0,0,0-.59-.45c-.6-.46-1.28-1-2-1.55a43.17,43.17,0,0,0,7.55-12.51c.08.09.12.2.2.28a1.79,1.79,0,0,1,.16.19c.13.18.25.37.39.56a19.75,19.75,0,0,0,1.9,2.19,26.82,26.82,0,0,0,3.13,2.9,10.83,10.83,0,0,0,3.84,2.09c.31.1.61.24.93.32a4.81,4.81,0,0,0,2,.11h0c1.91.21,3.83-1.42,4.51-3a4.7,4.7,0,0,0-.07-3.89A6.44,6.44,0,0,0,119.56,78.53Z"/><path class="cls-2" d="M81.05,85.24c-2.52-2.55-6-3.76-9.38-4.51a49.71,49.71,0,0,1-8.5-2.33l-.24-.11-1-.46c-.59-.29-1.17-.6-1.75-.92a37.44,37.44,0,0,1-3.48-2.24l-.55-.43c-.23-.17-.45-.35-.67-.54-.45-.38-.9-.78-1.34-1.19a38.28,38.28,0,0,1-3-3.12c-.24-.28-.46-.56-.7-.83l-.13-.16-.05-.08c-.4-.52-.79-1.06-1.16-1.61A35.46,35.46,0,0,1,47,63c-.28-.53-.53-1.08-.78-1.62,0-.1-.07-.16-.1-.22L46,60.92c-.13-.33-.26-.67-.38-1a33.74,33.74,0,0,1-1.12-3.8,55.06,55.06,0,0,1-1-9.53C43.29,42.92,43,39,41.19,35.68s-5.68-5.86-9.56-4.79-6,5.38-7,9a53.36,53.36,0,0,0-1.25,10.4c-.63,13.07,1.95,26.74,10.17,37.23a36.61,36.61,0,0,0,21.34,13.29A41.73,41.73,0,0,0,69,103.18c5.75-.09,13.15-2.18,14.85-8.48A9.76,9.76,0,0,0,81.05,85.24Z"/><path class="cls-3" d="M103.57,58.25a34.92,34.92,0,0,0-1.32-4.94,40.12,40.12,0,0,0-4.77-9.56,37.65,37.65,0,0,0-7.13-7.88,40.82,40.82,0,0,0-4.75-3.42,8,8,0,0,0-3.71-1.39,4,4,0,0,0-4.14,2.8c-.7,3.13,1.67,4.6,3.89,6.09l.9.63L83,41c.5.41,1,.82,1.48,1.25a36.57,36.57,0,0,1,3.18,3.29l.69.85.21.25a1.21,1.21,0,0,0,.1.16c.43.6.86,1.19,1.25,1.81a35.14,35.14,0,0,1,2.16,3.83c.19.38.35.76.53,1.14l.12.29c.29.74.55,1.49.79,2.25a36.24,36.24,0,0,1,1,4.26c0,.3.1.59.14.89s0,.33,0,.42c.19,1.61.45,3.31,1.82,4.41,1.73,1.39,4.2,1.76,5.9,0C104.65,63.83,104.08,61,103.57,58.25Z"/><path class="cls-4" d="M98,48.49c0-.17-.06-.57,0-.2a7.07,7.07,0,0,0-.21-1.19,8.75,8.75,0,0,0-.84-1.84,19,19,0,0,0-2-2.68,20.77,20.77,0,0,0-2.08-2c-.75-.65-1.57-1.17-2.31-1.82a4.44,4.44,0,0,0-2.42-1.3,1.34,1.34,0,0,0-1.44,1.27.46.46,0,0,0,.69.39c-.09-.1-.08-.09.05,0a1.08,1.08,0,0,1,.11.18,5,5,0,0,1,.28.67c.22.47.57.87.8,1.33s.45,1.1.73,1.63.52,1,.77,1.54c.48,1,1,2,1.57,2.92a12.06,12.06,0,0,0,1.75,2.65,12.51,12.51,0,0,0,.71,1c.45.54.61.48,1,1a6,6,0,0,1,1.31,2.28c.1.33.65.38.72,0,.15-.89.42-1.76.57-2.65.07-.43.13-.77.21-1.17A4.79,4.79,0,0,0,98,48.49Z"/><path class="cls-5" d="M61.3,94.32c-.13-2.42-2.89-3.71-4.79-4.62A39.17,39.17,0,0,1,51.79,87c-.7-.46-1.38-.94-2.06-1.44l-.14-.11a1.9,1.9,0,0,0-.2-.17l-1.18-1a43.3,43.3,0,0,1-3.71-3.71c-.56-.63-1.09-1.28-1.62-1.94l-.11-.13-.28-.38c-.27-.36-.53-.73-.79-1.1A45.71,45.71,0,0,1,38.65,72c-.43-.83-.83-1.68-1.22-2.53l-.23-.53,0,0c-.22-.54-.43-1.07-.63-1.61-.67-1.83-1.27-3.69-1.82-5.56a33.31,33.31,0,0,0-2.46-6.4A28.9,28.9,0,0,1,31,52.46a14.24,14.24,0,0,0-.52-1.37c-.25-.51-.67-.92-.93-1.44a.53.53,0,0,0-.91,0,14.34,14.34,0,0,0-1.06,2.41c-.24,1-.42,2-.62,3a19.86,19.86,0,0,0-.47,6.47,43.88,43.88,0,0,0,4.12,13.4A49,49,0,0,0,46.28,93.79,40.67,40.67,0,0,0,51.54,97c2.49,1.28,6,2.81,8.34.81a3,3,0,0,0,1.51-1.63A3.1,3.1,0,0,0,61.3,94.32Z"/><path class="cls-2" d="M9.82,50.86a2.41,2.41,0,0,0-.68-.67,6,6,0,0,0-.73-.33A3.3,3.3,0,0,0,8,49.67a2.38,2.38,0,0,0-.53-.05H7a1.58,1.58,0,0,0-1.17.45l-.21.25a1,1,0,0,0,0,1.39l.21.24A1.5,1.5,0,0,0,7,52.41l.42,0a2.11,2.11,0,0,0,.75-.07c.25-.07.51-.12.76-.18a3.7,3.7,0,0,0,.83-.45A.57.57,0,0,0,9.82,50.86Z"/><path class="cls-2" d="M10.16,72.07a.85.85,0,0,0-.23,0h0a1.14,1.14,0,0,0-.54-.14l-.48,0c-.16,0-.33,0-.5,0a3.25,3.25,0,0,0-.82.18,2.6,2.6,0,0,0-.76.29l-.4.22a1.2,1.2,0,0,0-.37.23.7.7,0,0,0-.15.19h0l-.21.11a.33.33,0,0,0-.07.52l.17.16s.06.06.09.07h0a1.12,1.12,0,0,0,.59.52c.24.1.49.21.74.29a2.06,2.06,0,0,0,.89,0,2.4,2.4,0,0,0,1.11-.31,6.55,6.55,0,0,0,.66-.52,1.94,1.94,0,0,0,.53-.73.72.72,0,0,0,0-.22h0a.86.86,0,0,0,.07-.21A.49.49,0,0,0,10.16,72.07Z"/><path class="cls-2" d="M24.69,94.85c0-.13,0-.25,0-.37a.84.84,0,0,0-1.06-.81,2,2,0,0,1-.34.12,3.69,3.69,0,0,0-.81.32,2.65,2.65,0,0,0-.41.18l-.25.18a3,3,0,0,0-.54.4l-.21.23-.2.21a2.32,2.32,0,0,0-.49.88,2.09,2.09,0,0,0-.1.75,1.06,1.06,0,0,0,.23.66,1.27,1.27,0,0,0,.57.39,2.13,2.13,0,0,0,1.32.06,2.55,2.55,0,0,0,.7-.35l.17-.12A2.35,2.35,0,0,0,24,96.9a3.43,3.43,0,0,0,.24-.33,3.8,3.8,0,0,0,.48-1.72Z"/><path class="cls-2" d="M44.13,110.29l-.05-.11h0a.25.25,0,0,0,0-.08.73.73,0,0,0-.66-.54,1,1,0,0,0-.34-.06,1.5,1.5,0,0,0-.66.2l-.35.18a2.73,2.73,0,0,0-1.15.93,4.6,4.6,0,0,0-.54,1.06,3.29,3.29,0,0,0-.1.71,1.88,1.88,0,0,0,.07.5,1.48,1.48,0,0,0,.24.45.91.91,0,0,0,.87.49,1.66,1.66,0,0,0,1.15-.37,2.36,2.36,0,0,0,.59-.59l.11-.15.11-.15v0a2.08,2.08,0,0,0,.35-.54,1.78,1.78,0,0,0,.12-.29c0-.16.07-.32.11-.48a3.74,3.74,0,0,1,.12-.45A1.25,1.25,0,0,0,44.13,110.29Z"/><path class="cls-2" d="M72.1,116a3.59,3.59,0,0,0-.32-.72,2.22,2.22,0,0,0-.45-.69l-.16-.13s0,0,0-.06v0a.28.28,0,0,0,0-.09c0-.11,0-.06,0,.06a.46.46,0,0,0-.44-.64l-.16,0a.68.68,0,0,0-.23,0,2.22,2.22,0,0,0-.43.06,2.67,2.67,0,0,0-.26.09,1.86,1.86,0,0,0-.85.31,2.51,2.51,0,0,0-.62.42,2.34,2.34,0,0,0-.57,1,4.11,4.11,0,0,0-.13.7,1.77,1.77,0,0,0,0,1,2.42,2.42,0,0,0,.62,1.06,2.51,2.51,0,0,0,1.11.63l.1,0a2,2,0,0,0,.24,0,2.54,2.54,0,0,0,.29,0,1.62,1.62,0,0,0,.84-.19,1.66,1.66,0,0,0,.57-.34l0,0,.09-.08,0,0A2.46,2.46,0,0,0,72.1,116Z"/><path class="cls-2" d="M71.16,114.4h0Z"/><path class="cls-2" d="M97.22,108.64a1.77,1.77,0,0,0-.18-.45l-.19-.45a2.42,2.42,0,0,0-.47-.69c-.21-.22-.46-.42-.69-.62a4.28,4.28,0,0,0-.92-.6,1,1,0,0,0-1,0,1,1,0,0,0-.47.83,10.32,10.32,0,0,0,.07,1.1,9.21,9.21,0,0,0,.2.91,2.15,2.15,0,0,0,.37.76l.29.39a1.87,1.87,0,0,0,.81.69l.33.14a1.35,1.35,0,0,0,1.16-.08,1.3,1.3,0,0,0,.63-.94l0-.14A1.75,1.75,0,0,0,97.22,108.64Z"/><path class="cls-2" d="M114.1,93a1.1,1.1,0,0,0-.07-.85s0-.08,0-.12a.4.4,0,0,0-.28-.28l-.09-.08a1.78,1.78,0,0,0-.29-.32,3.61,3.61,0,0,0-.3-.25,3.28,3.28,0,0,0-.79-.41l.48.21-.28-.15-.31-.16.08,0-.09,0-.17-.08-.5-.21.47.2a9.11,9.11,0,0,0-1.36-.58,2.6,2.6,0,0,0-1.38-.1,1,1,0,0,0-.68.89,4.44,4.44,0,0,0,.17,1.19,4,4,0,0,0,.57,1.33,3.13,3.13,0,0,0,.57.69,3.35,3.35,0,0,0,1.23.67,2.44,2.44,0,0,0,2.26-.41A1.77,1.77,0,0,0,114.1,93Z"/><path class="cls-2" d="M121.22,70.5a2.89,2.89,0,0,0-.71-.34,2.35,2.35,0,0,0-.6-.08l-.27,0c-.22,0-.44,0-.65,0l-.65-.05a1.54,1.54,0,0,0-.43,0h-.16a6.15,6.15,0,0,0-.73.06,3.65,3.65,0,0,0-.54.23.44.44,0,0,0-.2.49,1.88,1.88,0,0,0,.22.57,2.53,2.53,0,0,0,.49.49,3.35,3.35,0,0,0,.85.55c.19.07.39.13.58.18a4.41,4.41,0,0,0,1.57.2,2.12,2.12,0,0,0,1-.32c.34-.25.67-.48.73-.93A1,1,0,0,0,121.22,70.5Z"/><path class="cls-2" d="M120,49.81a.27.27,0,0,0-.4.24l-.06,0-.13,0,0,0-.1,0,.09,0a.38.38,0,0,1-.11,0,2.1,2.1,0,0,0-.61-.15l-.76-.09a5.84,5.84,0,0,0-1.77.13c-.23.06-.47.11-.7.18a2.69,2.69,0,0,0-.77.44.73.73,0,0,0-.14,1.13l.26.23a2.36,2.36,0,0,0,.74.42c.3.1.6.24.91.31a8.42,8.42,0,0,0,1.23.14,6.15,6.15,0,0,0,1,0,2,2,0,0,0,2-1.71A1.32,1.32,0,0,0,120,49.81Z"/><path class="cls-2" d="M119.21,49.94h0Z"/><path class="cls-2" d="M106.32,24.15a1.48,1.48,0,0,0-2-.5l-.28.15A3.36,3.36,0,0,0,103,25a4,4,0,0,0-.43.94l0,0,0,.1a1.91,1.91,0,0,0-.21.81l0-.4a5.72,5.72,0,0,1-.11.57c0,.08,0,.17-.07.26a.84.84,0,0,0,.37,1,1.68,1.68,0,0,0,1,.13l.31,0a2.14,2.14,0,0,0,.82-.23l.19-.11a4.86,4.86,0,0,0,.92-.7,4.2,4.2,0,0,0,.78-1.4A2.21,2.21,0,0,0,106.32,24.15Z"/><path class="cls-2" d="M89.13,10.05a2.21,2.21,0,0,0-.51-.94A.66.66,0,0,0,88.47,9h0l-.14-.18a1.15,1.15,0,0,0-.22-.22.7.7,0,0,0-.32-.14l-.23-.16a.38.38,0,0,0-.56.32.66.66,0,0,1,0,.14l0,.06a1.38,1.38,0,0,0-.12.34h0a3.05,3.05,0,0,0-.5.78l-.18.5a3.25,3.25,0,0,0-.29.69c0,.13-.08.26-.13.38l-.06.14c-.07.11-.33.45,0,.08a1.46,1.46,0,0,0-.35.73,1.42,1.42,0,0,0,0,.54.86.86,0,0,0,.43.62l-.13-.09a1.2,1.2,0,0,0,.73.35,1.34,1.34,0,0,0,.81-.15,4.62,4.62,0,0,0,1.14-.81,2.81,2.81,0,0,0,.7-1,3.53,3.53,0,0,0,.14-.56A2.6,2.6,0,0,0,89.13,10.05Z"/><path class="cls-2" d="M69.07,6.13l0,0a.82.82,0,0,0-1.42,0h0a1.1,1.1,0,0,0-.18.14,2,2,0,0,0-.38.68l.13-.31-.37.87L67,7.15a4.13,4.13,0,0,0-.36.9l-.06.34a2.11,2.11,0,0,0,0,1,1.73,1.73,0,0,0,.77,1.06,1.47,1.47,0,0,0,1.58-.18,1.89,1.89,0,0,0,.53-.56,2.87,2.87,0,0,0,.23-.64,2.61,2.61,0,0,0,.11-1C69.7,7.44,69.63,6.54,69.07,6.13Z"/><path class="cls-2" d="M51.74,8.06a3.09,3.09,0,0,0-.69-1.12l0-.05a2.1,2.1,0,0,0-.49-.45l.28.22c-.22-.18-.41-.4-.64-.56l-.1-.1h0a.43.43,0,0,0-.59-.11h-.06a.7.7,0,0,0-.27.14l0,0a1.35,1.35,0,0,0-.54.71,3.31,3.31,0,0,0-.12.42,5.42,5.42,0,0,0-.08.54,2.89,2.89,0,0,0,.08.58c0,.16,0,.32.08.48l-.06-.43a4.22,4.22,0,0,0,.36,1.35,3.2,3.2,0,0,0,.36.52.33.33,0,0,0,.16.23,1.85,1.85,0,0,0,.83.3,1.4,1.4,0,0,0,.71-.21,1.94,1.94,0,0,0,.88-1.16A2.57,2.57,0,0,0,51.74,8.06Z"/><path class="cls-2" d="M35.88,14a3.86,3.86,0,0,0-.49-1.43,3.94,3.94,0,0,0-.94-1.05A2.17,2.17,0,0,0,34,11.2a2.23,2.23,0,0,0-.32-.09,1.09,1.09,0,0,0-.44,0,.77.77,0,0,0-.56.36.7.7,0,0,0-.12.44c-.09.14,0,.55,0,.66v.09a1.05,1.05,0,0,1,0,.13,1.93,1.93,0,0,0,0,.24,5.52,5.52,0,0,0,.1.71,3.76,3.76,0,0,0,.1.6l.09.49a1.46,1.46,0,0,0,.18.57l.12.16a1.66,1.66,0,0,0,.87.73l0,0a.35.35,0,0,0,.55.07l0-.05a1.41,1.41,0,0,0,1-.78A2.79,2.79,0,0,0,35.9,15,2.31,2.31,0,0,0,35.88,14Z"/><path class="cls-2" d="M19.89,25.18a.33.33,0,0,0,0-.14,1.63,1.63,0,0,0-.15-.52l.09.21c0-.1-.08-.19-.11-.28a1.68,1.68,0,0,0-.32-.57l-.14-.12a4.2,4.2,0,0,0-.81-.65l-.32-.17a2.57,2.57,0,0,0-.52-.27,2.42,2.42,0,0,0-.47,0,.66.66,0,0,0-.2,0c-.1,0-.27,0-.34.14a1.08,1.08,0,0,0-.18.52c0,.06,0,.12,0,.18a.76.76,0,0,0,0,.26,1.33,1.33,0,0,0,.19.5,3.47,3.47,0,0,0,.21.37l.12.19a1.42,1.42,0,0,0,.33.36l.2.15a2,2,0,0,0,1.22.53l.39,0a1.49,1.49,0,0,0,.46-.12l.12-.07A.32.32,0,0,0,19.89,25.18Z"/><path class="cls-6" d="M59.26,49.61a4.31,4.31,0,0,0-2-2.14,30,30,0,0,0-3.41-1.56c-1.15-.49-2.3-1-3.45-1.49a37.11,37.11,0,0,0-3.78-1.63c-.7-.22-2.51-.58-2.94.28a.5.5,0,0,0,.08.57,3.84,3.84,0,0,0,1,.66c.45.29.89.63,1.33,1,1,.71,1.86,1.49,2.79,2.24s2,1.58,3,2.35a21.93,21.93,0,0,0,3.17,2.25c1.29.69,3.66,1,4.36-.65A2.43,2.43,0,0,0,59.26,49.61Z"/><path class="cls-6" d="M80.8,42.12c.18-.38,0-1-.53-.93a10.31,10.31,0,0,0-3,.87,25,25,0,0,0-3,1.45,32.14,32.14,0,0,0-2.68,1.8c-1,.67-1.92,1.36-2.81,2.11s-2.4,2-2,3.45a1.74,1.74,0,0,0,1.67,1.28,3.8,3.8,0,0,0,2.2-1.06c1.67-1.36,3.24-2.83,4.94-4.15.87-.68,1.9-1.53,2.77-2.34a21,21,0,0,0,2.33-2.29.49.49,0,0,0,.11-.14l0-.05Z"/><path class="cls-6" d="M77.2,58.61A5.8,5.8,0,0,0,76,55.22a1.72,1.72,0,0,0-.71-.45,2.1,2.1,0,0,0-1.44-.11,2.27,2.27,0,0,0-1.62,2.13l0,2.25c0,.76,0,1.51,0,2.26a2.12,2.12,0,0,0,2.12,2.12C76.54,63.33,77.33,60.89,77.2,58.61Z"/><path class="cls-6" d="M55.64,58.61a5.74,5.74,0,0,0-1.16-3.39,1.66,1.66,0,0,0-.71-.45,2.08,2.08,0,0,0-1.43-.11,2.27,2.27,0,0,0-1.62,2.13l0,2.25c0,.76,0,1.51,0,2.26a2.1,2.1,0,0,0,.62,1.5,2.13,2.13,0,0,0,1.5.62C55,63.33,55.78,60.89,55.64,58.61Z"/><path class="cls-6" d="M81.82,69.4c-2.78-3.81-7.39-1.79-10.93-.47a37.59,37.59,0,0,1-7.07,1.87c-1.27.21-2.56.32-3.84.41h-.12A25.2,25.2,0,0,1,56.39,71a30.2,30.2,0,0,1-6.1-1.91,5.33,5.33,0,0,0-4.84,0,5.67,5.67,0,0,0-2.35,3.42c-1.83,6.82,5,12.39,10.52,14.69,7.15,3,16,3.52,22.61-1.09a16.81,16.81,0,0,0,6.23-7.87C83.48,75.42,83.66,71.92,81.82,69.4Z"/><path class="cls-7" d="M80.49,73.1a9.34,9.34,0,0,0,.67-4.45c-2.81-2.74-7-.94-10.27.28a37.59,37.59,0,0,1-7.07,1.87c-1.27.21-2.56.32-3.84.41h-.12A25.2,25.2,0,0,1,56.39,71a30.2,30.2,0,0,1-6.1-1.91,5.38,5.38,0,0,0-4.76,0,37,37,0,0,0,2.6,7.7.74.74,0,0,0,1.16.15,11.76,11.76,0,0,1,3.06-2.66,9.06,9.06,0,0,0,4,3.55,4.49,4.49,0,0,0,5.08-1.22,4.6,4.6,0,0,1,1-1c.78-.42,1.2.31,1.6.85A3.66,3.66,0,0,0,66,78c1.08.23,1.78-.44,2.43-1.2s1-1.23,1.54-1.84a3.53,3.53,0,0,0,2.57,1.6,3.69,3.69,0,0,0,3.22-1.38,3.07,3.07,0,0,0,1.85.32A3.72,3.72,0,0,0,80.49,73.1Z"/><path class="cls-3" d="M59.73,6.28c0-.18-.12-.36-.18-.54-.37-1.14-1.46-2.64-2.85-2.3a2,2,0,0,0-1,.69,2.55,2.55,0,0,0-.58,1L55,5.37a4.21,4.21,0,0,0-.19,1.06c0,.18,0,.35,0,.52a3.18,3.18,0,0,0,0,.62A3.59,3.59,0,0,0,55,8.66a3.51,3.51,0,0,0,.22.48,6.29,6.29,0,0,0,.61.85,2.26,2.26,0,0,0,3.52-.46,3.75,3.75,0,0,0,.52-2.06A6.69,6.69,0,0,0,59.73,6.28Z"/><path class="cls-3" d="M43.92,8.15l-.1-.76-.28-.68c-.06-.14-.12-.28-.19-.42a4,4,0,0,0-.86-1,2.62,2.62,0,0,0-1.11-.71,2,2,0,0,0-1.58.18,2.5,2.5,0,0,0-.95,1.09,2.91,2.91,0,0,1-.17.3,3.69,3.69,0,0,0-.3.71,6.13,6.13,0,0,0-.11.86c0,.13,0,.26,0,.39a4.11,4.11,0,0,0,.16,1.09,3.29,3.29,0,0,0,1.5,2.05,2.64,2.64,0,0,0,3.11-.4,3.24,3.24,0,0,0,.93-2.45A1.93,1.93,0,0,0,43.92,8.15Z"/><path class="cls-3" d="M26.14,18.78a2.85,2.85,0,0,0-.16-.59,6.18,6.18,0,0,0-.28-.64,3.39,3.39,0,0,0-.44-.56,2.52,2.52,0,0,0-.52-.46,2.67,2.67,0,0,0-.61-.24.69.69,0,0,0-.78,1s-.05-.12,0,0a1.17,1.17,0,0,1,.05.11l.09.27c.07.17.18.31.27.48s.07.14.1.22.07.16,0,0,.07.18.08.2.17.28.24.43l0,.06a2.24,2.24,0,0,0,.14.36c.08.13.17.25.25.37s.23.27.34.41l0,.05,0,0c0,.06.09.12.13.19a.28.28,0,0,0,.47,0,2.15,2.15,0,0,0,.55-1.67Z"/><path class="cls-3" d="M12.88,38.39a5.69,5.69,0,0,0-.12-.7,3.92,3.92,0,0,0-1.3-1.64A13.14,13.14,0,0,0,10,34.93a2.84,2.84,0,0,0-.9-.42,3.18,3.18,0,0,0-.52-.1,1,1,0,0,0-.77.29.86.86,0,0,0-.23.85,1.16,1.16,0,0,0,.18.35l0,0v0l.15.28a4,4,0,0,0,.63.73c.35.37.72.71,1.08,1.06a5.26,5.26,0,0,0,1.44,1.13,4.88,4.88,0,0,0,.75.2,2.35,2.35,0,0,0,.7,0,.32.32,0,0,0,.27-.2A2,2,0,0,0,12.88,38.39Z"/><path class="cls-3" d="M10.22,64a3,3,0,0,0-3.07-1.91,9.23,9.23,0,0,0-1.81.16,2.73,2.73,0,0,0-.75.36.9.9,0,0,0-.53,1c0,.29.32.52.51.73a2.3,2.3,0,0,0,.72.51A8.64,8.64,0,0,0,7,65.44a3.92,3.92,0,0,0,1.08.1,2.77,2.77,0,0,0,1-.24,2,2,0,0,0,.88-.61C10.13,64.47,10.3,64.27,10.22,64Z"/><path class="cls-3" d="M18.79,81.86c-.2,0-.4.09-.6.11h0a1.88,1.88,0,0,0-.33.05l-.32.06a3.57,3.57,0,0,0-.9.26,3.46,3.46,0,0,0-.84.57l-.24.21a3.42,3.42,0,0,0-.44.49c-.14.18-.3.36-.42.55a5.07,5.07,0,0,0-.32.61,1.17,1.17,0,0,0,.07,1.39,1.12,1.12,0,0,0,1.2.21,8.09,8.09,0,0,0,.86-.34,6.11,6.11,0,0,0,1.41-1,3.18,3.18,0,0,0,.61-.75,4,4,0,0,0,.33-.83l.09-.29a.94.94,0,0,0,.06-.24c0-.13,0-.15,0-.07s0,.06,0,0a4.31,4.31,0,0,0,.19-.61A.32.32,0,0,0,18.79,81.86Z"/><path class="cls-3" d="M35.27,102.48a3.24,3.24,0,0,0-.94-1.37,3.77,3.77,0,0,0-4.35-.28,4,4,0,0,0-.89.7A4.33,4.33,0,0,0,28,103.32a4.27,4.27,0,0,0-.13,1.39,5.83,5.83,0,0,0,.13,1,3.19,3.19,0,0,0,1.42,1.86,4.2,4.2,0,0,0,4-.13A4,4,0,0,0,35,106a6.43,6.43,0,0,0,.43-1,2.42,2.42,0,0,0,.16-1A2.68,2.68,0,0,0,35.27,102.48Z"/><path class="cls-3" d="M58.82,112.83a2.11,2.11,0,0,0-.3-1.09,6.14,6.14,0,0,0-.25-.59,3.1,3.1,0,0,0-1.1-1.2,3.17,3.17,0,0,0-1.45-.76,4.32,4.32,0,0,0-3.3.43,5,5,0,0,0-1.67,1.69,4.67,4.67,0,0,0-.6,1.38A6.79,6.79,0,0,0,50,114.6a4.93,4.93,0,0,0,.56,2.09l.65.84a3.1,3.1,0,0,0,1.34.86,2,2,0,0,0,1.05.28,2.05,2.05,0,0,0,1.1,0,2.07,2.07,0,0,0,1-.28,3.06,3.06,0,0,0,1.33-.86,2.94,2.94,0,0,0,.3-.31,5.56,5.56,0,0,0,.87-1.17,6.41,6.41,0,0,0,.47-1.16,9.15,9.15,0,0,0,.17-1.28A3.7,3.7,0,0,0,58.82,112.83Z"/><path class="cls-3" d="M86.24,113.05a4.44,4.44,0,0,0-.08-.61.36.36,0,0,1,0-.11l0-.06c-.13-.33-.27-.66-.41-1l-.16-.24-.63-.81-.81-.63-1-.41a3,3,0,0,0-1.6-.07,2,2,0,0,0-1,.28,3.78,3.78,0,0,0-1.61,1.24,3.09,3.09,0,0,0-.72,1.36,2,2,0,0,1,0,.24c-.06.38-.11.75-.15,1.13l.15,1.1,0,.15s0,.07,0,.11a5.66,5.66,0,0,0,.43,1l.65.84.83.64,0,0,.09.07a2.94,2.94,0,0,0,1.48.47,3,3,0,0,0,1.58-.07l.95-.4a4,4,0,0,0,1.43-1.43,5.5,5.5,0,0,0,.3-.64,2.14,2.14,0,0,0,.28-1.05,1.27,1.27,0,0,0,.07-.58C86.3,113.44,86.28,113.25,86.24,113.05Z"/><path class="cls-3" d="M107.75,103.91a2.9,2.9,0,0,0-.25-.57l-.06-.12a2.47,2.47,0,0,0-.82-.82l-.24-.16a1.26,1.26,0,0,0-.26-.13l-.13-.06a2.18,2.18,0,0,0-.84-.26l-.42-.05a2.09,2.09,0,0,0-.38,0,2,2,0,0,0-.68.16,1.53,1.53,0,0,0-.27.11,1.51,1.51,0,0,0-.64.83.17.17,0,0,0,0,.07.2.2,0,0,0,0,.08l-.06.45a1.55,1.55,0,0,0,.08.53,1.87,1.87,0,0,1,.07.22l.08.23c.07.18.15.36.22.53l.33.43.09.11a4.28,4.28,0,0,0,.83.7l.08.06.53.22a4.76,4.76,0,0,0,.66.09,1.91,1.91,0,0,0,1-.18,1.53,1.53,0,0,0,.65-.41,1.66,1.66,0,0,0,.16-.21,1.49,1.49,0,0,0,.35-.67.52.52,0,0,0,0-.28A1.66,1.66,0,0,0,107.75,103.91Z"/><path class="cls-3" d="M122.16,82.15a3.34,3.34,0,0,0-.52-1.64l-.1-.16-.05-.09-.7-.9a1.69,1.69,0,0,0-.49-.39,2.26,2.26,0,0,0-1-.58,3.76,3.76,0,0,0-.55-.23l-.08,0a1.41,1.41,0,0,0-.61-.08,2.15,2.15,0,0,0-1.18,0,2.18,2.18,0,0,0-.72.13l-.18,0a3.8,3.8,0,0,0-2.67,2.67l0,.17-.07.16c0,.39-.11.78-.16,1.18s.11.78.16,1.17a.31.31,0,0,1,0,.08l0,0a3.32,3.32,0,0,0,.8,1.53,2.5,2.5,0,0,0,.84.84c.2.15.33.27.51.39l.18.11,1.06.45a3.39,3.39,0,0,0,1.76.08,2.25,2.25,0,0,0,1.11-.3,3.33,3.33,0,0,0,1.42-.92l.7-.89c.14-.35.29-.71.44-1.06A3.39,3.39,0,0,0,122.16,82.15Z"/><path class="cls-3" d="M119.43,60.42a1.3,1.3,0,0,0-.36-.62,2.12,2.12,0,0,0-.71-.55,3.42,3.42,0,0,0-.59-.26,4.38,4.38,0,0,0-.66-.09l-.27,0a2.69,2.69,0,0,0-.57.07,1.77,1.77,0,0,0-.68.23,1,1,0,0,0-.5.76,1.06,1.06,0,0,0,.28.88,2.41,2.41,0,0,1,.21.24l.19.24c.1.1.23.18.34.27s.27.19.4.29a2.64,2.64,0,0,0,.77.28,2.15,2.15,0,0,0,.61.09,3.6,3.6,0,0,0,.56-.08,1.26,1.26,0,0,0,.62-.36,1.27,1.27,0,0,0,.36-.61A1.37,1.37,0,0,0,119.43,60.42Z"/><path class="cls-3" d="M117.3,35.48a1.63,1.63,0,0,0-1.13-1.13,1.76,1.76,0,0,0-.91,0l-.13,0a3.8,3.8,0,0,0-.79.37c-.15.11-.31.21-.47.31a10.26,10.26,0,0,0-1.15.94l-.11.08a3.5,3.5,0,0,0-.33.43l.25-.33a3.35,3.35,0,0,0-.4.53c0,.08-.08.16-.13.24a1.18,1.18,0,0,0,.42,1.6,3,3,0,0,0,.44.22,1.35,1.35,0,0,0,.34.11,3.85,3.85,0,0,0,.58.08,3.43,3.43,0,0,0,.83-.14l.45-.13a4,4,0,0,0,.6-.25,3.06,3.06,0,0,0,.53-.42l.34-.31.14-.15a2.66,2.66,0,0,0,.53-.92A1.77,1.77,0,0,0,117.3,35.48Z"/><path class="cls-3" d="M99.39,18.1v-.2a1.11,1.11,0,0,0-1.11-1.11,1.11,1.11,0,0,0-.54.14,2.7,2.7,0,0,0-1.59.92l-.44.42a5,5,0,0,0-.51.68,2.19,2.19,0,0,0-.27.35,2.68,2.68,0,0,0-.19.42,2.1,2.1,0,0,0-.27.88,1.25,1.25,0,0,0,.25.72,1.29,1.29,0,0,0,.62.43,1.43,1.43,0,0,0,.65,0,3.34,3.34,0,0,0,1-.19,4.42,4.42,0,0,0,1.29-.8,7.55,7.55,0,0,0,.84-1,3,3,0,0,0,.32-.79A1.67,1.67,0,0,0,99.39,18.1Z"/><path class="cls-3" d="M81.92,6.3a1,1,0,0,0-1.44-.58,2.35,2.35,0,0,0-.56.39,4.82,4.82,0,0,0-.5.6,3.63,3.63,0,0,0-.33.75c0,.09-.08.18-.11.28a2.62,2.62,0,0,0-.07.5c0,.16,0,.33,0,.49a3.83,3.83,0,0,0,.08.67c0,.31,0,.78.39.92s.68-.18.94-.35a3.54,3.54,0,0,0,.54-.39c.12-.12.22-.25.33-.38a2.37,2.37,0,0,0,.45-.65,4.17,4.17,0,0,0,.33-.75A6.65,6.65,0,0,0,82,7,2.2,2.2,0,0,0,81.92,6.3Z"/><path class="cls-2" d="M52.76,24.94l-.36-.85a2.63,2.63,0,0,0-.9-1,1.69,1.69,0,0,0-.76-.45,1,1,0,0,0-.43-.17c-.32-.06-.64-.1-1-.13l-.94.12-.84.36a8.34,8.34,0,0,0-.75.58,1.07,1.07,0,0,0-.16.14l-.06.06-.56.73-.11.18-.21.37a5.6,5.6,0,0,0-.62,1.47,4.74,4.74,0,0,0-.18,1.16,5.46,5.46,0,0,0,.13.89,0,0,0,0,0,0,0,2.78,2.78,0,0,0,.11.5h0v0c0,.11.09.21.13.31l.12.28a1.87,1.87,0,0,0,.37.46h0a1.64,1.64,0,0,0,.25.21,1.18,1.18,0,0,0,.53.31h0a2.6,2.6,0,0,0,.36.13l.16,0a2.21,2.21,0,0,0,.54.05,2.54,2.54,0,0,0,.52-.05,4.76,4.76,0,0,0,3-1.52l.29-.31.15-.15a3,3,0,0,0,.31-.4,4.46,4.46,0,0,0,.33-.43,1.11,1.11,0,0,1,.07-.16l.21-.5a1.72,1.72,0,0,0,.24-.89A2.77,2.77,0,0,0,52.76,24.94Z"/><path class="cls-2" d="M70.82,27.85s0,0,0-.1h0a1.14,1.14,0,0,0-.07-.22c-.07-.22-.23-.43-.48-.4h-.11l.32.09a1.66,1.66,0,0,0-1.55.3l-.43.27a2.18,2.18,0,0,0-.47.38l-.19.24a6.92,6.92,0,0,0-.57.74,4.68,4.68,0,0,0-.4.89,1.84,1.84,0,0,0,0,1A1.69,1.69,0,0,0,68,32.22,1.51,1.51,0,0,0,69.41,32a1.26,1.26,0,0,0,.24-.22,4.08,4.08,0,0,0,.81-1.54l.18-.52a2.69,2.69,0,0,0,.12-.76l.09-.55A1.75,1.75,0,0,0,70.82,27.85Z"/><path class="cls-2" d="M88.4,55.07c0-.23-.07-.44-.11-.66a2,2,0,0,0-.48-.92,2.1,2.1,0,0,0-.76-.69l-.65-.28a2.67,2.67,0,0,0-1.43,0,2.6,2.6,0,0,0-.65.21l-.39.17-.61.47a.23.23,0,0,0-.07.07,3.24,3.24,0,0,0-.83,1.46l0,.1v.06c0,.26-.07.53-.11.79l.11.8a1.67,1.67,0,0,0,.31.72c.15.21.31.41.47.61l.6.46a2.08,2.08,0,0,0,1.1.35,1,1,0,0,0,.41.06l.79-.11a2.2,2.2,0,0,0,1-.54,1.33,1.33,0,0,0,.44-.41,5,5,0,0,0,.48-.62l0,0,.3-.73,0-.11c0-.27.07-.54.11-.8Z"/><path class="cls-2" d="M92.4,77.44c0-.06,0-.11,0-.16a3.35,3.35,0,0,0-.23-.55,2.13,2.13,0,0,0-.77-.78,1.44,1.44,0,0,0-.82-.26,2.38,2.38,0,0,0-.34,0h-.15a2.38,2.38,0,0,0-.41,0c-.16,0-.28,0-.42.06l-.19.06a3,3,0,0,0-.83.33l-.58.44,0,0-.09.1-.07.09-.05.06-.45.58-.28.68,0,0a3.06,3.06,0,0,0-.1.84,2.78,2.78,0,0,0,.38,1.4,2,2,0,0,0,.71.77,2.09,2.09,0,0,0,.94.5,2.82,2.82,0,0,0,1.47,0,3.37,3.37,0,0,0,.42-.17,2.11,2.11,0,0,0,1-.61l.16-.2.08-.1L92.1,80c.09-.23.19-.45.29-.68s.06-.51.1-.76v-.06s0-.08,0-.11A3.66,3.66,0,0,0,92.4,77.44Z"/><path class="cls-2" d="M103.83,73.27a1.43,1.43,0,0,0-.08-.22,2.93,2.93,0,0,0-.66-1.18l-.12-.1a1.68,1.68,0,0,0-1.63-.43,2.57,2.57,0,0,0-.65.25,4.2,4.2,0,0,0-.49.37,2.69,2.69,0,0,0-.32.27,2.27,2.27,0,0,0-.63,1.18,2.9,2.9,0,0,0,0,1.6,2.49,2.49,0,0,0,1,1.31l.22.1a2.22,2.22,0,0,0,2.06-.17,2.63,2.63,0,0,0,1-1.16,1.73,1.73,0,0,0,.28-.88A1.77,1.77,0,0,0,103.83,73.27Z"/><path class="cls-2" d="M98.25,87.45a5,5,0,0,0-.39-.92,3.66,3.66,0,0,0-1.31-1.31,3.6,3.6,0,0,0-1.84-.49,4.11,4.11,0,0,0-1.9.5c-.28.19-.55.43-.82.64l-.12.09a2.79,2.79,0,0,0-.34.43,1.45,1.45,0,0,0-.33.45,5.79,5.79,0,0,0-.25.57,2.86,2.86,0,0,0-.33,1.47v.06a11.72,11.72,0,0,0,.16,1.24,3.66,3.66,0,0,0,.94,1.6,2.54,2.54,0,0,0,1.16.75,2.69,2.69,0,0,0,1.4.31,3.53,3.53,0,0,0,1.82-.49,4,4,0,0,0,1.73-1.68,2.55,2.55,0,0,0,.2-.48,1.3,1.3,0,0,0,.21-.52c0-.34.09-.68.13-1v-.23C98.34,88.1,98.29,87.77,98.25,87.45Z"/><path class="cls-2" d="M64.76,58.64a1.35,1.35,0,0,0-.87.12,2.88,2.88,0,0,0-.74.38,3.61,3.61,0,0,0-1,1c-.11.19-.2.38-.3.57a2.93,2.93,0,0,0-.42,1.4c0,.17,0,.33.06.49a2.58,2.58,0,0,0,.27.81,1.55,1.55,0,0,0,1.74.78,1.43,1.43,0,0,0,.51-.25,3.86,3.86,0,0,0,.38-.3,1.42,1.42,0,0,0,.12-.13l0,0,0-.06.23-.3,0,0a2.21,2.21,0,0,0,.4-.76l.09-.39a5.28,5.28,0,0,0,.27-1.24C65.52,60.1,65.67,58.83,64.76,58.64Z"/></g></g></svg>