<svg xmlns="http://www.w3.org/2000/svg" viewBox="0 0 119.91 126.02"><defs><style>.cls-1{fill:#a3488f;}.cls-2{fill:#813b72;}.cls-3{fill:#642e57;}.cls-4{fill:#c680af;}.cls-5{fill:#e3b1ce;}.cls-6{fill:#451d3b;}</style></defs><g id="Lager_2" data-name="Lager 2"><g id="OBJECTS"><path class="cls-1" d="M119.58,45.16a7.9,7.9,0,0,1-1-.09,5.43,5.43,0,0,0-.69.09c-.43.1-.84.31-1.26.44s-.79.11-1.17.23a10.71,10.71,0,0,0-1.55.68,26.51,26.51,0,0,0-3.57,2.2,20.06,20.06,0,0,0-1.94-3.28c.35-.57.7-1.14,1-1.71a44.9,44.9,0,0,0,2.94-6,11.78,11.78,0,0,0,.82-3.24,4.34,4.34,0,0,0,.07-1.39c-.05-.19-.16-.33-.2-.51a4.51,4.51,0,0,1,0-.82.14.14,0,0,0-.23-.1,3.86,3.86,0,0,1-.93.64,3.41,3.41,0,0,0-1,.8,20.23,20.23,0,0,0-1.85,2.26C108,36.9,107,38.53,106,40.14c-.35.57-.72,1.13-1.08,1.69a13.89,13.89,0,0,0-1.18-.83,12.58,12.58,0,0,0-2.7-1.29,39.36,39.36,0,0,0,.27-5.21,17.75,17.75,0,0,0-1-6.87c-.45-1-1.92-.6-2.22.29a27.34,27.34,0,0,0-.86,5c-.22,1.68-.57,3.33-.94,5-.08.39-.16.77-.25,1.16a16.15,16.15,0,0,0-7.29,2.32c-4.84,2.89-8.3,7.8-11.51,12.3C68.33,66.12,59.47,78.57,45.11,85c-11.37,5.05-33.42,18.87-13.79,31,5.33,3.28,11.89,2.81,17.76,1.6,21-4.32,40.37-17,53.19-34.07,6.08-8.07,11.38-18,10-28.33,1.13-1,2.21-2.11,3.28-3.19a14.44,14.44,0,0,0,2.76-3.6l.86-1.09a2.9,2.9,0,0,0,.44-.71c.1-.25.1-.77.27-.95S119.84,45.06,119.58,45.16Z"/><path class="cls-1" d="M90.56,13.27A15.86,15.86,0,0,0,81,6.45c-9.33-2.29-19,3.53-26.23,8.85C40,26.21,29.77,41.84,20.21,57.23c-2.51,4.05-5.46,8.22-6.16,13a17.48,17.48,0,0,0-.15,3.89,64,64,0,0,0-7.69,7.66c-.58.74.15,2,1.1,1.42a53.51,53.51,0,0,0,7.28-5.94,7.87,7.87,0,0,0,3.21,3.85c-1,1.13-2.06,2.25-3.14,3.32-.62.62-1.19,1.3-1.76,2a4.33,4.33,0,0,0-.76,1c-.11.23,0,.58-.16.77a.13.13,0,0,0,.16.21c.21-.11.33,0,.57,0a2.61,2.61,0,0,0,.84-.32,15.36,15.36,0,0,0,2-1.34,38,38,0,0,0,3.56-3.15c.47-.44.93-.9,1.38-1.36a15.21,15.21,0,0,0,3.1.49c-.14.45-.27.9-.38,1.36-.25,1-.51,2.09-.7,3.14a12,12,0,0,0-.09,3.43.4.4,0,0,0,.68.28,29.66,29.66,0,0,0,3.48-5c.7-1.13,1.38-2.3,2.05-3.47a30.7,30.7,0,0,0,12.67-5C53.33,68.79,58.7,54,69,43.67c6.64-6.62,17.06-9.24,21.56-18A12.7,12.7,0,0,0,90.56,13.27Z"/><path class="cls-2" d="M81.78,91.32c-3.29-1.53-6.22-.43-9,1.52-2.3,1.6-4.63,3.16-7.06,4.54a49.46,49.46,0,0,1-7.1,3.39,28.24,28.24,0,0,1-7.39,2,3.89,3.89,0,0,1-2.53-.41l-.12-.1-.38-.36c-.18-.19-.34-.39-.51-.59l-.25-.34c-1.31-1.9-2.65-3.93-4.75-5-5-2.63-10.36,1.19-11.13,6.18a7.56,7.56,0,0,0-.32,5.57c1.62,4.72,6.56,5.73,11,6,5.25.35,10.21-.73,15.26-2s10.25-2.46,14.82-5.06c4.8-2.73,8.93-6.15,11.12-11.34A3.48,3.48,0,0,0,81.78,91.32Z"/><path class="cls-2" d="M87.67,15.74c-2.11-3.25-6.68-2.47-9.11-.12-1.09,1.06-1.76,2.51-2.87,3.51a26.18,26.18,0,0,1-3.36,2.34c-2.67,1.71-5.48,3.27-8,5.19a24.31,24.31,0,0,0-9.87,21,3.69,3.69,0,0,0,3.61,3.61,3.63,3.63,0,0,0,3.61-3.61,17.26,17.26,0,0,1,1.73-9,36,36,0,0,1,7.07-4.85c2.57-1.42,5.21-2.72,7.72-4.26a28.63,28.63,0,0,0,6.57-4.95C86.88,22.29,89.78,19,87.67,15.74Z"/><path class="cls-2" d="M83.42,18.72Z"/><path class="cls-3" d="M66.72,103.66c-1.28.27-2.53.12-3.8.35a36,36,0,0,0-3.67,1,56.66,56.66,0,0,1-7.62,1.7c-2.48.39-5,.51-7.52.69-1.78.12-4.56.55-5.91-.93-.63-.69-1.52.19-1.2.92.87,2,3.16,2.71,5.15,3a33.84,33.84,0,0,0,8.88.14,46.71,46.71,0,0,0,8.6-1.68,18.4,18.4,0,0,0,4.15-1.67,26.4,26.4,0,0,0,3.32-2.86C67.42,104.05,67.07,103.59,66.72,103.66Z"/><path class="cls-3" d="M84.53,20.18c0-.28,0-.55,0-.82s-.24-.48-.5-.38-.49.23-.75.31a2.53,2.53,0,0,0-1.39.51,8.64,8.64,0,0,0-1.4,1.37q-.57.63-1.2,1.2c-.21.19-.42.38-.64.56l-.32.27s-.34.26-.11.09c-.53.39-1,.8-1.55,1.21a3.53,3.53,0,0,1-.48.36l-.64.41a21.45,21.45,0,0,0-2.84,2A.71.71,0,0,0,73,28.42,7,7,0,0,0,76.57,28a14.1,14.1,0,0,0,3.48-1.68A22.42,22.42,0,0,0,83,23.8C83.89,22.87,85,21.53,84.53,20.18Z"/><path class="cls-4" d="M26.32,64.65c.19-.69.46-1.35.69-2a10.9,10.9,0,0,0,.44-2.1,1.17,1.17,0,0,0-1.75-1,8,8,0,0,0-2.93,3.79,18.86,18.86,0,0,0-1.43,4.75c-.13.89-.23,1.49-.39,2.23a8.6,8.6,0,0,0,0,2.68c.23,2.24.68,4.37,2.83,5.24a2,2,0,0,0,2.41-1.36,5.36,5.36,0,0,0,.16-2.27c-.06-.51-.17-1-.27-1.48,0-.09-.17-1-.12-.67a19.06,19.06,0,0,1-.33-4.06A19.68,19.68,0,0,1,26.32,64.65Z"/><path class="cls-4" d="M94.57,51.69c.45.14.62.16.62.14l-.57-.14Z"/><path class="cls-4" d="M105.81,46.85a21.62,21.62,0,0,0-6-3.73,11.9,11.9,0,0,0-5.58-.93c-2.32.28-5.06,1.12-6.34,3.19l-.26.33c-.13.29-.22.5-.28.66s-.29.35-.42.53c.23-.25.13-.12-.3.4-.14.21-.29.42-.41.64a8.51,8.51,0,0,0-1.07,3.28.77.77,0,0,0,1,.74,13.45,13.45,0,0,1,2-.8l1.32-.24h0l.4.16-.39-.16h0l.34.14a5,5,0,0,0,1.68.35l.68,0h.11c.62.08,1.23.14,1.85.19l.51.06-.11,0,.16,0,.14,0a1,1,0,0,1,.43.12c.17,0,.35.07.52.12l.5.19a25.63,25.63,0,0,1,2.39,1.48l.61.52,1.07,1c1.45,1.4,2.86,2.79,5.09,2.57a4.64,4.64,0,0,0,4.46-4.47C110.15,50.47,107.73,48.46,105.81,46.85Z"/><path class="cls-5" d="M24.79,65.46a.56.56,0,0,0-.62-.25c-.83.14-1.07,1.07-1.33,1.74a12.88,12.88,0,0,0-.67,2.19,6.77,6.77,0,0,0-.13,2.2,3.35,3.35,0,0,0,.39,1.18,2,2,0,0,0,.84.7c.19.11.5,0,.47-.27s0-.61,0-.91-.11-.6-.15-.91a5.17,5.17,0,0,1,.07-1.71,13.27,13.27,0,0,1,.52-1.87c.11-.31.23-.62.35-.93l.12-.32c.13,0,.12-.11.21-.17a.29.29,0,0,0,.13-.33A.87.87,0,0,0,24.79,65.46Z"/><path class="cls-5" d="M101.47,50.07a2.78,2.78,0,0,0-.33-.67A6.32,6.32,0,0,0,98.25,47a6.63,6.63,0,0,0-2.5-.66,5.92,5.92,0,0,0-1.26.13,1.38,1.38,0,0,0-.55.25c-.12.1-.3.37-.22.54.23.5.67.49,1.15.58s.76.18,1.13.28A5.62,5.62,0,0,1,98,49l.11.07.2.17a5.36,5.36,0,0,1,.43.4c.14.14.28.28.41.43l.19.22,0,0,0,.06.28.36.19.25a1,1,0,0,0,.47.31h.08a.72.72,0,0,0,.77,0,.78.78,0,0,0,.28-.56A.93.93,0,0,0,101.47,50.07Z"/><path class="cls-5" d="M99.85,51l0,0Z"/><path class="cls-6" d="M91.1,69.78a3,3,0,0,0-1-1.5,2.87,2.87,0,0,0-3.74.13l-.71.67a3.31,3.31,0,0,0-.88.83c-.54.5-1.1,1-1.63,1.53l-.47.57a2.27,2.27,0,0,0-.27.54l-.37.38a2.66,2.66,0,0,0-.71,1.38,2.35,2.35,0,0,0,.25,1.56,3,3,0,0,0,.85.9,2.54,2.54,0,0,0,1.87.29,10.84,10.84,0,0,0,2.15-.71,3,3,0,0,0,.68-.42l.49-.37a4.59,4.59,0,0,0,.44-.33l.24-.18a11.61,11.61,0,0,0,1.53-1.68A8.76,8.76,0,0,0,90.76,72,3,3,0,0,0,91.1,69.78Z"/><path class="cls-6" d="M92.07,86.64c-.92-.44-1.88.06-2.73.42l-2.72,1.17-1.36.59-.26.09a5.68,5.68,0,0,1,.5-1.29,4.44,4.44,0,0,0,.61-2.51,2.44,2.44,0,0,0-1.28-2,3.41,3.41,0,0,0-2.8.28l-4.87,1.83a40.35,40.35,0,0,1,1.44-5.93,1.21,1.21,0,0,0-1.15-1.51,37.19,37.19,0,0,0-6.51.3,16.65,16.65,0,0,1,1-2.54A7.16,7.16,0,0,0,72.67,74c.09-.44-.16-.72-.12-1.08a.06.06,0,0,0-.09,0c-.26.12-.69,0-1,.29a4.65,4.65,0,0,0-1.1,1.64A19.85,19.85,0,0,0,68.62,79a1,1,0,0,0,1,1.26,36.19,36.19,0,0,1,6.24-.23,38.58,38.58,0,0,0-1.62,7.21,1.35,1.35,0,0,0,1.7,1.29l5.86-2.11L83.05,86c-.1.24-.19.52-.27.67a6.93,6.93,0,0,0-.57,1.2,3.34,3.34,0,0,0,1,3.69c1.54,1.08,3.44-.18,4.91-.8l2.73-1.15c.78-.34,1.8-.81,1.92-1.78A1.1,1.1,0,0,0,92.07,86.64Z"/><path class="cls-6" d="M61.19,39a2.89,2.89,0,0,0-.49.07l-.14,0a3.62,3.62,0,0,0-.47,0,12,12,0,0,0-1.33.13c-.37.05-.34.06-.71.09a8.09,8.09,0,0,1-3.74-.51A6.8,6.8,0,0,1,53,38a6.55,6.55,0,0,1-1-1,10.08,10.08,0,0,1-.87-1.4,4.43,4.43,0,0,0-.66-1.15c0-.06-.07-.12-.1-.19a.65.65,0,0,0-1.12,0c-.1.18-.07.18.11,0a1,1,0,0,0-.34.34,2.08,2.08,0,0,0-.18.6,4.51,4.51,0,0,0,.06,1.51,5.75,5.75,0,0,0,1,2.28,8.45,8.45,0,0,0,4.54,3.28,10,10,0,0,0,6,0c.91-.35,2-1,2-2.13C62.43,39.6,61.81,38.78,61.19,39Z"/><path class="cls-6" d="M52.47,44.52A3.64,3.64,0,0,0,51,42.59l-.77-.32a3.31,3.31,0,0,0-1.71,0l-.77.32a3.28,3.28,0,0,0-1.15,1.16l-.65.87-.32.43a2.87,2.87,0,0,0-.26.49A2.41,2.41,0,0,0,45,46.75a2.61,2.61,0,0,0,.06,1.3l.33.78a2.57,2.57,0,0,0,.84.92,1.75,1.75,0,0,0,.72.42,2.59,2.59,0,0,0,1.26.28l.87-.12a3.19,3.19,0,0,0,1.44-.84,7.59,7.59,0,0,0,.83-1.06c.1-.15.19-.31.28-.47l.54-1a2.37,2.37,0,0,0,.39-1.2A2.53,2.53,0,0,0,52.47,44.52Z"/><path class="cls-6" d="M49.55,59.58a3.42,3.42,0,0,0-2.4-.43,8.5,8.5,0,0,1,.28-1.29A1.18,1.18,0,0,0,46,56.42l-3.8,1.07c0-.16.06-.32.08-.39.2-.68.41-1.36.62-2.05a1,1,0,0,0-1-1.31l-3,.24-1.36.11a3.12,3.12,0,0,0-.45.06h0l.26-.88.61-2.06A1,1,0,0,0,37,50c-.55,0-1.11,0-1.66.09-.24,0-.47.06-.7.09l-.33.08c.06-.27.15-.55.19-.73.09-.45.19-.91.27-1.36A4.89,4.89,0,0,0,35,46a.28.28,0,0,0-.45-.12,5.69,5.69,0,0,0-1,2.28c-.14.43-.28.88-.43,1.32a4.36,4.36,0,0,0-.36,1.28c0,.72.57,1,1.2,1.11s1.14.08,1.71.09l-.62,2c-.26.82-.47,1.84.56,2.21a3.11,3.11,0,0,0,1.29,0l1.67-.11,1.85-.13A12.75,12.75,0,0,0,40,57.5a1.89,1.89,0,0,0,.74,2.06c.81.48,1.83.07,2.67-.12l1.35-.32a11.9,11.9,0,0,0-.09,1.34,1.24,1.24,0,0,0,1.22,1.22c1.32,0,3.23,0,3.86-1.4A.54.54,0,0,0,49.55,59.58Z"/><path class="cls-4" d="M77.22,28.69a18,18,0,0,0-4-6.21,45,45,0,0,0-5.45-5.15c-1.67-1.29-4-3.06-6.26-2.91a.06.06,0,0,0,0,.1A20.35,20.35,0,0,0,64,16a20.42,20.42,0,0,1,2.8,1.92,40.69,40.69,0,0,1,4.6,4.59c2.89,3.28,5.89,7.23,4.53,11.86a.19.19,0,0,0,.28.22C78.23,33.33,77.88,30.65,77.22,28.69Z"/><path class="cls-4" d="M66.19,39.54a33.64,33.64,0,0,0-2.32-2.6,37,37,0,0,0-5.06-4.28,34.18,34.18,0,0,0-5.94-3.32c-1-.44-2-.85-3-1.19a9.19,9.19,0,0,0-3.13-.63.08.08,0,0,0,0,.14,14,14,0,0,0,2.52,1.07c1,.41,2,.8,3,1.26a38,38,0,0,1,5.2,3A37.76,37.76,0,0,1,62,36.78c.73.69,1.43,1.41,2.09,2.16a10.22,10.22,0,0,1,2.06,2.75.22.22,0,0,0,.39.05C67.12,41,66.72,40.21,66.19,39.54Z"/><path class="cls-4" d="M53.9,58.8a22.71,22.71,0,0,0-5.45-6.57,75.7,75.7,0,0,0-7.17-5.46,32.29,32.29,0,0,0-8.12-4.4.11.11,0,0,0-.1.17c2,1.69,4.32,3,6.44,4.55a77.29,77.29,0,0,1,6.55,5.26,32.87,32.87,0,0,1,5,5.44A18,18,0,0,1,52.9,61.1a6.64,6.64,0,0,1,.48,1.51,6,6,0,0,1-.05,1.75.21.21,0,0,0,.27.21,2.39,2.39,0,0,0,1.32-2.17A7.17,7.17,0,0,0,53.9,58.8Z"/><path class="cls-4" d="M39.66,64.86a27.08,27.08,0,0,0-4.2-4.16,27.1,27.1,0,0,0-4.88-3.22c-1.59-.8-3.67-1.52-5.37-.71-.12,0,0,.21.06.22a13.11,13.11,0,0,1,2.72.46,14.08,14.08,0,0,1,2.54,1.21,29.1,29.1,0,0,1,4.2,3,29.41,29.41,0,0,1,3.44,3.44,8.56,8.56,0,0,1,2.35,4.79.23.23,0,0,0,.46.06C41.66,68,40.83,66.33,39.66,64.86Z"/><path class="cls-4" d="M50.1,112.43A11.44,11.44,0,0,1,44.33,110a16.72,16.72,0,0,1-3.79-5.07,27.8,27.8,0,0,1-2.46-6.07,16.36,16.36,0,0,1-.52-3.4c-.05-1.14.19-2.27.11-3.39a.28.28,0,0,0-.51-.14c-1.11,2-.75,5-.38,7.1a23.5,23.5,0,0,0,2.59,7.21c2,3.7,6,8.61,10.78,6.6A.19.19,0,0,0,50.1,112.43Z"/><path class="cls-4" d="M74.53,99.85c-3.76-1.78-7.47-3.58-10.43-6.57a33.49,33.49,0,0,1-3.94-4.94,31.44,31.44,0,0,1-1.67-2.72,7.53,7.53,0,0,1-.68-1.57c-.14-.51-.35-1.14-.44-1.67a.08.08,0,0,0-.14,0,2,2,0,0,0-.43,1.23,6.35,6.35,0,0,0,.34,1.6,22.31,22.31,0,0,0,1.47,3.18,31,31,0,0,0,4,5.79c3,3.37,7.06,6.61,11.76,6.38C74.68,100.53,74.89,100,74.53,99.85Z"/><path class="cls-4" d="M99.11,82.8c-2.52,1.3-5.5.77-8.08-.08a26.34,26.34,0,0,1-7.17-3.78A30.92,30.92,0,0,1,78,73.4a84.68,84.68,0,0,1-4.78-7.05.1.1,0,0,0-.18.08,24.06,24.06,0,0,0,4.32,7.95,30.63,30.63,0,0,0,6.48,6.38,25.84,25.84,0,0,0,8.18,3.87c2.5.66,5.74.89,7.33-1.57C99.49,82.89,99.28,82.71,99.11,82.8Z"/><path class="cls-4" d="M107.68,60.92c-2.35-.75-4.91-.49-7.34-.7A36.39,36.39,0,0,1,93.45,59a24.07,24.07,0,0,1-5.69-2.5c-1.82-1.11-3.39-2.51-5.14-3.71-.09-.07-.21.07-.16.16,2.14,3.6,6.58,6,10.42,7.37a30.53,30.53,0,0,0,7.22,1.45c2.51.23,5.27.53,7.63-.52C107.89,61.21,107.83,61,107.68,60.92Z"/><path class="cls-6" d="M100.55,63.06a.39.39,0,0,0-.65.17c0,.23-.11.35-.2.39l-.19,0-.29,0a15.23,15.23,0,0,0-2.09.53,9.77,9.77,0,0,1-4,.08,5.44,5.44,0,0,1-3.28-1.74,5.32,5.32,0,0,1-1.06-3.3,1.22,1.22,0,0,0-2.38-.32,6.05,6.05,0,0,0,1.05,5.47,8.51,8.51,0,0,0,5.21,3.5,13.3,13.3,0,0,0,3.27.26,8.64,8.64,0,0,0,3.34-.65,3.21,3.21,0,0,0,1.85-2.35A2.67,2.67,0,0,0,100.55,63.06Z"/><path class="cls-4" d="M33.87,27.8a21.91,21.91,0,0,0-4.71,2.56,27.08,27.08,0,0,0-3.62,3.48,75.4,75.4,0,0,0-6.61,8.51,87.69,87.69,0,0,0-5.17,9.1c-.76,1.56-1.5,3.14-2.13,4.77-.3.77-.63,1.54-.87,2.33a11,11,0,0,0-.31,2.69.64.64,0,0,0,.33.57.34.34,0,0,0,.12.06C12,62.08,13,60,13.43,59.23c.82-1.61,1.68-3.21,2.55-4.79a89,89,0,0,1,5.71-9c2.06-2.86,4.19-5.67,6.52-8.32,1.23-1.39,2.44-2.73,3.57-4.21a37.37,37.37,0,0,0,2.7-4.47A.45.45,0,0,0,33.87,27.8Z"/><path class="cls-4" d="M80.62,42.93a7.08,7.08,0,0,1-1.81,1.21c-.64.34-1.33.43-2,.73a16.45,16.45,0,0,0-3.76,2.43,73.36,73.36,0,0,0-6.66,6.29A28,28,0,0,0,61,61c-.64,1.44-1.21,2.89-1.87,4.32a13.34,13.34,0,0,0-1.21,3.94.33.33,0,0,0,.5.28,20.68,20.68,0,0,0,3-3,31.6,31.6,0,0,1,3.21-3c2.29-2,4.18-4.45,6.29-6.63s4.34-4.09,6.61-6a8.87,8.87,0,0,0,2.79-3.71,28.56,28.56,0,0,0,1.09-3.77A.47.47,0,0,0,80.62,42.93Z"/><path class="cls-4" d="M97.76,10.19a.35.35,0,0,0-.68,0c-.67,2.25-1.45,4.48-2.08,6.75s-1.11,4.66-1.84,6.94a64.78,64.78,0,0,1-2.36,6.56c-1,2.11-2.55,4.14-3,6.4a.4.4,0,0,0,.58.44c2.09-1,3.51-3.38,4.79-5.24a32.83,32.83,0,0,0,3.74-6.92,27.12,27.12,0,0,0,1.87-7.47A21,21,0,0,0,97.76,10.19Z"/><path class="cls-4" d="M33.89,125.17a12.51,12.51,0,0,1-3.23-2c-.92-.85-1.82-1.74-2.69-2.65-1.87-2-3.7-3.63-5-6.08s-1.51-5-2.08-7.69a15.59,15.59,0,0,1-.33-3.92,12,12,0,0,1,.29-2.06,3.87,3.87,0,0,0,.27-1l0-.24a.27.27,0,0,0,0-.22.71.71,0,0,0-.34-.62c-1.27-.71-2.48,2-2.86,2.79A19.28,19.28,0,0,0,16.37,107a15.12,15.12,0,0,0,.64,6.22,20.21,20.21,0,0,0,6.12,10c2.88,2.36,6.91,3.07,10.55,2.72C34.05,125.9,34.29,125.36,33.89,125.17Z"/><path class="cls-4" d="M95,100.22a34.51,34.51,0,0,0-4,1.72,42,42,0,0,0-3.67,2.82c-2.28,1.87-4.77,3.42-7.19,5.08a62.67,62.67,0,0,1-7.71,4.52c-1.29.64-2.6,1.21-3.93,1.77-.65.27-1.28.57-1.93.85s-1.37.68-2.1,1.08a.14.14,0,0,0,.07.26,13.41,13.41,0,0,0,2.37-.06c.67-.09,1.35-.18,2-.31a44.27,44.27,0,0,0,4.53-1.17,65.6,65.6,0,0,0,8.77-3.38,44.88,44.88,0,0,0,7.87-5.06,21.69,21.69,0,0,0,3.43-3.13,16.17,16.17,0,0,0,2.13-4.38A.45.45,0,0,0,95,100.22Z"/><path class="cls-4" d="M117,62.06a.26.26,0,0,0-.47-.06c-.47.93-1,1.83-1.44,2.75a18.37,18.37,0,0,0-1.33,2.84c-.69,2.11-1.2,4.27-2,6.36s-1.69,3.85-2.59,5.76c-.44.93-.87,1.87-1.23,2.83a6.55,6.55,0,0,0-.82,2.82.21.21,0,0,0,.19.2,4.3,4.3,0,0,0,2.26-1.24,14,14,0,0,0,2.43-2.5,27.71,27.71,0,0,0,3.38-6.27A34.94,34.94,0,0,0,117.54,69,17.31,17.31,0,0,0,117,62.06Z"/><path class="cls-4" d="M70,.09a5.29,5.29,0,0,0-3.52.64c-1.15.57-2.29,1.18-3.38,1.86s-2.42,1.53-2.78,2.85a.43.43,0,0,0,.29.51,4.93,4.93,0,0,0,3.44-.47C65.18,5,66.24,4.5,67.31,4l.7-.36.37-.18c.26-.11.52-.19.78-.31L69.43,3l.08,0A5.62,5.62,0,0,1,70,2.75l.24-.07.34-.06c.34-.09.37-.19.8-.14a.41.41,0,0,0,.41-.41A2.11,2.11,0,0,0,70,.09Z"/><path class="cls-4" d="M3.47,78.33C4,77.5,5.1,76.91,5.22,75.87a.73.73,0,0,0-.53-.7c-1.24-.44-2.54,1.15-3.19,2A7.2,7.2,0,0,0,.09,80.52a8,8,0,0,0,.34,3.86A4.66,4.66,0,0,0,1.55,86.1a5,5,0,0,0,1.52.8.3.3,0,0,0,.36-.36c-.16-.46-.16-.91-.28-1.37s-.29-1-.45-1.51a5.71,5.71,0,0,1-.27-2.75A6.75,6.75,0,0,1,3.47,78.33Z"/></g></g></svg>